<svg xmlns="http://www.w3.org/2000/svg" viewBox="0 0 1200 1500" width="1200" height="1500">
  <defs>
    <style>
      .screen-bg { fill: #000000; }
      .header-bg { fill: #0A0A0A; }
      .btn-bg { fill: #1A1A1C; }
      .btn-active-bg { fill: #0C1A1C; }
      .panel-bg { fill: #1A1A1C; }
      .text-main { fill: #FFFFFF; font-family: sans-serif; }
      .text-dim { fill: #555555; font-family: sans-serif; }
      .text-cyan { fill: #00E5FF; font-family: sans-serif; }
      .text-green { fill: #00E676; font-family: sans-serif; }
      .text-red { fill: #FF1744; font-family: sans-serif; }
      .gauge-arc { fill: none; stroke: #1A1A1A; stroke-width: 7; }
      .gauge-active { fill: none; stroke: #00E5FF; stroke-width: 5; }
      .separator { fill: #1A1A1A; }
    </style>
  </defs>

  <!-- Background -->
  <rect width="1200" height="1500" fill="#0A0A0A"/>

  <!-- Title -->
  <text x="600" y="32" font-family="sans-serif" font-size="22" fill="#FFFFFF" text-anchor="middle" font-weight="bold">TIG Rotator Controller — UI Screens</text>
  <text x="600" y="50" font-family="sans-serif" font-size="12" fill="#555555" text-anchor="middle">4.3" IPS 800×480 · ESP32-P4 · LVGL 8.x Dark Theme</text>

  <!-- ============================================ -->
  <!-- SCREEN 1: MAIN SCREEN                       -->
  <!-- ============================================ -->
  <g transform="translate(30, 70)">
    <rect width="360" height="250" rx="10" class="screen-bg" stroke="#2A2A2A" stroke-width="2"/>

    <!-- Header bar -->
    <rect width="360" height="32" rx="10" class="header-bg"/>
    <rect y="16" width="360" height="16" class="header-bg"/>
    <text x="16" y="21" font-size="10" class="text-dim" font-weight="bold">TIG ROTATOR</text>
    <text x="180" y="21" font-size="10" class="text-green" text-anchor="middle" font-weight="bold">● RUNNING</text>
    <text x="344" y="21" font-size="10" class="text-dim" text-anchor="end">24.5V</text>
    <rect y="32" width="360" height="1" class="separator"/>

    <!-- Gauge - 270° arc -->
    <path d="M 129 175 A 72 72 0 1 1 231 175" class="gauge-arc"/>
    <path d="M 129 175 A 72 72 0 0 1 115 149" class="gauge-active"/>
    <text x="180" y="146" font-size="42" class="text-main" text-anchor="middle" font-weight="bold">1.8</text>
    <text x="180" y="165" font-size="11" class="text-cyan" text-anchor="middle" letter-spacing="2">RPM</text>

    <!-- Gauge labels -->
    <g font-size="8" class="text-dim" text-anchor="middle" font-weight="bold" font-family="sans-serif">
      <text x="118" y="189">0</text>
      <text x="101" y="95">2.0</text>
      <text x="180" y="42">3.0</text>
      <text x="259" y="95">4.0</text>
      <text x="242" y="189">6.0</text>
    </g>

    <!-- Left buttons -->
    <rect x="16" y="44" width="60" height="36" rx="6" class="btn-active-bg" stroke="#00E5FF" stroke-width="2"/>
    <text x="46" y="67" font-size="11" class="text-main" text-anchor="middle" font-weight="bold">ON</text>

    <rect x="16" y="86" width="60" height="36" rx="6" class="btn-bg" stroke="#888888" stroke-width="2"/>
    <text x="46" y="109" font-size="11" class="text-main" text-anchor="middle">STOP</text>

    <rect x="16" y="128" width="60" height="36" rx="6" class="btn-bg" stroke="#888888" stroke-width="2"/>
    <text x="46" y="151" font-size="11" class="text-main" text-anchor="middle">JOG</text>

    <!-- Right buttons -->
    <rect x="284" y="44" width="60" height="36" rx="6" class="btn-active-bg" stroke="#00E5FF" stroke-width="2"/>
    <text x="314" y="67" font-size="11" class="text-main" text-anchor="middle" font-weight="bold">CW</text>

    <rect x="284" y="86" width="60" height="36" rx="6" class="btn-bg" stroke="#888888" stroke-width="2"/>
    <text x="314" y="109" font-size="11" class="text-main" text-anchor="middle">CCW</text>

    <rect x="284" y="128" width="60" height="36" rx="6" class="btn-bg" stroke="#888888" stroke-width="2"/>
    <text x="314" y="151" font-size="11" class="text-main" text-anchor="middle">MENU</text>

    <!-- Bottom separator -->
    <rect x="0" y="196" width="360" height="1" class="separator"/>

    <!-- RPM buttons -->
    <rect x="120" y="204" width="50" height="30" rx="6" class="btn-bg" stroke="#888888" stroke-width="2"/>
    <text x="145" y="224" font-size="11" class="text-main" text-anchor="middle">− RPM</text>

    <rect x="190" y="204" width="50" height="30" rx="6" class="btn-bg" stroke="#888888" stroke-width="2"/>
    <text x="215" y="224" font-size="11" class="text-main" text-anchor="middle">+ RPM</text>

    <!-- Screen label -->
    <text x="180" y="248" font-size="9" class="text-dim" text-anchor="middle" opacity="0.5">MAIN SCREEN</text>
  </g>

  <!-- ============================================ -->
  <!-- SCREEN 2: MENU                              -->
  <!-- ============================================ -->
  <g transform="translate(420, 70)">
    <rect width="360" height="250" rx="10" class="screen-bg" stroke="#333333" stroke-width="2"/>

    <!-- Header -->
    <text x="180" y="18" font-size="8" class="text-dim" text-anchor="middle">MODE SELECTION MENU</text>
    <text x="180" y="38" font-size="14" class="text-main" text-anchor="middle" font-weight="bold">02 — SELECT MODE</text>

    <!-- 2x2 Mode Grid -->
    <rect x="27" y="50" width="144" height="34" rx="6" class="btn-bg" stroke="#888888" stroke-width="2"/>
    <text x="99" y="73" font-size="11" class="text-main" text-anchor="middle">PULSE</text>

    <rect x="189" y="50" width="144" height="34" rx="6" class="btn-bg" stroke="#888888" stroke-width="2"/>
    <text x="261" y="73" font-size="11" class="text-main" text-anchor="middle">STEP</text>

    <rect x="27" y="90" width="144" height="34" rx="6" class="btn-bg" stroke="#888888" stroke-width="2"/>
    <text x="99" y="113" font-size="11" class="text-main" text-anchor="middle">JOG</text>

    <rect x="189" y="90" width="144" height="34" rx="6" class="btn-bg" stroke="#888888" stroke-width="2"/>
    <text x="261" y="113" font-size="11" class="text-main" text-anchor="middle">TIMER</text>

    <!-- PROGRAMS (full-width) -->
    <rect x="27" y="132" width="306" height="28" rx="6" class="btn-bg" stroke="#888888" stroke-width="2"/>
    <text x="180" y="151" font-size="11" class="text-main" text-anchor="middle">PROGRAMS</text>

    <!-- Separator -->
    <rect x="0" y="168" width="360" height="2" fill="#333333"/>

    <!-- Bottom buttons -->
    <rect x="27" y="178" width="144" height="28" rx="6" class="btn-bg" stroke="#888888" stroke-width="2"/>
    <text x="99" y="197" font-size="11" class="text-main" text-anchor="middle">← BACK</text>

    <rect x="189" y="178" width="144" height="28" rx="6" class="btn-active-bg" stroke="#00E5FF" stroke-width="2"/>
    <text x="261" y="197" font-size="11" class="text-main" text-anchor="middle">SETTINGS ⚙</text>

    <!-- Screen label -->
    <text x="180" y="248" font-size="9" class="text-dim" text-anchor="middle" opacity="0.5">MENU</text>
  </g>

  <!-- ============================================ -->
  <!-- SCREEN 3: PULSE MODE                        -->
  <!-- ============================================ -->
  <g transform="translate(810, 70)">
    <rect width="360" height="250" rx="10" class="screen-bg" stroke="#2A2A2A" stroke-width="2"/>

    <!-- Header bar -->
    <rect width="360" height="32" rx="10" class="header-bg"/>
    <rect y="16" width="360" height="16" class="header-bg"/>
    <text x="16" y="21" font-size="10" class="text-dim" font-weight="bold">← BACK</text>
    <text x="180" y="21" font-size="11" class="text-cyan" text-anchor="middle" font-weight="bold">PULSE MODE</text>
    <text x="344" y="21" font-size="10" class="text-cyan" text-anchor="end" font-weight="bold">● ACTIVE</text>
    <rect y="32" width="360" height="1" class="separator"/>

    <!-- ON TIME panel -->
    <rect x="16" y="40" width="160" height="50" rx="6" class="panel-bg" stroke="#00E5FF" stroke-width="2"/>
    <text x="96" y="54" font-size="8" class="text-cyan" text-anchor="middle" letter-spacing="1">ON TIME</text>
    <text x="96" y="80" font-size="24" class="text-cyan" text-anchor="middle" font-weight="bold">0.5s</text>

    <!-- OFF TIME panel -->
    <rect x="184" y="40" width="160" height="50" rx="6" class="panel-bg" stroke="#888888" stroke-width="2"/>
    <text x="264" y="54" font-size="8" class="text-dim" text-anchor="middle" letter-spacing="1">OFF TIME</text>
    <text x="264" y="80" font-size="24" class="text-main" text-anchor="middle" font-weight="bold">0.5s</text>

    <!-- RPM row: −  [value]  + -->
    <rect x="16" y="98" width="76" height="36" rx="6" class="btn-bg" stroke="#888888" stroke-width="2"/>
    <text x="54" y="121" font-size="11" class="text-main" text-anchor="middle">RPM −</text>

    <rect x="100" y="98" width="160" height="36" rx="6" class="panel-bg" stroke="#00E5FF" stroke-width="2"/>
    <text x="180" y="122" font-size="22" class="text-cyan" text-anchor="middle" font-weight="bold">1.2 RPM</text>

    <rect x="268" y="98" width="76" height="36" rx="6" class="btn-bg" stroke="#888888" stroke-width="2"/>
    <text x="306" y="121" font-size="11" class="text-main" text-anchor="middle">RPM +</text>

    <!-- Separator -->
    <rect x="0" y="144" width="360" height="1" class="separator"/>

    <!-- START button -->
    <rect x="16" y="152" width="328" height="40" rx="8" class="btn-active-bg" stroke="#00E5FF" stroke-width="2"/>
    <text x="180" y="178" font-size="11" class="text-main" text-anchor="middle" font-weight="bold">▶ START</text>

    <!-- Separator -->
    <rect x="0" y="200" width="360" height="1" class="separator"/>

    <!-- Time adjustment: ON −/+  OFF −/+ -->
    <rect x="16" y="208" width="76" height="30" rx="6" class="btn-bg" stroke="#888888" stroke-width="2"/>
    <text x="54" y="228" font-size="11" class="text-main" text-anchor="middle">ON −</text>

    <rect x="100" y="208" width="76" height="30" rx="6" class="btn-bg" stroke="#888888" stroke-width="2"/>
    <text x="138" y="228" font-size="11" class="text-main" text-anchor="middle">ON +</text>

    <rect x="184" y="208" width="76" height="30" rx="6" class="btn-bg" stroke="#888888" stroke-width="2"/>
    <text x="222" y="228" font-size="11" class="text-main" text-anchor="middle">OFF −</text>

    <rect x="268" y="208" width="76" height="30" rx="6" class="btn-bg" stroke="#888888" stroke-width="2"/>
    <text x="306" y="228" font-size="11" class="text-main" text-anchor="middle">OFF +</text>

    <!-- Screen label -->
    <text x="180" y="248" font-size="9" class="text-dim" text-anchor="middle" opacity="0.5">PULSE MODE</text>
  </g>

  <!-- ============================================ -->
  <!-- SCREEN 4: STEP MODE                         -->
  <!-- ============================================ -->
  <g transform="translate(30, 350)">
    <rect width="360" height="250" rx="10" class="screen-bg" stroke="#2A2A2A" stroke-width="2"/>

    <!-- Header bar -->
    <rect width="360" height="32" rx="10" class="header-bg"/>
    <rect y="16" width="360" height="16" class="header-bg"/>
    <text x="16" y="21" font-size="10" class="text-dim" font-weight="bold">← BACK</text>
    <text x="180" y="21" font-size="11" class="text-cyan" text-anchor="middle" font-weight="bold">STEP MODE</text>
    <text x="344" y="21" font-size="10" class="text-cyan" text-anchor="end" font-weight="bold">● READY</text>
    <rect y="32" width="360" height="1" class="separator"/>

    <!-- Angle display panel -->
    <rect x="16" y="40" width="150" height="60" rx="8" class="panel-bg" stroke="#00E5FF" stroke-width="2"/>
    <text x="91" y="54" font-size="8" class="text-dim" text-anchor="middle" letter-spacing="1">TARGET ANGLE</text>
    <text x="91" y="88" font-size="34" class="text-cyan" text-anchor="middle" font-weight="bold">90°</text>

    <!-- RPM panel with value -->
    <rect x="178" y="40" width="166" height="60" rx="8" class="panel-bg" stroke="#888888" stroke-width="2"/>
    <text x="261" y="54" font-size="8" class="text-dim" text-anchor="middle" letter-spacing="1">RPM</text>
    <text x="261" y="88" font-size="28" class="text-main" text-anchor="middle" font-weight="bold">2.0</text>

    <!-- Preset buttons -->
    <text x="16" y="118" font-size="8" class="text-dim" letter-spacing="1">PRESETS</text>

    <rect x="16" y="124" width="60" height="28" rx="6" class="btn-bg" stroke="#888888" stroke-width="2"/>
    <text x="46" y="143" font-size="11" class="text-main" text-anchor="middle">45°</text>

    <rect x="82" y="124" width="60" height="28" rx="6" class="btn-active-bg" stroke="#00E5FF" stroke-width="2"/>
    <text x="112" y="143" font-size="11" class="text-main" text-anchor="middle" font-weight="bold">90°</text>

    <rect x="148" y="124" width="60" height="28" rx="6" class="btn-bg" stroke="#888888" stroke-width="2"/>
    <text x="178" y="143" font-size="11" class="text-main" text-anchor="middle">180°</text>

    <rect x="214" y="124" width="60" height="28" rx="6" class="btn-bg" stroke="#888888" stroke-width="2"/>
    <text x="244" y="143" font-size="11" class="text-main" text-anchor="middle">360°</text>

    <rect x="280" y="124" width="60" height="28" rx="6" class="btn-bg" stroke="#888888" stroke-width="2"/>
    <text x="310" y="143" font-size="11" class="text-main" text-anchor="middle">CUSTOM</text>

    <!-- Separator -->
    <rect x="0" y="160" width="360" height="1" class="separator"/>

    <!-- RPM adjustment buttons -->
    <rect x="16" y="168" width="76" height="32" rx="6" class="btn-bg" stroke="#888888" stroke-width="2"/>
    <text x="54" y="189" font-size="11" class="text-main" text-anchor="middle">RPM −</text>

    <rect x="100" y="168" width="76" height="32" rx="6" class="btn-bg" stroke="#888888" stroke-width="2"/>
    <text x="138" y="189" font-size="11" class="text-main" text-anchor="middle">RPM +</text>

    <!-- Action buttons -->
    <rect x="184" y="168" width="96" height="32" rx="8" class="btn-active-bg" stroke="#00E5FF" stroke-width="2"/>
    <text x="232" y="189" font-size="11" class="text-main" text-anchor="middle" font-weight="bold">▶ STEP</text>

    <rect x="288" y="168" width="52" height="32" rx="8" class="btn-bg" stroke="#FF1744" stroke-width="2"/>
    <text x="314" y="189" font-size="11" class="text-main" text-anchor="middle" font-weight="bold">■ STOP</text>

    <!-- Hint text -->
    <text x="180" y="220" font-size="8" class="text-dim" text-anchor="middle">Select preset → Set RPM → Press STEP</text>

    <!-- Screen label -->
    <text x="180" y="248" font-size="9" class="text-dim" text-anchor="middle" opacity="0.5">STEP MODE</text>
  </g>

  <!-- ============================================ -->
  <!-- SCREEN 5: JOG MODE                          -->
  <!-- ============================================ -->
  <g transform="translate(420, 350)">
    <rect width="360" height="250" rx="10" class="screen-bg" stroke="#2A2A2A" stroke-width="2"/>

    <!-- Header bar -->
    <rect width="360" height="32" rx="10" class="header-bg"/>
    <rect y="16" width="360" height="16" class="header-bg"/>
    <text x="16" y="21" font-size="10" class="text-dim" font-weight="bold">← BACK</text>
    <text x="180" y="21" font-size="11" class="text-cyan" text-anchor="middle" font-weight="bold">JOG MODE</text>
    <text x="344" y="21" font-size="10" class="text-cyan" text-anchor="end" font-weight="bold">● READY</text>
    <rect y="32" width="360" height="1" class="separator"/>

    <!-- RPM panel -->
    <rect x="16" y="40" width="160" height="56" rx="8" class="panel-bg" stroke="#00E5FF" stroke-width="2"/>
    <text x="96" y="54" font-size="8" class="text-cyan" text-anchor="middle" letter-spacing="1">RPM</text>
    <text x="96" y="84" font-size="26" class="text-cyan" text-anchor="middle" font-weight="bold">1.8</text>

    <!-- Direction indicator -->
    <rect x="184" y="40" width="160" height="56" rx="8" class="panel-bg" stroke="#888888" stroke-width="2"/>
    <text x="264" y="54" font-size="8" class="text-dim" text-anchor="middle" letter-spacing="1">DIRECTION</text>
    <text x="264" y="84" font-size="18" class="text-main" text-anchor="middle" font-weight="bold">CW ↻</text>

    <!-- Large jog button -->
    <rect x="16" y="104" width="328" height="56" rx="8" class="btn-active-bg" stroke="#00E5FF" stroke-width="2"/>
    <text x="180" y="130" font-size="11" class="text-main" text-anchor="middle" font-weight="bold">◀ JOG ▶</text>
    <text x="180" y="150" font-size="9" class="text-dim" text-anchor="middle">Touch &amp; hold to rotate</text>

    <!-- Separator -->
    <rect x="0" y="168" width="360" height="1" class="separator"/>

    <!-- RPM adjustment -->
    <rect x="16" y="176" width="76" height="32" rx="6" class="btn-bg" stroke="#888888" stroke-width="2"/>
    <text x="54" y="197" font-size="11" class="text-main" text-anchor="middle">RPM −</text>

    <rect x="100" y="176" width="76" height="32" rx="6" class="btn-bg" stroke="#888888" stroke-width="2"/>
    <text x="138" y="197" font-size="11" class="text-main" text-anchor="middle">RPM +</text>

    <!-- Direction buttons -->
    <rect x="184" y="176" width="76" height="32" rx="6" class="btn-active-bg" stroke="#00E5FF" stroke-width="2"/>
    <text x="222" y="197" font-size="11" class="text-main" text-anchor="middle" font-weight="bold">CW ↑</text>

    <rect x="268" y="176" width="76" height="32" rx="6" class="btn-bg" stroke="#888888" stroke-width="2"/>
    <text x="306" y="197" font-size="11" class="text-main" text-anchor="middle">CCW ↓</text>

    <!-- Screen label -->
    <text x="180" y="248" font-size="9" class="text-dim" text-anchor="middle" opacity="0.5">JOG MODE</text>
  </g>

  <!-- ============================================ -->
  <!-- SCREEN 6: TIMER MODE                        -->
  <!-- ============================================ -->
  <g transform="translate(810, 350)">
    <rect width="360" height="250" rx="10" class="screen-bg" stroke="#2A2A2A" stroke-width="2"/>

    <!-- Header bar -->
    <rect width="360" height="32" rx="10" class="header-bg"/>
    <rect y="16" width="360" height="16" class="header-bg"/>
    <text x="16" y="21" font-size="10" class="text-dim" font-weight="bold">← BACK</text>
    <text x="180" y="21" font-size="11" class="text-cyan" text-anchor="middle" font-weight="bold">TIMER MODE</text>
    <text x="344" y="21" font-size="10" class="text-cyan" text-anchor="end" font-weight="bold">● READY</text>
    <rect y="32" width="360" height="1" class="separator"/>

    <!-- Timer display -->
    <rect x="40" y="44" width="280" height="70" rx="8" class="panel-bg" stroke="#00E5FF" stroke-width="2"/>
    <text x="180" y="90" font-size="44" class="text-cyan" text-anchor="middle" font-weight="bold">00:30</text>

    <!-- Duration preset buttons -->
    <rect x="16" y="124" width="78" height="34" rx="6" class="btn-bg" stroke="#888888" stroke-width="2"/>
    <text x="55" y="146" font-size="11" class="text-main" text-anchor="middle">10s</text>

    <rect x="100" y="124" width="78" height="34" rx="6" class="btn-active-bg" stroke="#00E5FF" stroke-width="2"/>
    <text x="139" y="146" font-size="11" class="text-main" text-anchor="middle" font-weight="bold">30s</text>

    <rect x="184" y="124" width="78" height="34" rx="6" class="btn-bg" stroke="#888888" stroke-width="2"/>
    <text x="223" y="146" font-size="11" class="text-main" text-anchor="middle">60s</text>

    <rect x="268" y="124" width="78" height="34" rx="6" class="btn-bg" stroke="#888888" stroke-width="2"/>
    <text x="307" y="146" font-size="11" class="text-main" text-anchor="middle">CUSTOM</text>

    <!-- Separator -->
    <rect x="0" y="168" width="360" height="1" class="separator"/>

    <!-- RPM display -->
    <text x="16" y="194" font-size="10" class="text-dim">SPEED:</text>
    <text x="68" y="194" font-size="14" class="text-main" font-weight="bold">2.0 RPM</text>

    <!-- Start button -->
    <rect x="188" y="178" width="156" height="36" rx="6" class="btn-active-bg" stroke="#00E5FF" stroke-width="2"/>
    <text x="266" y="202" font-size="11" class="text-main" text-anchor="middle" font-weight="bold">▶ START</text>

    <!-- Screen label -->
    <text x="180" y="248" font-size="9" class="text-dim" text-anchor="middle" opacity="0.5">TIMER MODE</text>
  </g>

  <!-- ============================================ -->
  <!-- SCREEN 7: E-STOP OVERLAY                    -->
  <!-- ============================================ -->
  <g transform="translate(30, 630)">
    <rect width="360" height="250" rx="10" fill="#1A0000" stroke="#FF1744" stroke-width="3"/>

    <!-- Header bar -->
    <rect width="360" height="32" rx="10" fill="#200000"/>
    <rect y="16" width="360" height="16" fill="#200000"/>
    <text x="180" y="21" font-size="11" class="text-red" text-anchor="middle" font-weight="bold">⚠ E-STOP TRIGGERED</text>
    <rect y="32" width="360" height="1" fill="#330000"/>

    <!-- Warning icon -->
    <polygon points="180,65 155,110 205,110" fill="none" stroke="#FF1744" stroke-width="3" stroke-linejoin="round"/>
    <text x="180" y="105" font-size="28" class="text-red" text-anchor="middle" font-weight="bold">!</text>

    <!-- Info -->
    <text x="180" y="135" font-size="12" class="text-main" text-anchor="middle" font-weight="bold">Motor stopped</text>
    <text x="180" y="155" font-size="10" class="text-dim" text-anchor="middle">Check safety conditions before reset.</text>

    <!-- Separator -->
    <rect x="0" y="168" width="360" height="1" fill="#330000"/>

    <!-- Reset button -->
    <rect x="60" y="180" width="240" height="40" rx="8" fill="#1A0000" stroke="#FF1744" stroke-width="2"/>
    <text x="180" y="206" font-size="11" class="text-main" text-anchor="middle" font-weight="bold">↻ RESET</text>

    <!-- Screen label -->
    <text x="180" y="248" font-size="9" fill="#553333" text-anchor="middle" font-family="sans-serif" opacity="0.5">E-STOP OVERLAY</text>
  </g>

  <!-- ============================================ -->
  <!-- SCREEN 8: SETTINGS                          -->
  <!-- ============================================ -->
  <g transform="translate(420, 630)">
    <rect width="360" height="250" rx="10" class="screen-bg" stroke="#2A2A2A" stroke-width="2"/>

    <!-- Header bar -->
    <rect width="360" height="32" rx="10" class="header-bg"/>
    <rect y="16" width="360" height="16" class="header-bg"/>
    <text x="16" y="21" font-size="10" class="text-dim" font-weight="bold">← BACK</text>
    <text x="180" y="21" font-size="11" class="text-main" text-anchor="middle" font-weight="bold">SETTINGS</text>
    <rect y="32" width="360" height="1" class="separator"/>

    <!-- Setting rows -->
    <rect x="16" y="42" width="328" height="28" rx="6" class="btn-active-bg" stroke="#00E5FF" stroke-width="2"/>
    <text x="32" y="61" font-size="11" class="text-main">Acceleration</text>
    <text x="336" y="61" font-size="11" class="text-cyan" text-anchor="end" font-weight="bold">5000</text>

    <rect x="16" y="76" width="328" height="28" rx="6" class="btn-bg" stroke="#888888" stroke-width="2"/>
    <text x="32" y="95" font-size="11" class="text-main">Microstep</text>
    <text x="336" y="95" font-size="11" class="text-cyan" text-anchor="end" font-weight="bold">1/8</text>

    <rect x="16" y="110" width="328" height="28" rx="6" class="btn-bg" stroke="#888888" stroke-width="2"/>
    <text x="32" y="129" font-size="11" class="text-main">Calibration Factor</text>
    <text x="336" y="129" font-size="11" class="text-cyan" text-anchor="end" font-weight="bold">1.00</text>

    <!-- Calibration buttons -->
    <rect x="16" y="146" width="70" height="28" rx="6" class="btn-bg" stroke="#888888" stroke-width="2"/>
    <text x="51" y="165" font-size="11" class="text-main" text-anchor="middle">−1%</text>

    <rect x="92" y="146" width="70" height="28" rx="6" class="btn-bg" stroke="#888888" stroke-width="2"/>
    <text x="127" y="165" font-size="11" class="text-main" text-anchor="middle">+1%</text>

    <rect x="168" y="146" width="70" height="28" rx="6" class="btn-bg" stroke="#888888" stroke-width="2"/>
    <text x="203" y="165" font-size="11" class="text-main" text-anchor="middle">SAVE</text>

    <!-- Separator -->
    <rect x="0" y="182" width="360" height="1" class="separator"/>

    <!-- Static info -->
    <text x="16" y="202" font-size="9" class="text-dim">Max RPM: 5.0</text>
    <text x="120" y="202" font-size="9" class="text-dim">Gear Ratio: 108:1</text>
    <text x="260" y="202" font-size="9" class="text-dim">FW: v1.2.0</text>

    <!-- Screen label -->
    <text x="180" y="248" font-size="9" class="text-dim" text-anchor="middle" opacity="0.5">SETTINGS</text>
  </g>

  <!-- ============================================ -->
  <!-- COLOR LEGEND                                 -->
  <!-- ============================================ -->
  <g transform="translate(810, 630)">
    <rect width="360" height="250" rx="10" fill="#000000" stroke="#2A2A2A" stroke-width="2"/>

    <!-- Header bar -->
    <rect width="360" height="32" rx="10" class="header-bg"/>
    <rect y="16" width="360" height="16" class="header-bg"/>
    <text x="180" y="21" font-size="11" class="text-main" text-anchor="middle" font-weight="bold">COLOR LEGEND</text>
    <rect y="32" width="360" height="1" class="separator"/>

    <!-- Legend items -->
    <g font-size="10" font-family="sans-serif">
      <circle cx="32" cy="52" r="5" fill="#00E5FF"/>
      <text x="44" y="56" class="text-dim">Cyan — Active borders / Display values</text>

      <circle cx="32" cy="72" r="5" fill="#FFFFFF"/>
      <text x="44" y="76" class="text-dim">White — All button text</text>

      <circle cx="32" cy="92" r="5" fill="#FF1744"/>
      <text x="44" y="96" class="text-dim">Red — E-STOP / Stop borders</text>

      <circle cx="32" cy="112" r="5" fill="#00E676"/>
      <text x="44" y="116" class="text-dim">Green — Running status</text>

      <circle cx="32" cy="132" r="5" fill="#555555"/>
      <text x="44" y="136" class="text-dim">Grey — Secondary / labels</text>

      <circle cx="200" cy="52" r="5" fill="#888888"/>
      <text x="212" y="56" class="text-dim">#888 — Inactive button borders</text>

      <circle cx="200" cy="72" r="5" fill="#1A1A1C"/>
      <text x="212" y="76" class="text-dim">#1A1A1C — Button fill</text>

      <circle cx="200" cy="92" r="5" fill="#0C1A1C"/>
      <text x="212" y="96" class="text-dim">#0C1A1C — Active button fill</text>
    </g>

    <!-- Separator -->
    <rect x="0" y="168" width="360" height="1" class="separator"/>

    <text x="180" y="190" font-size="9" class="text-dim" text-anchor="middle" font-family="sans-serif">Unified menu style · White text · #1A1A1C buttons · #000000 background</text>

    <!-- Navigation flow mini -->
    <g font-size="7" font-family="sans-serif" text-anchor="middle">
      <text x="180" y="210" class="text-dim">MAIN → MENU → PULSE | STEP | JOG | TIMER</text>
      <text x="180" y="224" class="text-dim">SETTINGS → CALIBRATION · E-STOP overlays ALL</text>
    </g>

    <text x="180" y="248" font-size="9" class="text-dim" text-anchor="middle" font-family="sans-serif" opacity="0.5">LEGEND</text>
  </g>

  <!-- ============================================ -->
  <!-- SCREEN 9: PROGRAMS                          -->
  <!-- ============================================ -->
  <g transform="translate(810, 630)">
    <rect width="360" height="250" rx="10" class="screen-bg" stroke="#2A2A2A" stroke-width="2"/>

    <!-- Header bar -->
    <rect width="360" height="32" rx="10" class="header-bg"/>
    <rect y="16" width="360" height="16" class="header-bg"/>
    <text x="16" y="21" font-size="10" class="text-dim" font-weight="bold">← BACK</text>
    <text x="180" y="21" font-size="11" class="text-main" text-anchor="middle" font-weight="bold">PROGRAMS</text>
    <text x="344" y="21" font-size="10" class="text-dim" text-anchor="end">3 / 10</text>
    <rect y="32" width="360" height="1" class="separator"/>

    <!-- + NEW PROGRAM button -->
    <rect x="16" y="40" width="328" height="28" rx="6" class="btn-active-bg" stroke="#00E5FF" stroke-width="2"/>
    <text x="180" y="59" font-size="11" class="text-main" text-anchor="middle" font-weight="bold">+ NEW PROGRAM</text>

    <!-- Program card 1 -->
    <rect x="16" y="74" width="328" height="48" rx="6" class="btn-bg" stroke="#888888" stroke-width="2"/>
    <text x="28" y="90" font-size="10" class="text-main" font-weight="bold">1: Pipe Weld 90°</text>
    <text x="28" y="103" font-size="8" class="text-cyan">PULSE · 1.2 RPM · ON: 500ms · OFF: 300ms</text>
    <rect x="244" y="80" width="40" height="34" rx="4" class="btn-active-bg" stroke="#00E676" stroke-width="1"/>
    <text x="264" y="101" font-size="8" class="text-main" text-anchor="middle" font-weight="bold">▶</text>
    <rect x="288" y="80" width="24" height="34" rx="4" class="btn-active-bg" stroke="#00E5FF" stroke-width="1"/>
    <text x="300" y="101" font-size="8" class="text-main" text-anchor="middle" font-weight="bold">✎</text>
    <rect x="316" y="80" width="24" height="34" rx="4" class="btn-bg" stroke="#FF1744" stroke-width="1"/>
    <text x="328" y="101" font-size="8" class="text-main" text-anchor="middle" font-weight="bold">✗</text>

    <!-- Program card 2 -->
    <rect x="16" y="126" width="328" height="48" rx="6" class="btn-bg" stroke="#888888" stroke-width="2"/>
    <text x="28" y="142" font-size="10" class="text-main" font-weight="bold">2: Flat Seam Step</text>
    <text x="28" y="155" font-size="8" class="text-cyan">STEP · 2.0 RPM · ANGLE: 180°</text>
    <rect x="244" y="132" width="40" height="34" rx="4" class="btn-active-bg" stroke="#00E676" stroke-width="1"/>
    <text x="264" y="153" font-size="8" class="text-main" text-anchor="middle" font-weight="bold">▶</text>
    <rect x="288" y="132" width="24" height="34" rx="4" class="btn-active-bg" stroke="#00E5FF" stroke-width="1"/>
    <text x="300" y="153" font-size="8" class="text-main" text-anchor="middle" font-weight="bold">✎</text>
    <rect x="316" y="132" width="24" height="34" rx="4" class="btn-bg" stroke="#FF1744" stroke-width="1"/>
    <text x="328" y="153" font-size="8" class="text-main" text-anchor="middle" font-weight="bold">✗</text>

    <!-- Program card 3 -->
    <rect x="16" y="178" width="328" height="48" rx="6" class="btn-bg" stroke="#888888" stroke-width="2"/>
    <text x="28" y="194" font-size="10" class="text-main" font-weight="bold">3: Timer Rotate</text>
    <text x="28" y="207" font-size="8" class="text-cyan">TIMER · 1.5 RPM · TIME: 30 sec</text>
    <rect x="244" y="184" width="40" height="34" rx="4" class="btn-active-bg" stroke="#00E676" stroke-width="1"/>
    <text x="264" y="205" font-size="8" class="text-main" text-anchor="middle" font-weight="bold">▶</text>
    <rect x="288" y="184" width="24" height="34" rx="4" class="btn-active-bg" stroke="#00E5FF" stroke-width="1"/>
    <text x="300" y="205" font-size="8" class="text-main" text-anchor="middle" font-weight="bold">✎</text>
    <rect x="316" y="184" width="24" height="34" rx="4" class="btn-bg" stroke="#FF1744" stroke-width="1"/>
    <text x="328" y="205" font-size="8" class="text-main" text-anchor="middle" font-weight="bold">✗</text>

    <!-- Scroll indicator -->
    <text x="180" y="242" font-size="8" class="text-dim" text-anchor="middle">▼ Scroll for more ▼</text>

    <!-- Screen label -->
    <text x="180" y="248" font-size="9" class="text-dim" text-anchor="middle" opacity="0.5">PROGRAMS</text>
  </g>

  <!-- ============================================ -->
  <!-- SCREEN 10: BOOT SCREEN                      -->
  <!-- ============================================ -->
  <g transform="translate(30, 910)">
    <rect width="360" height="250" rx="10" class="screen-bg" stroke="#2A2A2A" stroke-width="2"/>

    <!-- Logo area -->
    <text x="180" y="50" font-size="8" class="text-dim" text-anchor="middle" letter-spacing="3">TIG ROTATOR</text>
    <text x="180" y="78" font-size="28" class="text-main" text-anchor="middle" font-weight="bold">CONTROLLER</text>

    <!-- Decorative line -->
    <rect x="120" y="88" width="120" height="2" fill="#00E5FF" rx="1"/>

    <!-- Spinning loader ring -->
    <circle cx="180" cy="132" r="28" fill="none" stroke="#1A1A1A" stroke-width="4"/>
    <path d="M 180 104 A 28 28 0 1 1 152 132" fill="none" stroke="#00E5FF" stroke-width="4" stroke-linecap="round"/>

    <!-- Center icon -->
    <text x="180" y="138" font-size="16" class="text-cyan" text-anchor="middle" font-weight="bold">⚙</text>

    <!-- Status text -->
    <text x="180" y="178" font-size="10" class="text-main" text-anchor="middle">Initializing system...</text>

    <!-- Progress bar -->
    <rect x="60" y="190" width="240" height="4" rx="2" fill="#1A1A1A"/>
    <rect x="60" y="190" width="160" height="4" rx="2" fill="#00E5FF"/>

    <!-- Progress percentage -->
    <text x="180" y="210" font-size="9" class="text-dim" text-anchor="middle">67%</text>

    <!-- Version info -->
    <text x="180" y="232" font-size="8" class="text-dim" text-anchor="middle">v1.2.0 · ESP32-P4 · LVGL 8.x</text>

    <!-- Screen label -->
    <text x="180" y="248" font-size="9" class="text-dim" text-anchor="middle" opacity="0.5">BOOT SCREEN</text>
  </g>

  <!-- ============================================ -->
  <!-- SCREEN 11: CONFIRM DIALOG                   -->
  <!-- ============================================ -->
  <g transform="translate(420, 910)">
    <rect width="360" height="250" rx="10" class="screen-bg" stroke="#2A2A2A" stroke-width="2"/>

    <!-- Simulated background screen (dimmed) -->
    <rect width="360" height="250" rx="10" fill="#000000" opacity="0.6"/>

    <!-- Semi-transparent overlay -->
    <rect x="40" y="50" width="280" height="150" rx="10" fill="#0A0A0A" stroke="#888888" stroke-width="2" opacity="0.95"/>

    <!-- Warning icon -->
    <text x="180" y="85" font-size="22" class="text-cyan" text-anchor="middle">⚠</text>

    <!-- Message -->
    <text x="180" y="110" font-size="12" class="text-main" text-anchor="middle" font-weight="bold">Delete program?</text>
    <text x="180" y="128" font-size="10" class="text-dim" text-anchor="middle">This action cannot be undone.</text>

    <!-- Separator -->
    <rect x="60" y="140" width="240" height="1" fill="#333333"/>

    <!-- CANCEL button -->
    <rect x="56" y="150" width="120" height="34" rx="6" class="btn-bg" stroke="#888888" stroke-width="2"/>
    <text x="116" y="172" font-size="11" class="text-main" text-anchor="middle">CANCEL</text>

    <!-- CONFIRM button -->
    <rect x="184" y="150" width="120" height="34" rx="6" class="btn-active-bg" stroke="#00E5FF" stroke-width="2"/>
    <text x="244" y="172" font-size="11" class="text-main" text-anchor="middle" font-weight="bold">CONFIRM</text>

    <!-- Screen label -->
    <text x="180" y="248" font-size="9" class="text-dim" text-anchor="middle" opacity="0.5">CONFIRM DIALOG</text>
  </g>

  <!-- ============================================ -->
  <!-- SCREEN 12: PROGRAM EDIT                     -->
  <!-- ============================================ -->
  <g transform="translate(810, 910)">
    <rect width="360" height="250" rx="10" class="screen-bg" stroke="#2A2A2A" stroke-width="2"/>

    <!-- Header bar -->
    <rect width="360" height="32" rx="10" class="header-bg"/>
    <rect y="16" width="360" height="16" class="header-bg"/>
    <text x="16" y="21" font-size="10" class="text-dim" font-weight="bold">← BACK</text>
    <text x="180" y="21" font-size="11" class="text-main" text-anchor="middle" font-weight="bold">EDIT PROGRAM</text>
    <text x="344" y="21" font-size="10" class="text-dim" text-anchor="end">1 / 10</text>
    <rect y="32" width="360" height="1" class="separator"/>

    <!-- Name input -->
    <rect x="16" y="40" width="328" height="28" rx="6" class="btn-bg" stroke="#00E5FF" stroke-width="2"/>
    <text x="28" y="59" font-size="11" class="text-main">Pipe Weld 90°</text>
    <text x="336" y="59" font-size="9" class="text-cyan" text-anchor="end">|</text>

    <!-- Mode selection -->
    <rect x="16" y="76" width="76" height="28" rx="6" class="btn-bg" stroke="#888888" stroke-width="2"/>
    <text x="54" y="95" font-size="11" class="text-main" text-anchor="middle">CONT</text>

    <rect x="98" y="76" width="76" height="28" rx="6" class="btn-active-bg" stroke="#00E5FF" stroke-width="2"/>
    <text x="136" y="95" font-size="11" class="text-main" text-anchor="middle" font-weight="bold">PULSE</text>

    <rect x="180" y="76" width="76" height="28" rx="6" class="btn-bg" stroke="#888888" stroke-width="2"/>
    <text x="218" y="95" font-size="11" class="text-main" text-anchor="middle">STEP</text>

    <rect x="262" y="76" width="82" height="28" rx="6" class="btn-bg" stroke="#888888" stroke-width="2"/>
    <text x="303" y="95" font-size="11" class="text-main" text-anchor="middle">TIMER</text>

    <!-- RPM row -->
    <rect x="16" y="112" width="76" height="28" rx="6" class="btn-bg" stroke="#888888" stroke-width="2"/>
    <text x="54" y="131" font-size="11" class="text-main" text-anchor="middle">RPM −</text>

    <rect x="100" y="112" width="160" height="28" rx="6" class="panel-bg" stroke="#00E5FF" stroke-width="2"/>
    <text x="180" y="131" font-size="14" class="text-cyan" text-anchor="middle" font-weight="bold">1.2 RPM</text>

    <rect x="268" y="112" width="76" height="28" rx="6" class="btn-bg" stroke="#888888" stroke-width="2"/>
    <text x="306" y="131" font-size="11" class="text-main" text-anchor="middle">RPM +</text>

    <!-- Separator -->
    <rect x="0" y="148" width="360" height="1" class="separator"/>

    <!-- Mode settings link -->
    <rect x="16" y="156" width="328" height="32" rx="6" class="btn-bg" stroke="#888888" stroke-width="2"/>
    <text x="32" y="177" font-size="11" class="text-main">PULSE SETTINGS</text>
    <text x="328" y="177" font-size="11" class="text-dim" text-anchor="end">ON: 500ms · OFF: 300ms →</text>

    <!-- Separator -->
    <rect x="0" y="196" width="360" height="1" class="separator"/>

    <!-- Bottom buttons -->
    <rect x="16" y="204" width="156" height="32" rx="6" class="btn-bg" stroke="#888888" stroke-width="2"/>
    <text x="94" y="225" font-size="11" class="text-main" text-anchor="middle">CANCEL</text>

    <rect x="188" y="204" width="156" height="32" rx="6" class="btn-active-bg" stroke="#00E5FF" stroke-width="2"/>
    <text x="266" y="225" font-size="11" class="text-main" text-anchor="middle" font-weight="bold">SAVE</text>

    <!-- Screen label -->
    <text x="180" y="248" font-size="9" class="text-dim" text-anchor="middle" opacity="0.5">PROGRAM EDIT</text>
  </g>

  <!-- ============================================ -->
  <!-- SCREEN 13: EDIT PULSE SETTINGS              -->
  <!-- ============================================ -->
  <g transform="translate(30, 1190)">
    <rect width="360" height="250" rx="10" class="screen-bg" stroke="#2A2A2A" stroke-width="2"/>

    <!-- Header bar -->
    <rect width="360" height="32" rx="10" class="header-bg"/>
    <rect y="16" width="360" height="16" class="header-bg"/>
    <text x="16" y="21" font-size="10" class="text-dim" font-weight="bold">← BACK</text>
    <text x="180" y="21" font-size="11" class="text-main" text-anchor="middle" font-weight="bold">PULSE SETTINGS</text>
    <rect y="32" width="360" height="1" class="separator"/>

    <!-- ON TIME -->
    <text x="16" y="50" font-size="9" class="text-dim" letter-spacing="1">ON TIME</text>

    <rect x="16" y="56" width="76" height="36" rx="6" class="btn-bg" stroke="#888888" stroke-width="2"/>
    <text x="54" y="79" font-size="11" class="text-main" text-anchor="middle">−</text>

    <rect x="100" y="56" width="160" height="36" rx="6" class="panel-bg" stroke="#00E5FF" stroke-width="2"/>
    <text x="180" y="80" font-size="24" class="text-cyan" text-anchor="middle" font-weight="bold">500ms</text>

    <rect x="268" y="56" width="76" height="36" rx="6" class="btn-bg" stroke="#888888" stroke-width="2"/>
    <text x="306" y="79" font-size="11" class="text-main" text-anchor="middle">+</text>

    <!-- OFF TIME -->
    <text x="16" y="110" font-size="9" class="text-dim" letter-spacing="1">OFF TIME</text>

    <rect x="16" y="116" width="76" height="36" rx="6" class="btn-bg" stroke="#888888" stroke-width="2"/>
    <text x="54" y="139" font-size="11" class="text-main" text-anchor="middle">−</text>

    <rect x="100" y="116" width="160" height="36" rx="6" class="panel-bg" stroke="#888888" stroke-width="2"/>
    <text x="180" y="140" font-size="24" class="text-main" text-anchor="middle" font-weight="bold">300ms</text>

    <rect x="268" y="116" width="76" height="36" rx="6" class="btn-bg" stroke="#888888" stroke-width="2"/>
    <text x="306" y="139" font-size="11" class="text-main" text-anchor="middle">+</text>

    <!-- Separator -->
    <rect x="0" y="162" width="360" height="1" class="separator"/>

    <!-- Presets -->
    <text x="16" y="178" font-size="9" class="text-dim" letter-spacing="1">PRESETS</text>

    <rect x="16" y="184" width="76" height="28" rx="6" class="btn-bg" stroke="#888888" stroke-width="2"/>
    <text x="54" y="203" font-size="11" class="text-main" text-anchor="middle">100ms</text>

    <rect x="98" y="184" width="76" height="28" rx="6" class="btn-bg" stroke="#888888" stroke-width="2"/>
    <text x="136" y="203" font-size="11" class="text-main" text-anchor="middle">250ms</text>

    <rect x="180" y="184" width="76" height="28" rx="6" class="btn-active-bg" stroke="#00E5FF" stroke-width="2"/>
    <text x="218" y="203" font-size="11" class="text-main" text-anchor="middle" font-weight="bold">500ms</text>

    <rect x="262" y="184" width="82" height="28" rx="6" class="btn-bg" stroke="#888888" stroke-width="2"/>
    <text x="303" y="203" font-size="11" class="text-main" text-anchor="middle">1000ms</text>

    <!-- Screen label -->
    <text x="180" y="248" font-size="9" class="text-dim" text-anchor="middle" opacity="0.5">EDIT PULSE</text>
  </g>

  <!-- ============================================ -->
  <!-- SCREEN 14: EDIT STEP SETTINGS               -->
  <!-- ============================================ -->
  <g transform="translate(420, 1190)">
    <rect width="360" height="250" rx="10" class="screen-bg" stroke="#2A2A2A" stroke-width="2"/>

    <!-- Header bar -->
    <rect width="360" height="32" rx="10" class="header-bg"/>
    <rect y="16" width="360" height="16" class="header-bg"/>
    <text x="16" y="21" font-size="10" class="text-dim" font-weight="bold">← BACK</text>
    <text x="180" y="21" font-size="11" class="text-main" text-anchor="middle" font-weight="bold">STEP SETTINGS</text>
    <rect y="32" width="360" height="1" class="separator"/>

    <!-- Target angle -->
    <text x="16" y="50" font-size="9" class="text-dim" letter-spacing="1">TARGET ANGLE</text>

    <rect x="16" y="56" width="76" height="36" rx="6" class="btn-bg" stroke="#888888" stroke-width="2"/>
    <text x="54" y="79" font-size="11" class="text-main" text-anchor="middle">−</text>

    <rect x="100" y="56" width="160" height="36" rx="6" class="panel-bg" stroke="#00E5FF" stroke-width="2"/>
    <text x="180" y="80" font-size="24" class="text-cyan" text-anchor="middle" font-weight="bold">180°</text>

    <rect x="268" y="56" width="76" height="36" rx="6" class="btn-bg" stroke="#888888" stroke-width="2"/>
    <text x="306" y="79" font-size="11" class="text-main" text-anchor="middle">+</text>

    <!-- Separator -->
    <rect x="0" y="102" width="360" height="1" class="separator"/>

    <!-- Presets -->
    <text x="16" y="118" font-size="9" class="text-dim" letter-spacing="1">ANGLE PRESETS</text>

    <rect x="16" y="124" width="60" height="28" rx="6" class="btn-bg" stroke="#888888" stroke-width="2"/>
    <text x="46" y="143" font-size="11" class="text-main" text-anchor="middle">45°</text>

    <rect x="82" y="124" width="60" height="28" rx="6" class="btn-bg" stroke="#888888" stroke-width="2"/>
    <text x="112" y="143" font-size="11" class="text-main" text-anchor="middle">90°</text>

    <rect x="148" y="124" width="60" height="28" rx="6" class="btn-active-bg" stroke="#00E5FF" stroke-width="2"/>
    <text x="178" y="143" font-size="11" class="text-main" text-anchor="middle" font-weight="bold">180°</text>

    <rect x="214" y="124" width="60" height="28" rx="6" class="btn-bg" stroke="#888888" stroke-width="2"/>
    <text x="244" y="143" font-size="11" class="text-main" text-anchor="middle">360°</text>

    <rect x="280" y="124" width="64" height="28" rx="6" class="btn-bg" stroke="#888888" stroke-width="2"/>
    <text x="312" y="143" font-size="11" class="text-main" text-anchor="middle">720°</text>

    <!-- Separator -->
    <rect x="0" y="162" width="360" height="1" class="separator"/>

    <!-- Direction -->
    <text x="16" y="178" font-size="9" class="text-dim" letter-spacing="1">DIRECTION</text>

    <rect x="16" y="184" width="156" height="28" rx="6" class="btn-active-bg" stroke="#00E5FF" stroke-width="2"/>
    <text x="94" y="203" font-size="11" class="text-main" text-anchor="middle" font-weight="bold">CW ↻</text>

    <rect x="188" y="184" width="156" height="28" rx="6" class="btn-bg" stroke="#888888" stroke-width="2"/>
    <text x="266" y="203" font-size="11" class="text-main" text-anchor="middle">CCW ↺</text>

    <!-- Screen label -->
    <text x="180" y="248" font-size="9" class="text-dim" text-anchor="middle" opacity="0.5">EDIT STEP</text>
  </g>

  <!-- ============================================ -->
  <!-- SCREEN 15: EDIT TIMER SETTINGS              -->
  <!-- ============================================ -->
  <g transform="translate(810, 1190)">
    <rect width="360" height="250" rx="10" class="screen-bg" stroke="#2A2A2A" stroke-width="2"/>

    <!-- Header bar -->
    <rect width="360" height="32" rx="10" class="header-bg"/>
    <rect y="16" width="360" height="16" class="header-bg"/>
    <text x="16" y="21" font-size="10" class="text-dim" font-weight="bold">← BACK</text>
    <text x="180" y="21" font-size="11" class="text-main" text-anchor="middle" font-weight="bold">TIMER SETTINGS</text>
    <rect y="32" width="360" height="1" class="separator"/>

    <!-- Duration -->
    <text x="16" y="50" font-size="9" class="text-dim" letter-spacing="1">DURATION</text>

    <rect x="16" y="56" width="76" height="36" rx="6" class="btn-bg" stroke="#888888" stroke-width="2"/>
    <text x="54" y="79" font-size="11" class="text-main" text-anchor="middle">−</text>

    <rect x="100" y="56" width="160" height="36" rx="6" class="panel-bg" stroke="#00E5FF" stroke-width="2"/>
    <text x="180" y="80" font-size="24" class="text-cyan" text-anchor="middle" font-weight="bold">30 sec</text>

    <rect x="268" y="56" width="76" height="36" rx="6" class="btn-bg" stroke="#888888" stroke-width="2"/>
    <text x="306" y="79" font-size="11" class="text-main" text-anchor="middle">+</text>

    <!-- Separator -->
    <rect x="0" y="102" width="360" height="1" class="separator"/>

    <!-- Presets -->
    <text x="16" y="118" font-size="9" class="text-dim" letter-spacing="1">TIME PRESETS</text>

    <rect x="16" y="124" width="76" height="28" rx="6" class="btn-bg" stroke="#888888" stroke-width="2"/>
    <text x="54" y="143" font-size="11" class="text-main" text-anchor="middle">10s</text>

    <rect x="98" y="124" width="76" height="28" rx="6" class="btn-active-bg" stroke="#00E5FF" stroke-width="2"/>
    <text x="136" y="143" font-size="11" class="text-main" text-anchor="middle" font-weight="bold">30s</text>

    <rect x="180" y="124" width="76" height="28" rx="6" class="btn-bg" stroke="#888888" stroke-width="2"/>
    <text x="218" y="143" font-size="11" class="text-main" text-anchor="middle">60s</text>

    <rect x="262" y="124" width="82" height="28" rx="6" class="btn-bg" stroke="#888888" stroke-width="2"/>
    <text x="303" y="143" font-size="11" class="text-main" text-anchor="middle">120s</text>

    <!-- Separator -->
    <rect x="0" y="162" width="360" height="1" class="separator"/>

    <!-- Direction -->
    <text x="16" y="178" font-size="9" class="text-dim" letter-spacing="1">DIRECTION</text>

    <rect x="16" y="184" width="156" height="28" rx="6" class="btn-active-bg" stroke="#00E5FF" stroke-width="2"/>
    <text x="94" y="203" font-size="11" class="text-main" text-anchor="middle" font-weight="bold">CW ↻</text>

    <rect x="188" y="184" width="156" height="28" rx="6" class="btn-bg" stroke="#888888" stroke-width="2"/>
    <text x="266" y="203" font-size="11" class="text-main" text-anchor="middle">CCW ↺</text>

    <!-- Screen label -->
    <text x="180" y="248" font-size="9" class="text-dim" text-anchor="middle" opacity="0.5">EDIT TIMER</text>
  </g>

  <!-- Footer -->
  <text x="600" y="1470" font-size="11" fill="#333333" text-anchor="middle" font-family="sans-serif">TIG Rotator Controller · ESP32-P4 · LVGL 8.x · 4.3" IPS 800×480 Landscape · Background: #000000</text>

</svg>