<svg xmlns="http://www.w3.org/2000/svg" width="800" height="480" viewBox="0 0 800 480"><title>Programs</title><g font-family="Bahnschrift, Segoe UI, sans-serif"><rect x="0" y="0" width="800" height="480" rx="0" fill="#E9E8E1"/><rect x="0" y="0" width="800" height="68" rx="0" fill="#162C32"/><text x="24" y="28" font-size="22" font-weight="700" fill="#F9F8F2">ARC / 04</text><text x="24" y="49" font-size="11" font-weight="600" fill="#C7CEC9">WELDING POSITIONER</text><text x="240" y="41" font-size="22" font-weight="500" fill="#F9F8F2">Program library</text><rect x="648" y="16" width="128" height="36" rx="8" fill="#D7E88B"/><text x="664" y="40" font-size="15" font-weight="700" fill="#162C32">3 / 16</text><text x="24" y="103" font-size="13" font-weight="700" fill="#526268">SELECT A PROGRAM TO REVIEW</text><rect x="24" y="122" width="752" height="76" rx="8" fill="#F9F8F2"/><text x="42" y="168" font-size="25" font-weight="600" fill="#086C65">01</text><text x="99" y="153" font-size="23" font-weight="600" fill="#162C32">Root pass</text><text x="99" y="180" font-size="15" font-weight="400" fill="#526268">Continuous / 0.30 RPM / Ø 300 mm</text><text x="735" y="169" font-size="34" font-weight="400" fill="#086C65">›</text><rect x="24" y="211" width="752" height="76" rx="8" fill="#F9F8F2"/><text x="42" y="257" font-size="25" font-weight="600" fill="#086C65">02</text><text x="99" y="242" font-size="23" font-weight="600" fill="#162C32">Fill pass</text><text x="99" y="269" font-size="15" font-weight="400" fill="#526268">Pulse / 1.2 s on · 0.8 s pause</text><text x="735" y="258" font-size="34" font-weight="400" fill="#086C65">›</text><rect x="24" y="300" width="752" height="76" rx="8" fill="#F9F8F2"/><text x="42" y="346" font-size="25" font-weight="600" fill="#086C65">03</text><text x="99" y="331" font-size="23" font-weight="600" fill="#162C32">Indexing</text><text x="99" y="358" font-size="15" font-weight="400" fill="#526268">Step / 90° × 4 / pause 2.0 s</text><text x="735" y="347" font-size="34" font-weight="400" fill="#086C65">›</text><rect x="0" y="400" width="800" height="80" rx="0" fill="#F9F8F2"/><rect x="24" y="412" width="174" height="56" rx="8" fill="#E9E8E1"/><text x="42" y="447" font-size="18" font-weight="600" fill="#162C32">BACK</text><rect x="210" y="412" width="246" height="56" rx="8" fill="#E9E8E1"/><text x="228" y="447" font-size="18" font-weight="600" fill="#162C32">EDIT PROGRAM</text><rect x="472" y="412" width="304" height="56" rx="8" fill="#086C65"/><text x="490" y="447" font-size="18" font-weight="600" fill="#F9F8F2">+  NEW PROGRAM</text></g></svg>