<svg xmlns="http://www.w3.org/2000/svg" width="800" height="480" viewBox="0 0 800 480"><title>Settings</title><g font-family="Bahnschrift, Segoe UI, sans-serif"><rect x="0" y="0" width="800" height="480" rx="0" fill="#E9E8E1"/><rect x="0" y="0" width="800" height="68" rx="0" fill="#162C32"/><text x="24" y="28" font-size="22" font-weight="700" fill="#F9F8F2">ARC / 04</text><text x="24" y="49" font-size="11" font-weight="600" fill="#C7CEC9">WELDING POSITIONER</text><text x="240" y="41" font-size="22" font-weight="500" fill="#F9F8F2">Settings</text><rect x="648" y="16" width="128" height="36" rx="8" fill="#D7E88B"/><text x="664" y="40" font-size="15" font-weight="700" fill="#162C32">READY</text><rect x="24" y="92" width="368" height="88" rx="8" fill="#F9F8F2"/><text x="40" y="118" font-size="12" font-weight="700" fill="#086C65">01</text><text x="40" y="145" font-size="24" font-weight="600" fill="#162C32">Motor</text><text x="40" y="167" font-size="14" font-weight="400" fill="#526268">Microstep · ramp · max RPM</text><text x="358" y="140" font-size="27" font-weight="400" fill="#086C65">›</text><rect x="408" y="92" width="368" height="88" rx="8" fill="#F9F8F2"/><text x="424" y="118" font-size="12" font-weight="700" fill="#086C65">02</text><text x="424" y="145" font-size="24" font-weight="600" fill="#162C32">Calibration</text><text x="424" y="167" font-size="14" font-weight="400" fill="#526268">Angle and workpiece diameter</text><text x="742" y="140" font-size="27" font-weight="400" fill="#086C65">›</text><rect x="24" y="192" width="368" height="88" rx="8" fill="#F9F8F2"/><text x="40" y="218" font-size="12" font-weight="700" fill="#086C65">03</text><text x="40" y="245" font-size="24" font-weight="600" fill="#162C32">Foot pedal</text><text x="40" y="267" font-size="14" font-weight="400" fill="#526268">Enable and input status</text><text x="358" y="240" font-size="27" font-weight="400" fill="#086C65">›</text><rect x="408" y="192" width="368" height="88" rx="8" fill="#F9F8F2"/><text x="424" y="218" font-size="12" font-weight="700" fill="#086C65">04</text><text x="424" y="245" font-size="24" font-weight="600" fill="#162C32">Display</text><text x="424" y="267" font-size="14" font-weight="400" fill="#526268">Brightness and dimming</text><text x="742" y="240" font-size="27" font-weight="400" fill="#086C65">›</text><rect x="24" y="292" width="368" height="88" rx="8" fill="#F9F8F2"/><text x="40" y="318" font-size="12" font-weight="700" fill="#086C65">05</text><text x="40" y="345" font-size="24" font-weight="600" fill="#162C32">Diagnostics</text><text x="40" y="367" font-size="14" font-weight="400" fill="#526268">Inputs and fault history</text><text x="358" y="340" font-size="27" font-weight="400" fill="#086C65">›</text><rect x="408" y="292" width="368" height="88" rx="8" fill="#F9F8F2"/><text x="424" y="318" font-size="12" font-weight="700" fill="#086C65">06</text><text x="424" y="345" font-size="24" font-weight="600" fill="#162C32">System</text><text x="424" y="367" font-size="14" font-weight="400" fill="#526268">Version and device status</text><text x="742" y="340" font-size="27" font-weight="400" fill="#086C65">›</text><rect x="0" y="400" width="800" height="80" rx="0" fill="#F9F8F2"/><rect x="24" y="412" width="230" height="56" rx="8" fill="#162C32"/><text x="42" y="447" font-size="18" font-weight="600" fill="#F9F8F2">←  BACK TO OPERATION</text><text x="286" y="447" font-size="17" font-weight="400" fill="#526268">Change settings while the motor is stopped</text></g></svg>