<svg xmlns="http://www.w3.org/2000/svg" viewBox="0 0 1080 610" width="100%" height="100%">

  <defs>
    <filter id="shadow" x="-5%" y="-5%" width="115%" height="115%">
      <feDropShadow dx="2" dy="3" stdDeviation="4" flood-color="#000" flood-opacity="0.15"/>
    </filter>
    <marker id="arrow" viewBox="0 0 10 10" refX="10" refY="5" markerWidth="6" markerHeight="6" orient="auto">
      <path d="M 0 0 L 10 5 L 0 10 z" fill="#2c3e50" />
    </marker>
  </defs>

  <style>
    @keyframes spinCW {
      from { transform: rotate(0deg); }
      to { transform: rotate(360deg); }
    }
    @keyframes spinCCW {
      from { transform: rotate(0deg); }
      to { transform: rotate(-360deg); }
    }
    
    /* Spur 40T/72T: omega_small/omega_large = 72/40 = 1.8 => T_small = T_large/1.8 */
    #rotate-small {
      animation: spinCW calc(38.9s / 1.8) linear infinite;
      transform-origin: 0px 0px;
    }
    
    #rotate-large {
      animation: spinCCW 38.9s linear infinite;
      transform-origin: 0px 0px;
    }

    .title { font-family: 'Inter', 'Segoe UI', Roboto, Helvetica, Arial, sans-serif; font-size: 22px; font-weight: 700; fill: #e6edf3; letter-spacing: -0.5px; }
    .label-main { font-family: 'Inter', 'Segoe UI', Roboto, Helvetica, Arial, sans-serif; font-size: 14px; font-weight: 700; fill: #e6edf3; text-transform: uppercase; letter-spacing: 0.5px; }
    .label-sub { font-family: 'Inter', 'Segoe UI', Roboto, Helvetica, Arial, sans-serif; font-size: 13px; fill: #8b949e; }
    .chip { font-family: 'Inter', 'Segoe UI', Roboto, Helvetica, Arial, sans-serif; font-size: 13px; font-weight: 700; fill: #fff; }
  </style>

  <!-- Bakgrunn -->
  <rect width="100%" height="100%" fill="#0d1117" rx="6" stroke="#30363d" stroke-width="2"/>

  <!-- Header -->
  <text x="40" y="30" class="title">System Kinematics — Total Ratio 1:108</text>
  <line x1="40" y1="40" x2="1040" y2="40" stroke="#30363d" stroke-width="2"/>

  <!-- Stage Ratio Badges -->
  <rect x="40" y="70" width="300" height="28" rx="14" fill="#2980b9"/>
  <text x="190" y="89" text-anchor="middle" class="chip">Stage 1: NMRV030 worm gearbox, 60:1</text>
  
  <rect x="40" y="108" width="340" height="28" rx="14" fill="#c0392b"/>
  <text x="210" y="127" text-anchor="middle" class="chip">Stage 2: Spur 40T drive / 72T driven (x1.8)</text>


  <!-- ========================================== -->
  <!-- 1. NEMA 23 MOTOR                           -->
  <!-- ========================================== -->
  <g filter="url(#shadow)">
    <rect x="60" y="260" width="120" height="130" rx="6" fill="#111" stroke="#000" stroke-width="2.5"/>
    <line x1="60" y1="285" x2="180" y2="285" stroke="#222" stroke-width="2.5"/>
    <line x1="60" y1="310" x2="180" y2="310" stroke="#222" stroke-width="2.5"/>
    <line x1="60" y1="335" x2="180" y2="335" stroke="#222" stroke-width="2.5"/>
    <line x1="60" y1="360" x2="180" y2="360" stroke="#222" stroke-width="2.5"/>
    <rect x="80" y="270" width="30" height="10" rx="2" fill="#e74c3c"/>
    <rect x="120" y="270" width="30" height="10" rx="2" fill="#3498db"/>
  </g>


  <!-- ========================================== -->
  <!-- 2. WORM GEAR HOUSING                       -->
  <!-- ========================================== -->
  <g filter="url(#shadow)">
    <rect x="180" y="150" width="140" height="220" rx="10" fill="#dcdcdc" stroke="#000" stroke-width="2.5"/>
    <circle cx="200" cy="170" r="5" fill="#aaa" stroke="#000" stroke-width="1.5"/>
    <circle cx="300" cy="170" r="5" fill="#aaa" stroke="#000" stroke-width="1.5"/>
    <circle cx="200" cy="350" r="5" fill="#aaa" stroke="#000" stroke-width="1.5"/>
    <circle cx="300" cy="350" r="5" fill="#aaa" stroke="#000" stroke-width="1.5"/>
  </g>

  <!-- Adapter plate -->
  <rect x="175" y="245" width="15" height="50" fill="#eee" stroke="#000" stroke-width="1.5"/>


          <!-- MOTOR_WORM_GEARS_BEGIN -->
  <!-- ========================================== -->
  <!-- 3. Pinion on worm-wheel shaft / m1.5, z40, PA 20 deg -->
  <!-- m=1.5, z=40, PA=20.0 deg, a=275.0px == 84.000 mm * k -->
  <!-- ========================================== -->
  <g transform="translate(250, 260)">
    <g id="rotate-small">
      <circle r="92.076" fill="#3d3d3d" stroke="#000" stroke-width="2.5"/>
      <circle r="98.214" fill="none" stroke="#7a7a7a" stroke-width="0.9" stroke-dasharray="5 4"/>
      <g transform="rotate(0.000000)"><path d="M 3.061,-103.080 L 3.702,-98.145 L 3.924,-91.992 L -3.924,-91.992 L -3.702,-98.145 L -3.061,-103.080 Z" fill="#4f4f4f" stroke="#0d0d0d" stroke-width="0.85" stroke-linejoin="round"/></g>
      <g transform="rotate(9.000000)"><path d="M 3.061,-103.080 L 3.702,-98.145 L 3.924,-91.992 L -3.924,-91.992 L -3.702,-98.145 L -3.061,-103.080 Z" fill="#4f4f4f" stroke="#0d0d0d" stroke-width="0.85" stroke-linejoin="round"/></g>
      <g transform="rotate(18.000000)"><path d="M 3.061,-103.080 L 3.702,-98.145 L 3.924,-91.992 L -3.924,-91.992 L -3.702,-98.145 L -3.061,-103.080 Z" fill="#4f4f4f" stroke="#0d0d0d" stroke-width="0.85" stroke-linejoin="round"/></g>
      <g transform="rotate(27.000000)"><path d="M 3.061,-103.080 L 3.702,-98.145 L 3.924,-91.992 L -3.924,-91.992 L -3.702,-98.145 L -3.061,-103.080 Z" fill="#4f4f4f" stroke="#0d0d0d" stroke-width="0.85" stroke-linejoin="round"/></g>
      <g transform="rotate(36.000000)"><path d="M 3.061,-103.080 L 3.702,-98.145 L 3.924,-91.992 L -3.924,-91.992 L -3.702,-98.145 L -3.061,-103.080 Z" fill="#4f4f4f" stroke="#0d0d0d" stroke-width="0.85" stroke-linejoin="round"/></g>
      <g transform="rotate(45.000000)"><path d="M 3.061,-103.080 L 3.702,-98.145 L 3.924,-91.992 L -3.924,-91.992 L -3.702,-98.145 L -3.061,-103.080 Z" fill="#4f4f4f" stroke="#0d0d0d" stroke-width="0.85" stroke-linejoin="round"/></g>
      <g transform="rotate(54.000000)"><path d="M 3.061,-103.080 L 3.702,-98.145 L 3.924,-91.992 L -3.924,-91.992 L -3.702,-98.145 L -3.061,-103.080 Z" fill="#4f4f4f" stroke="#0d0d0d" stroke-width="0.85" stroke-linejoin="round"/></g>
      <g transform="rotate(63.000000)"><path d="M 3.061,-103.080 L 3.702,-98.145 L 3.924,-91.992 L -3.924,-91.992 L -3.702,-98.145 L -3.061,-103.080 Z" fill="#4f4f4f" stroke="#0d0d0d" stroke-width="0.85" stroke-linejoin="round"/></g>
      <g transform="rotate(72.000000)"><path d="M 3.061,-103.080 L 3.702,-98.145 L 3.924,-91.992 L -3.924,-91.992 L -3.702,-98.145 L -3.061,-103.080 Z" fill="#4f4f4f" stroke="#0d0d0d" stroke-width="0.85" stroke-linejoin="round"/></g>
      <g transform="rotate(81.000000)"><path d="M 3.061,-103.080 L 3.702,-98.145 L 3.924,-91.992 L -3.924,-91.992 L -3.702,-98.145 L -3.061,-103.080 Z" fill="#4f4f4f" stroke="#0d0d0d" stroke-width="0.85" stroke-linejoin="round"/></g>
      <g transform="rotate(90.000000)"><path d="M 3.061,-103.080 L 3.702,-98.145 L 3.924,-91.992 L -3.924,-91.992 L -3.702,-98.145 L -3.061,-103.080 Z" fill="#4f4f4f" stroke="#0d0d0d" stroke-width="0.85" stroke-linejoin="round"/></g>
      <g transform="rotate(99.000000)"><path d="M 3.061,-103.080 L 3.702,-98.145 L 3.924,-91.992 L -3.924,-91.992 L -3.702,-98.145 L -3.061,-103.080 Z" fill="#4f4f4f" stroke="#0d0d0d" stroke-width="0.85" stroke-linejoin="round"/></g>
      <g transform="rotate(108.000000)"><path d="M 3.061,-103.080 L 3.702,-98.145 L 3.924,-91.992 L -3.924,-91.992 L -3.702,-98.145 L -3.061,-103.080 Z" fill="#4f4f4f" stroke="#0d0d0d" stroke-width="0.85" stroke-linejoin="round"/></g>
      <g transform="rotate(117.000000)"><path d="M 3.061,-103.080 L 3.702,-98.145 L 3.924,-91.992 L -3.924,-91.992 L -3.702,-98.145 L -3.061,-103.080 Z" fill="#4f4f4f" stroke="#0d0d0d" stroke-width="0.85" stroke-linejoin="round"/></g>
      <g transform="rotate(126.000000)"><path d="M 3.061,-103.080 L 3.702,-98.145 L 3.924,-91.992 L -3.924,-91.992 L -3.702,-98.145 L -3.061,-103.080 Z" fill="#4f4f4f" stroke="#0d0d0d" stroke-width="0.85" stroke-linejoin="round"/></g>
      <g transform="rotate(135.000000)"><path d="M 3.061,-103.080 L 3.702,-98.145 L 3.924,-91.992 L -3.924,-91.992 L -3.702,-98.145 L -3.061,-103.080 Z" fill="#4f4f4f" stroke="#0d0d0d" stroke-width="0.85" stroke-linejoin="round"/></g>
      <g transform="rotate(144.000000)"><path d="M 3.061,-103.080 L 3.702,-98.145 L 3.924,-91.992 L -3.924,-91.992 L -3.702,-98.145 L -3.061,-103.080 Z" fill="#4f4f4f" stroke="#0d0d0d" stroke-width="0.85" stroke-linejoin="round"/></g>
      <g transform="rotate(153.000000)"><path d="M 3.061,-103.080 L 3.702,-98.145 L 3.924,-91.992 L -3.924,-91.992 L -3.702,-98.145 L -3.061,-103.080 Z" fill="#4f4f4f" stroke="#0d0d0d" stroke-width="0.85" stroke-linejoin="round"/></g>
      <g transform="rotate(162.000000)"><path d="M 3.061,-103.080 L 3.702,-98.145 L 3.924,-91.992 L -3.924,-91.992 L -3.702,-98.145 L -3.061,-103.080 Z" fill="#4f4f4f" stroke="#0d0d0d" stroke-width="0.85" stroke-linejoin="round"/></g>
      <g transform="rotate(171.000000)"><path d="M 3.061,-103.080 L 3.702,-98.145 L 3.924,-91.992 L -3.924,-91.992 L -3.702,-98.145 L -3.061,-103.080 Z" fill="#4f4f4f" stroke="#0d0d0d" stroke-width="0.85" stroke-linejoin="round"/></g>
      <g transform="rotate(180.000000)"><path d="M 3.061,-103.080 L 3.702,-98.145 L 3.924,-91.992 L -3.924,-91.992 L -3.702,-98.145 L -3.061,-103.080 Z" fill="#4f4f4f" stroke="#0d0d0d" stroke-width="0.85" stroke-linejoin="round"/></g>
      <g transform="rotate(189.000000)"><path d="M 3.061,-103.080 L 3.702,-98.145 L 3.924,-91.992 L -3.924,-91.992 L -3.702,-98.145 L -3.061,-103.080 Z" fill="#4f4f4f" stroke="#0d0d0d" stroke-width="0.85" stroke-linejoin="round"/></g>
      <g transform="rotate(198.000000)"><path d="M 3.061,-103.080 L 3.702,-98.145 L 3.924,-91.992 L -3.924,-91.992 L -3.702,-98.145 L -3.061,-103.080 Z" fill="#4f4f4f" stroke="#0d0d0d" stroke-width="0.85" stroke-linejoin="round"/></g>
      <g transform="rotate(207.000000)"><path d="M 3.061,-103.080 L 3.702,-98.145 L 3.924,-91.992 L -3.924,-91.992 L -3.702,-98.145 L -3.061,-103.080 Z" fill="#4f4f4f" stroke="#0d0d0d" stroke-width="0.85" stroke-linejoin="round"/></g>
      <g transform="rotate(216.000000)"><path d="M 3.061,-103.080 L 3.702,-98.145 L 3.924,-91.992 L -3.924,-91.992 L -3.702,-98.145 L -3.061,-103.080 Z" fill="#4f4f4f" stroke="#0d0d0d" stroke-width="0.85" stroke-linejoin="round"/></g>
      <g transform="rotate(225.000000)"><path d="M 3.061,-103.080 L 3.702,-98.145 L 3.924,-91.992 L -3.924,-91.992 L -3.702,-98.145 L -3.061,-103.080 Z" fill="#4f4f4f" stroke="#0d0d0d" stroke-width="0.85" stroke-linejoin="round"/></g>
      <g transform="rotate(234.000000)"><path d="M 3.061,-103.080 L 3.702,-98.145 L 3.924,-91.992 L -3.924,-91.992 L -3.702,-98.145 L -3.061,-103.080 Z" fill="#4f4f4f" stroke="#0d0d0d" stroke-width="0.85" stroke-linejoin="round"/></g>
      <g transform="rotate(243.000000)"><path d="M 3.061,-103.080 L 3.702,-98.145 L 3.924,-91.992 L -3.924,-91.992 L -3.702,-98.145 L -3.061,-103.080 Z" fill="#4f4f4f" stroke="#0d0d0d" stroke-width="0.85" stroke-linejoin="round"/></g>
      <g transform="rotate(252.000000)"><path d="M 3.061,-103.080 L 3.702,-98.145 L 3.924,-91.992 L -3.924,-91.992 L -3.702,-98.145 L -3.061,-103.080 Z" fill="#4f4f4f" stroke="#0d0d0d" stroke-width="0.85" stroke-linejoin="round"/></g>
      <g transform="rotate(261.000000)"><path d="M 3.061,-103.080 L 3.702,-98.145 L 3.924,-91.992 L -3.924,-91.992 L -3.702,-98.145 L -3.061,-103.080 Z" fill="#4f4f4f" stroke="#0d0d0d" stroke-width="0.85" stroke-linejoin="round"/></g>
      <g transform="rotate(270.000000)"><path d="M 3.061,-103.080 L 3.702,-98.145 L 3.924,-91.992 L -3.924,-91.992 L -3.702,-98.145 L -3.061,-103.080 Z" fill="#4f4f4f" stroke="#0d0d0d" stroke-width="0.85" stroke-linejoin="round"/></g>
      <g transform="rotate(279.000000)"><path d="M 3.061,-103.080 L 3.702,-98.145 L 3.924,-91.992 L -3.924,-91.992 L -3.702,-98.145 L -3.061,-103.080 Z" fill="#4f4f4f" stroke="#0d0d0d" stroke-width="0.85" stroke-linejoin="round"/></g>
      <g transform="rotate(288.000000)"><path d="M 3.061,-103.080 L 3.702,-98.145 L 3.924,-91.992 L -3.924,-91.992 L -3.702,-98.145 L -3.061,-103.080 Z" fill="#4f4f4f" stroke="#0d0d0d" stroke-width="0.85" stroke-linejoin="round"/></g>
      <g transform="rotate(297.000000)"><path d="M 3.061,-103.080 L 3.702,-98.145 L 3.924,-91.992 L -3.924,-91.992 L -3.702,-98.145 L -3.061,-103.080 Z" fill="#4f4f4f" stroke="#0d0d0d" stroke-width="0.85" stroke-linejoin="round"/></g>
      <g transform="rotate(306.000000)"><path d="M 3.061,-103.080 L 3.702,-98.145 L 3.924,-91.992 L -3.924,-91.992 L -3.702,-98.145 L -3.061,-103.080 Z" fill="#4f4f4f" stroke="#0d0d0d" stroke-width="0.85" stroke-linejoin="round"/></g>
      <g transform="rotate(315.000000)"><path d="M 3.061,-103.080 L 3.702,-98.145 L 3.924,-91.992 L -3.924,-91.992 L -3.702,-98.145 L -3.061,-103.080 Z" fill="#4f4f4f" stroke="#0d0d0d" stroke-width="0.85" stroke-linejoin="round"/></g>
      <g transform="rotate(324.000000)"><path d="M 3.061,-103.080 L 3.702,-98.145 L 3.924,-91.992 L -3.924,-91.992 L -3.702,-98.145 L -3.061,-103.080 Z" fill="#4f4f4f" stroke="#0d0d0d" stroke-width="0.85" stroke-linejoin="round"/></g>
      <g transform="rotate(333.000000)"><path d="M 3.061,-103.080 L 3.702,-98.145 L 3.924,-91.992 L -3.924,-91.992 L -3.702,-98.145 L -3.061,-103.080 Z" fill="#4f4f4f" stroke="#0d0d0d" stroke-width="0.85" stroke-linejoin="round"/></g>
      <g transform="rotate(342.000000)"><path d="M 3.061,-103.080 L 3.702,-98.145 L 3.924,-91.992 L -3.924,-91.992 L -3.702,-98.145 L -3.061,-103.080 Z" fill="#4f4f4f" stroke="#0d0d0d" stroke-width="0.85" stroke-linejoin="round"/></g>
      <g transform="rotate(351.000000)"><path d="M 3.061,-103.080 L 3.702,-98.145 L 3.924,-91.992 L -3.924,-91.992 L -3.702,-98.145 L -3.061,-103.080 Z" fill="#4f4f4f" stroke="#0d0d0d" stroke-width="0.85" stroke-linejoin="round"/></g>
      <circle r="35.357" fill="#999" stroke="#000" stroke-width="2.5"/>
      <circle r="16.971" fill="#f5f5f5" stroke="#000" stroke-width="2"/>
    </g>
  </g>

  <!-- ========================================== -->
  <!-- 4. Output spur gear / m1.5, z72, PA 20 deg -->
  <!-- m=1.5, z=72, PA=20.0 deg, a=275.0px == 84.000 mm * k -->
  <!-- ========================================== -->
  <g transform="translate(525, 260)">
    <g id="rotate-large">
      <!-- Half circular pitch on z72 (360/(2*72)=2.5 deg): pitch point was tooth-on-tooth; offset aligns gap to pinion tooth -->
      <g transform="rotate(2.5)">
      <circle r="170.647" fill="#4a4a4a" stroke="#000" stroke-width="2.5"/>
      <circle r="176.786" fill="none" stroke="#888888" stroke-width="0.9" stroke-dasharray="5 4"/>
      <g transform="rotate(0.000000)"><path d="M 3.062,-181.671 L 3.702,-176.747 L 3.924,-170.602 L -3.924,-170.602 L -3.702,-176.747 L -3.062,-181.671 Z" fill="#5c5c5c" stroke="#0d0d0d" stroke-width="0.85" stroke-linejoin="round"/></g>
      <g transform="rotate(5.000000)"><path d="M 3.062,-181.671 L 3.702,-176.747 L 3.924,-170.602 L -3.924,-170.602 L -3.702,-176.747 L -3.062,-181.671 Z" fill="#5c5c5c" stroke="#0d0d0d" stroke-width="0.85" stroke-linejoin="round"/></g>
      <g transform="rotate(10.000000)"><path d="M 3.062,-181.671 L 3.702,-176.747 L 3.924,-170.602 L -3.924,-170.602 L -3.702,-176.747 L -3.062,-181.671 Z" fill="#5c5c5c" stroke="#0d0d0d" stroke-width="0.85" stroke-linejoin="round"/></g>
      <g transform="rotate(15.000000)"><path d="M 3.062,-181.671 L 3.702,-176.747 L 3.924,-170.602 L -3.924,-170.602 L -3.702,-176.747 L -3.062,-181.671 Z" fill="#5c5c5c" stroke="#0d0d0d" stroke-width="0.85" stroke-linejoin="round"/></g>
      <g transform="rotate(20.000000)"><path d="M 3.062,-181.671 L 3.702,-176.747 L 3.924,-170.602 L -3.924,-170.602 L -3.702,-176.747 L -3.062,-181.671 Z" fill="#5c5c5c" stroke="#0d0d0d" stroke-width="0.85" stroke-linejoin="round"/></g>
      <g transform="rotate(25.000000)"><path d="M 3.062,-181.671 L 3.702,-176.747 L 3.924,-170.602 L -3.924,-170.602 L -3.702,-176.747 L -3.062,-181.671 Z" fill="#5c5c5c" stroke="#0d0d0d" stroke-width="0.85" stroke-linejoin="round"/></g>
      <g transform="rotate(30.000000)"><path d="M 3.062,-181.671 L 3.702,-176.747 L 3.924,-170.602 L -3.924,-170.602 L -3.702,-176.747 L -3.062,-181.671 Z" fill="#5c5c5c" stroke="#0d0d0d" stroke-width="0.85" stroke-linejoin="round"/></g>
      <g transform="rotate(35.000000)"><path d="M 3.062,-181.671 L 3.702,-176.747 L 3.924,-170.602 L -3.924,-170.602 L -3.702,-176.747 L -3.062,-181.671 Z" fill="#5c5c5c" stroke="#0d0d0d" stroke-width="0.85" stroke-linejoin="round"/></g>
      <g transform="rotate(40.000000)"><path d="M 3.062,-181.671 L 3.702,-176.747 L 3.924,-170.602 L -3.924,-170.602 L -3.702,-176.747 L -3.062,-181.671 Z" fill="#5c5c5c" stroke="#0d0d0d" stroke-width="0.85" stroke-linejoin="round"/></g>
      <g transform="rotate(45.000000)"><path d="M 3.062,-181.671 L 3.702,-176.747 L 3.924,-170.602 L -3.924,-170.602 L -3.702,-176.747 L -3.062,-181.671 Z" fill="#5c5c5c" stroke="#0d0d0d" stroke-width="0.85" stroke-linejoin="round"/></g>
      <g transform="rotate(50.000000)"><path d="M 3.062,-181.671 L 3.702,-176.747 L 3.924,-170.602 L -3.924,-170.602 L -3.702,-176.747 L -3.062,-181.671 Z" fill="#5c5c5c" stroke="#0d0d0d" stroke-width="0.85" stroke-linejoin="round"/></g>
      <g transform="rotate(55.000000)"><path d="M 3.062,-181.671 L 3.702,-176.747 L 3.924,-170.602 L -3.924,-170.602 L -3.702,-176.747 L -3.062,-181.671 Z" fill="#5c5c5c" stroke="#0d0d0d" stroke-width="0.85" stroke-linejoin="round"/></g>
      <g transform="rotate(60.000000)"><path d="M 3.062,-181.671 L 3.702,-176.747 L 3.924,-170.602 L -3.924,-170.602 L -3.702,-176.747 L -3.062,-181.671 Z" fill="#5c5c5c" stroke="#0d0d0d" stroke-width="0.85" stroke-linejoin="round"/></g>
      <g transform="rotate(65.000000)"><path d="M 3.062,-181.671 L 3.702,-176.747 L 3.924,-170.602 L -3.924,-170.602 L -3.702,-176.747 L -3.062,-181.671 Z" fill="#5c5c5c" stroke="#0d0d0d" stroke-width="0.85" stroke-linejoin="round"/></g>
      <g transform="rotate(70.000000)"><path d="M 3.062,-181.671 L 3.702,-176.747 L 3.924,-170.602 L -3.924,-170.602 L -3.702,-176.747 L -3.062,-181.671 Z" fill="#5c5c5c" stroke="#0d0d0d" stroke-width="0.85" stroke-linejoin="round"/></g>
      <g transform="rotate(75.000000)"><path d="M 3.062,-181.671 L 3.702,-176.747 L 3.924,-170.602 L -3.924,-170.602 L -3.702,-176.747 L -3.062,-181.671 Z" fill="#5c5c5c" stroke="#0d0d0d" stroke-width="0.85" stroke-linejoin="round"/></g>
      <g transform="rotate(80.000000)"><path d="M 3.062,-181.671 L 3.702,-176.747 L 3.924,-170.602 L -3.924,-170.602 L -3.702,-176.747 L -3.062,-181.671 Z" fill="#5c5c5c" stroke="#0d0d0d" stroke-width="0.85" stroke-linejoin="round"/></g>
      <g transform="rotate(85.000000)"><path d="M 3.062,-181.671 L 3.702,-176.747 L 3.924,-170.602 L -3.924,-170.602 L -3.702,-176.747 L -3.062,-181.671 Z" fill="#5c5c5c" stroke="#0d0d0d" stroke-width="0.85" stroke-linejoin="round"/></g>
      <g transform="rotate(90.000000)"><path d="M 3.062,-181.671 L 3.702,-176.747 L 3.924,-170.602 L -3.924,-170.602 L -3.702,-176.747 L -3.062,-181.671 Z" fill="#5c5c5c" stroke="#0d0d0d" stroke-width="0.85" stroke-linejoin="round"/></g>
      <g transform="rotate(95.000000)"><path d="M 3.062,-181.671 L 3.702,-176.747 L 3.924,-170.602 L -3.924,-170.602 L -3.702,-176.747 L -3.062,-181.671 Z" fill="#5c5c5c" stroke="#0d0d0d" stroke-width="0.85" stroke-linejoin="round"/></g>
      <g transform="rotate(100.000000)"><path d="M 3.062,-181.671 L 3.702,-176.747 L 3.924,-170.602 L -3.924,-170.602 L -3.702,-176.747 L -3.062,-181.671 Z" fill="#5c5c5c" stroke="#0d0d0d" stroke-width="0.85" stroke-linejoin="round"/></g>
      <g transform="rotate(105.000000)"><path d="M 3.062,-181.671 L 3.702,-176.747 L 3.924,-170.602 L -3.924,-170.602 L -3.702,-176.747 L -3.062,-181.671 Z" fill="#5c5c5c" stroke="#0d0d0d" stroke-width="0.85" stroke-linejoin="round"/></g>
      <g transform="rotate(110.000000)"><path d="M 3.062,-181.671 L 3.702,-176.747 L 3.924,-170.602 L -3.924,-170.602 L -3.702,-176.747 L -3.062,-181.671 Z" fill="#5c5c5c" stroke="#0d0d0d" stroke-width="0.85" stroke-linejoin="round"/></g>
      <g transform="rotate(115.000000)"><path d="M 3.062,-181.671 L 3.702,-176.747 L 3.924,-170.602 L -3.924,-170.602 L -3.702,-176.747 L -3.062,-181.671 Z" fill="#5c5c5c" stroke="#0d0d0d" stroke-width="0.85" stroke-linejoin="round"/></g>
      <g transform="rotate(120.000000)"><path d="M 3.062,-181.671 L 3.702,-176.747 L 3.924,-170.602 L -3.924,-170.602 L -3.702,-176.747 L -3.062,-181.671 Z" fill="#5c5c5c" stroke="#0d0d0d" stroke-width="0.85" stroke-linejoin="round"/></g>
      <g transform="rotate(125.000000)"><path d="M 3.062,-181.671 L 3.702,-176.747 L 3.924,-170.602 L -3.924,-170.602 L -3.702,-176.747 L -3.062,-181.671 Z" fill="#5c5c5c" stroke="#0d0d0d" stroke-width="0.85" stroke-linejoin="round"/></g>
      <g transform="rotate(130.000000)"><path d="M 3.062,-181.671 L 3.702,-176.747 L 3.924,-170.602 L -3.924,-170.602 L -3.702,-176.747 L -3.062,-181.671 Z" fill="#5c5c5c" stroke="#0d0d0d" stroke-width="0.85" stroke-linejoin="round"/></g>
      <g transform="rotate(135.000000)"><path d="M 3.062,-181.671 L 3.702,-176.747 L 3.924,-170.602 L -3.924,-170.602 L -3.702,-176.747 L -3.062,-181.671 Z" fill="#5c5c5c" stroke="#0d0d0d" stroke-width="0.85" stroke-linejoin="round"/></g>
      <g transform="rotate(140.000000)"><path d="M 3.062,-181.671 L 3.702,-176.747 L 3.924,-170.602 L -3.924,-170.602 L -3.702,-176.747 L -3.062,-181.671 Z" fill="#5c5c5c" stroke="#0d0d0d" stroke-width="0.85" stroke-linejoin="round"/></g>
      <g transform="rotate(145.000000)"><path d="M 3.062,-181.671 L 3.702,-176.747 L 3.924,-170.602 L -3.924,-170.602 L -3.702,-176.747 L -3.062,-181.671 Z" fill="#5c5c5c" stroke="#0d0d0d" stroke-width="0.85" stroke-linejoin="round"/></g>
      <g transform="rotate(150.000000)"><path d="M 3.062,-181.671 L 3.702,-176.747 L 3.924,-170.602 L -3.924,-170.602 L -3.702,-176.747 L -3.062,-181.671 Z" fill="#5c5c5c" stroke="#0d0d0d" stroke-width="0.85" stroke-linejoin="round"/></g>
      <g transform="rotate(155.000000)"><path d="M 3.062,-181.671 L 3.702,-176.747 L 3.924,-170.602 L -3.924,-170.602 L -3.702,-176.747 L -3.062,-181.671 Z" fill="#5c5c5c" stroke="#0d0d0d" stroke-width="0.85" stroke-linejoin="round"/></g>
      <g transform="rotate(160.000000)"><path d="M 3.062,-181.671 L 3.702,-176.747 L 3.924,-170.602 L -3.924,-170.602 L -3.702,-176.747 L -3.062,-181.671 Z" fill="#5c5c5c" stroke="#0d0d0d" stroke-width="0.85" stroke-linejoin="round"/></g>
      <g transform="rotate(165.000000)"><path d="M 3.062,-181.671 L 3.702,-176.747 L 3.924,-170.602 L -3.924,-170.602 L -3.702,-176.747 L -3.062,-181.671 Z" fill="#5c5c5c" stroke="#0d0d0d" stroke-width="0.85" stroke-linejoin="round"/></g>
      <g transform="rotate(170.000000)"><path d="M 3.062,-181.671 L 3.702,-176.747 L 3.924,-170.602 L -3.924,-170.602 L -3.702,-176.747 L -3.062,-181.671 Z" fill="#5c5c5c" stroke="#0d0d0d" stroke-width="0.85" stroke-linejoin="round"/></g>
      <g transform="rotate(175.000000)"><path d="M 3.062,-181.671 L 3.702,-176.747 L 3.924,-170.602 L -3.924,-170.602 L -3.702,-176.747 L -3.062,-181.671 Z" fill="#5c5c5c" stroke="#0d0d0d" stroke-width="0.85" stroke-linejoin="round"/></g>
      <g transform="rotate(180.000000)"><path d="M 3.062,-181.671 L 3.702,-176.747 L 3.924,-170.602 L -3.924,-170.602 L -3.702,-176.747 L -3.062,-181.671 Z" fill="#5c5c5c" stroke="#0d0d0d" stroke-width="0.85" stroke-linejoin="round"/></g>
      <g transform="rotate(185.000000)"><path d="M 3.062,-181.671 L 3.702,-176.747 L 3.924,-170.602 L -3.924,-170.602 L -3.702,-176.747 L -3.062,-181.671 Z" fill="#5c5c5c" stroke="#0d0d0d" stroke-width="0.85" stroke-linejoin="round"/></g>
      <g transform="rotate(190.000000)"><path d="M 3.062,-181.671 L 3.702,-176.747 L 3.924,-170.602 L -3.924,-170.602 L -3.702,-176.747 L -3.062,-181.671 Z" fill="#5c5c5c" stroke="#0d0d0d" stroke-width="0.85" stroke-linejoin="round"/></g>
      <g transform="rotate(195.000000)"><path d="M 3.062,-181.671 L 3.702,-176.747 L 3.924,-170.602 L -3.924,-170.602 L -3.702,-176.747 L -3.062,-181.671 Z" fill="#5c5c5c" stroke="#0d0d0d" stroke-width="0.85" stroke-linejoin="round"/></g>
      <g transform="rotate(200.000000)"><path d="M 3.062,-181.671 L 3.702,-176.747 L 3.924,-170.602 L -3.924,-170.602 L -3.702,-176.747 L -3.062,-181.671 Z" fill="#5c5c5c" stroke="#0d0d0d" stroke-width="0.85" stroke-linejoin="round"/></g>
      <g transform="rotate(205.000000)"><path d="M 3.062,-181.671 L 3.702,-176.747 L 3.924,-170.602 L -3.924,-170.602 L -3.702,-176.747 L -3.062,-181.671 Z" fill="#5c5c5c" stroke="#0d0d0d" stroke-width="0.85" stroke-linejoin="round"/></g>
      <g transform="rotate(210.000000)"><path d="M 3.062,-181.671 L 3.702,-176.747 L 3.924,-170.602 L -3.924,-170.602 L -3.702,-176.747 L -3.062,-181.671 Z" fill="#5c5c5c" stroke="#0d0d0d" stroke-width="0.85" stroke-linejoin="round"/></g>
      <g transform="rotate(215.000000)"><path d="M 3.062,-181.671 L 3.702,-176.747 L 3.924,-170.602 L -3.924,-170.602 L -3.702,-176.747 L -3.062,-181.671 Z" fill="#5c5c5c" stroke="#0d0d0d" stroke-width="0.85" stroke-linejoin="round"/></g>
      <g transform="rotate(220.000000)"><path d="M 3.062,-181.671 L 3.702,-176.747 L 3.924,-170.602 L -3.924,-170.602 L -3.702,-176.747 L -3.062,-181.671 Z" fill="#5c5c5c" stroke="#0d0d0d" stroke-width="0.85" stroke-linejoin="round"/></g>
      <g transform="rotate(225.000000)"><path d="M 3.062,-181.671 L 3.702,-176.747 L 3.924,-170.602 L -3.924,-170.602 L -3.702,-176.747 L -3.062,-181.671 Z" fill="#5c5c5c" stroke="#0d0d0d" stroke-width="0.85" stroke-linejoin="round"/></g>
      <g transform="rotate(230.000000)"><path d="M 3.062,-181.671 L 3.702,-176.747 L 3.924,-170.602 L -3.924,-170.602 L -3.702,-176.747 L -3.062,-181.671 Z" fill="#5c5c5c" stroke="#0d0d0d" stroke-width="0.85" stroke-linejoin="round"/></g>
      <g transform="rotate(235.000000)"><path d="M 3.062,-181.671 L 3.702,-176.747 L 3.924,-170.602 L -3.924,-170.602 L -3.702,-176.747 L -3.062,-181.671 Z" fill="#5c5c5c" stroke="#0d0d0d" stroke-width="0.85" stroke-linejoin="round"/></g>
      <g transform="rotate(240.000000)"><path d="M 3.062,-181.671 L 3.702,-176.747 L 3.924,-170.602 L -3.924,-170.602 L -3.702,-176.747 L -3.062,-181.671 Z" fill="#5c5c5c" stroke="#0d0d0d" stroke-width="0.85" stroke-linejoin="round"/></g>
      <g transform="rotate(245.000000)"><path d="M 3.062,-181.671 L 3.702,-176.747 L 3.924,-170.602 L -3.924,-170.602 L -3.702,-176.747 L -3.062,-181.671 Z" fill="#5c5c5c" stroke="#0d0d0d" stroke-width="0.85" stroke-linejoin="round"/></g>
      <g transform="rotate(250.000000)"><path d="M 3.062,-181.671 L 3.702,-176.747 L 3.924,-170.602 L -3.924,-170.602 L -3.702,-176.747 L -3.062,-181.671 Z" fill="#5c5c5c" stroke="#0d0d0d" stroke-width="0.85" stroke-linejoin="round"/></g>
      <g transform="rotate(255.000000)"><path d="M 3.062,-181.671 L 3.702,-176.747 L 3.924,-170.602 L -3.924,-170.602 L -3.702,-176.747 L -3.062,-181.671 Z" fill="#5c5c5c" stroke="#0d0d0d" stroke-width="0.85" stroke-linejoin="round"/></g>
      <g transform="rotate(260.000000)"><path d="M 3.062,-181.671 L 3.702,-176.747 L 3.924,-170.602 L -3.924,-170.602 L -3.702,-176.747 L -3.062,-181.671 Z" fill="#5c5c5c" stroke="#0d0d0d" stroke-width="0.85" stroke-linejoin="round"/></g>
      <g transform="rotate(265.000000)"><path d="M 3.062,-181.671 L 3.702,-176.747 L 3.924,-170.602 L -3.924,-170.602 L -3.702,-176.747 L -3.062,-181.671 Z" fill="#5c5c5c" stroke="#0d0d0d" stroke-width="0.85" stroke-linejoin="round"/></g>
      <g transform="rotate(270.000000)"><path d="M 3.062,-181.671 L 3.702,-176.747 L 3.924,-170.602 L -3.924,-170.602 L -3.702,-176.747 L -3.062,-181.671 Z" fill="#5c5c5c" stroke="#0d0d0d" stroke-width="0.85" stroke-linejoin="round"/></g>
      <g transform="rotate(275.000000)"><path d="M 3.062,-181.671 L 3.702,-176.747 L 3.924,-170.602 L -3.924,-170.602 L -3.702,-176.747 L -3.062,-181.671 Z" fill="#5c5c5c" stroke="#0d0d0d" stroke-width="0.85" stroke-linejoin="round"/></g>
      <g transform="rotate(280.000000)"><path d="M 3.062,-181.671 L 3.702,-176.747 L 3.924,-170.602 L -3.924,-170.602 L -3.702,-176.747 L -3.062,-181.671 Z" fill="#5c5c5c" stroke="#0d0d0d" stroke-width="0.85" stroke-linejoin="round"/></g>
      <g transform="rotate(285.000000)"><path d="M 3.062,-181.671 L 3.702,-176.747 L 3.924,-170.602 L -3.924,-170.602 L -3.702,-176.747 L -3.062,-181.671 Z" fill="#5c5c5c" stroke="#0d0d0d" stroke-width="0.85" stroke-linejoin="round"/></g>
      <g transform="rotate(290.000000)"><path d="M 3.062,-181.671 L 3.702,-176.747 L 3.924,-170.602 L -3.924,-170.602 L -3.702,-176.747 L -3.062,-181.671 Z" fill="#5c5c5c" stroke="#0d0d0d" stroke-width="0.85" stroke-linejoin="round"/></g>
      <g transform="rotate(295.000000)"><path d="M 3.062,-181.671 L 3.702,-176.747 L 3.924,-170.602 L -3.924,-170.602 L -3.702,-176.747 L -3.062,-181.671 Z" fill="#5c5c5c" stroke="#0d0d0d" stroke-width="0.85" stroke-linejoin="round"/></g>
      <g transform="rotate(300.000000)"><path d="M 3.062,-181.671 L 3.702,-176.747 L 3.924,-170.602 L -3.924,-170.602 L -3.702,-176.747 L -3.062,-181.671 Z" fill="#5c5c5c" stroke="#0d0d0d" stroke-width="0.85" stroke-linejoin="round"/></g>
      <g transform="rotate(305.000000)"><path d="M 3.062,-181.671 L 3.702,-176.747 L 3.924,-170.602 L -3.924,-170.602 L -3.702,-176.747 L -3.062,-181.671 Z" fill="#5c5c5c" stroke="#0d0d0d" stroke-width="0.85" stroke-linejoin="round"/></g>
      <g transform="rotate(310.000000)"><path d="M 3.062,-181.671 L 3.702,-176.747 L 3.924,-170.602 L -3.924,-170.602 L -3.702,-176.747 L -3.062,-181.671 Z" fill="#5c5c5c" stroke="#0d0d0d" stroke-width="0.85" stroke-linejoin="round"/></g>
      <g transform="rotate(315.000000)"><path d="M 3.062,-181.671 L 3.702,-176.747 L 3.924,-170.602 L -3.924,-170.602 L -3.702,-176.747 L -3.062,-181.671 Z" fill="#5c5c5c" stroke="#0d0d0d" stroke-width="0.85" stroke-linejoin="round"/></g>
      <g transform="rotate(320.000000)"><path d="M 3.062,-181.671 L 3.702,-176.747 L 3.924,-170.602 L -3.924,-170.602 L -3.702,-176.747 L -3.062,-181.671 Z" fill="#5c5c5c" stroke="#0d0d0d" stroke-width="0.85" stroke-linejoin="round"/></g>
      <g transform="rotate(325.000000)"><path d="M 3.062,-181.671 L 3.702,-176.747 L 3.924,-170.602 L -3.924,-170.602 L -3.702,-176.747 L -3.062,-181.671 Z" fill="#5c5c5c" stroke="#0d0d0d" stroke-width="0.85" stroke-linejoin="round"/></g>
      <g transform="rotate(330.000000)"><path d="M 3.062,-181.671 L 3.702,-176.747 L 3.924,-170.602 L -3.924,-170.602 L -3.702,-176.747 L -3.062,-181.671 Z" fill="#5c5c5c" stroke="#0d0d0d" stroke-width="0.85" stroke-linejoin="round"/></g>
      <g transform="rotate(335.000000)"><path d="M 3.062,-181.671 L 3.702,-176.747 L 3.924,-170.602 L -3.924,-170.602 L -3.702,-176.747 L -3.062,-181.671 Z" fill="#5c5c5c" stroke="#0d0d0d" stroke-width="0.85" stroke-linejoin="round"/></g>
      <g transform="rotate(340.000000)"><path d="M 3.062,-181.671 L 3.702,-176.747 L 3.924,-170.602 L -3.924,-170.602 L -3.702,-176.747 L -3.062,-181.671 Z" fill="#5c5c5c" stroke="#0d0d0d" stroke-width="0.85" stroke-linejoin="round"/></g>
      <g transform="rotate(345.000000)"><path d="M 3.062,-181.671 L 3.702,-176.747 L 3.924,-170.602 L -3.924,-170.602 L -3.702,-176.747 L -3.062,-181.671 Z" fill="#5c5c5c" stroke="#0d0d0d" stroke-width="0.85" stroke-linejoin="round"/></g>
      <g transform="rotate(350.000000)"><path d="M 3.062,-181.671 L 3.702,-176.747 L 3.924,-170.602 L -3.924,-170.602 L -3.702,-176.747 L -3.062,-181.671 Z" fill="#5c5c5c" stroke="#0d0d0d" stroke-width="0.85" stroke-linejoin="round"/></g>
      <g transform="rotate(355.000000)"><path d="M 3.062,-181.671 L 3.702,-176.747 L 3.924,-170.602 L -3.924,-170.602 L -3.702,-176.747 L -3.062,-181.671 Z" fill="#5c5c5c" stroke="#0d0d0d" stroke-width="0.85" stroke-linejoin="round"/></g>
      <circle r="63.643" fill="#999" stroke="#000" stroke-width="2.5"/>
      <circle r="30.549" fill="#f5f5f5" stroke="#000" stroke-width="2"/>
      </g>
    </g>
  </g>

  <!-- MOTOR_WORM_GEARS_END -->






  <!-- ========================================== -->
  <!-- ETIKETTER                                  -->
  <!-- ========================================== -->
  
  <!-- Label 1: Motor -->
  <line x1="120" y1="395" x2="120" y2="430" stroke="#30363d" stroke-width="1.5"/>
  <text x="120" y="450" text-anchor="middle" class="label-main">1. NEMA 23 Motor</text>
  <text x="120" y="468" text-anchor="middle" class="label-sub">High RPM Input</text>

  <!-- Label 2: Girkasse -->
  <line x1="250" y1="375" x2="250" y2="430" stroke="#30363d" stroke-width="1.5"/>
  <text x="250" y="450" text-anchor="middle" class="label-main">2. NMRV030 Gearbox</text>
  <text x="250" y="468" text-anchor="middle" class="label-sub">60:1 worm reduction</text>

  <!-- Label 3: Pinion specs (below gear, clear of teeth) -->
  <line x1="250" y1="368" x2="250" y2="398" stroke="#30363d" stroke-width="1.5"/>
  <circle cx="250" cy="398" r="2.5" fill="#30363d"/>
  <text x="250" y="422" text-anchor="middle" class="label-sub">40 teeth, m1.5, 20 deg PA</text>

  <!-- Label 4: Output spur (room for full line on wide viewBox) -->
  <line x1="712" y1="188" x2="738" y2="188" stroke="#30363d" stroke-width="1.5"/>
  <circle cx="740" cy="188" r="2.5" fill="#30363d"/>
  <text x="752" y="182" text-anchor="start" class="label-main">4. Output spur gear</text>
  <text x="752" y="200" text-anchor="start" class="label-sub">72 teeth, m1.5, 20 deg PA</text>

  <!-- Output pil -->
  <line x1="722" y1="260" x2="888" y2="260" stroke="#2c3e50" stroke-width="3" marker-end="url(#arrow)"/>
  <rect x="898" y="245" width="90" height="30" rx="4" fill="#2c3e50"/>
  <text x="943" y="265" text-anchor="middle" class="chip" fill="#fff">OUTPUT</text>

</svg>