<svg xmlns="http://www.w3.org/2000/svg" viewBox="0 0 1440 1180" width="1440" height="1180" role="img" aria-labelledby="title desc">
  <title id="title">TIG Rotator UI screen map</title>
  <desc id="desc">Overview of the 21 active LVGL screens used by the ESP32-P4 TIG rotator firmware.</desc>

  <defs>
    <linearGradient id="pageBg" x1="0" y1="0" x2="0" y2="1">
      <stop offset="0" stop-color="#101010"/>
      <stop offset="1" stop-color="#050505"/>
    </linearGradient>
    <linearGradient id="screenBg" x1="0" y1="0" x2="0" y2="1">
      <stop offset="0" stop-color="#070707"/>
      <stop offset="1" stop-color="#020202"/>
    </linearGradient>
    <linearGradient id="btnBg" x1="0" y1="0" x2="0" y2="1">
      <stop offset="0" stop-color="#181818"/>
      <stop offset="1" stop-color="#101010"/>
    </linearGradient>
    <linearGradient id="accentBg" x1="0" y1="0" x2="0" y2="1">
      <stop offset="0" stop-color="#251C00"/>
      <stop offset="1" stop-color="#120E00"/>
    </linearGradient>
    <filter id="cardShadow" x="-15%" y="-15%" width="130%" height="130%">
      <feDropShadow dx="0" dy="8" stdDeviation="8" flood-color="#000000" flood-opacity="0.38"/>
    </filter>
    <style>
      .font { font-family: "Montserrat", "Segoe UI", Arial, sans-serif; }
      .mono { font-family: "Cascadia Mono", Consolas, monospace; }
      .title { fill: #FF9500; font-size: 26px; font-weight: 800; letter-spacing: 2px; }
      .subtitle { fill: #666666; font-size: 12px; letter-spacing: 1px; }
      .card { fill: url(#screenBg); stroke: #303030; stroke-width: 1; }
      .header { fill: #090909; }
      .line { stroke: #252525; stroke-width: 1; }
      .btn { fill: url(#btnBg); stroke: #303030; stroke-width: 1; }
      .btnAccent { fill: url(#accentBg); stroke: #FF9500; stroke-width: 1.5; }
      .btnDanger { fill: #1A0A0A; stroke: #FF1744; stroke-width: 1.5; }
      .row { fill: #0E0E0E; stroke: #252525; stroke-width: 1; }
      .accent { fill: #FF9500; }
      .green { fill: #00C853; }
      .red { fill: #FF1744; }
      .yellow { fill: #FFD600; }
      .text { fill: #B0B0B0; }
      .dim { fill: #666666; }
      .vdim { fill: #363636; }
      .cap { fill: #FF9500; font-size: 13px; font-weight: 800; letter-spacing: 1px; text-anchor: middle; }
      .note { fill: #555555; font-size: 9px; text-anchor: middle; }
      .miniH { font-size: 9px; font-weight: 700; }
      .mini { font-size: 9px; }
      .mini2 { font-size: 7px; }
    </style>
  </defs>

  <rect width="1440" height="1180" fill="url(#pageBg)"/>
  <text x="720" y="32" class="font title" text-anchor="middle">TIG ROTATOR UI SCREENS</text>
  <text x="720" y="52" class="font subtitle" text-anchor="middle">ESP32-P4 | LVGL 9.5 | 800x480 landscape | 21 active ScreenId roots | Dark industrial theme</text>

  <!-- 1 BOOT -->
  <g transform="translate(30,70)" filter="url(#cardShadow)">
    <rect width="300" height="180" rx="5" class="card"/>
    <rect width="300" height="14" class="header"/>
    <text x="8" y="10" class="font miniH green">TIG-ROTATOR</text>
    <text x="292" y="10" class="font mini dim" text-anchor="end">BOOT</text>
    <rect x="10" y="24" width="280" height="78" fill="#050505" stroke="#252525"/>
    <text x="18" y="42" class="mono mini vdim">[SYS] ESP32-P4 init ........ OK</text>
    <text x="18" y="56" class="mono mini vdim">[MEM] PSRAM / Flash ........ OK</text>
    <text x="18" y="70" class="mono mini vdim">[MTR] DM542T driver ........ OK</text>
    <text x="18" y="84" class="mono mini vdim">[UI]  LVGL + GT911 ......... OK</text>
    <rect x="18" y="90" width="210" height="5" fill="#111111"/>
    <rect x="18" y="90" width="168" height="5" fill="#FF9500"/>
    <text x="238" y="96" class="font mini dim">80%</text>
    <rect x="0" y="114" width="300" height="1" fill="#252525"/>
    <text x="14" y="132" class="font mini vdim">Display: MIPI-DSI 800x480</text>
    <text x="14" y="148" class="font mini vdim">Motor: NEMA 23 + 108:1 gear</text>
    <text x="14" y="164" class="font mini vdim">RPM: 0.001 - 3.000 workpiece</text>
    <text x="150" y="198" class="font cap">1. BOOT</text>
  </g>

  <!-- 2 MAIN -->
  <g transform="translate(375,70)" filter="url(#cardShadow)">
    <rect width="300" height="180" rx="5" class="card"/>
    <rect width="300" height="12" class="header"/>
    <text x="6" y="9" class="font miniH accent">TIG-ROTATOR</text>
    <text x="64" y="9" class="font mini green">IDLE</text>
    <text x="106" y="9" class="font mini dim">SRC POT</text>
    <text x="292" y="9" class="font mini green" text-anchor="end">READY</text>
    <rect x="4" y="18" width="64" height="27" rx="3" class="btn"/>
    <text x="36" y="35" class="font mini text" text-anchor="middle">JOG</text>
    <rect x="4" y="49" width="64" height="27" rx="3" class="btnAccent"/>
    <text x="36" y="66" class="font mini accent" text-anchor="middle">CW</text>
    <rect x="4" y="80" width="64" height="27" rx="3" class="btn"/>
    <text x="36" y="97" class="font mini text" text-anchor="middle">PULSE</text>
    <path d="M 101 128 A 69 69 0 1 1 199 128" fill="none" stroke="#111111" stroke-width="6" stroke-linecap="round"/>
    <path d="M 101 128 A 69 69 0 0 1 84 83" fill="none" stroke="#FF9500" stroke-width="4" stroke-linecap="round"/>
    <text x="150" y="80" class="font accent" font-size="19" font-weight="800" text-anchor="middle">0.50</text>
    <text x="150" y="96" class="font mini dim" text-anchor="middle">RPM</text>
    <rect x="232" y="18" width="64" height="27" rx="3" class="btn"/>
    <text x="264" y="35" class="font mini text" text-anchor="middle">STEP</text>
    <rect x="232" y="49" width="64" height="27" rx="3" class="btn"/>
    <text x="264" y="66" class="font mini text" text-anchor="middle">3-2-1</text>
    <rect x="232" y="80" width="64" height="27" rx="3" class="btn"/>
    <text x="264" y="97" class="font mini text" text-anchor="middle">MENU</text>
    <rect x="232" y="111" width="64" height="27" rx="3" class="btn"/>
    <text x="264" y="128" class="font mini text" text-anchor="middle">PEDAL</text>
    <rect x="2" y="158" width="146" height="20" rx="3" class="btn"/>
    <text x="75" y="171" class="font mini text" text-anchor="middle">&gt; START</text>
    <rect x="152" y="158" width="146" height="20" rx="3" class="btnDanger"/>
    <text x="225" y="171" class="font mini red" text-anchor="middle">X STOP</text>
    <text x="150" y="198" class="font cap">2. MAIN</text>
  </g>

  <!-- 3 MENU -->
  <g transform="translate(720,70)" filter="url(#cardShadow)">
    <rect width="300" height="180" rx="5" class="card"/>
    <rect width="300" height="14" class="header"/>
    <text x="8" y="10" class="font miniH accent">MENU</text>
    <rect x="10" y="28" width="134" height="38" rx="4" class="btn"/><text x="77" y="51" class="font mini text" text-anchor="middle">PULSE</text>
    <rect x="156" y="28" width="134" height="38" rx="4" class="btn"/><text x="223" y="51" class="font mini text" text-anchor="middle">STEP</text>
    <rect x="10" y="78" width="134" height="38" rx="4" class="btn"/><text x="77" y="101" class="font mini text" text-anchor="middle">JOG</text>
    <rect x="156" y="78" width="134" height="38" rx="4" class="btn"/><text x="223" y="101" class="font mini text" text-anchor="middle">3-2-1</text>
    <rect x="10" y="128" width="280" height="22" rx="4" class="btnAccent"/><text x="150" y="143" class="font mini accent" text-anchor="middle">PROGRAMS</text>
    <rect x="10" y="156" width="134" height="18" rx="3" class="btn"/><text x="77" y="168" class="font mini text" text-anchor="middle">&lt; BACK</text>
    <rect x="156" y="156" width="134" height="18" rx="3" class="btnAccent"/><text x="223" y="168" class="font mini accent" text-anchor="middle">SETTINGS</text>
    <text x="150" y="198" class="font cap">3. MENU</text>
  </g>

  <!-- 4 JOG -->
  <g transform="translate(1065,70)" filter="url(#cardShadow)">
    <rect width="300" height="180" rx="5" class="card"/>
    <rect width="300" height="14" class="header"/>
    <text x="8" y="10" class="font miniH accent">JOG MODE</text>
    <text x="18" y="36" class="font mini dim">RPM</text><text x="64" y="38" class="font accent" font-size="15">0.5</text>
    <rect x="100" y="31" width="110" height="3" fill="#111111"/><rect x="100" y="31" width="25" height="3" fill="#FF9500"/>
    <rect x="222" y="23" width="28" height="20" rx="3" class="btn"/><text x="236" y="37" class="font mini text" text-anchor="middle">-</text>
    <rect x="256" y="23" width="28" height="20" rx="3" class="btn"/><text x="270" y="37" class="font mini text" text-anchor="middle">+</text>
    <rect x="10" y="64" width="136" height="88" rx="4" class="btn"/><text x="78" y="105" class="font" font-size="18" fill="#777777" text-anchor="middle">&lt; CW</text><text x="78" y="124" class="font mini2 vdim" text-anchor="middle">hold to run</text>
    <rect x="154" y="64" width="136" height="88" rx="4" class="btn"/><text x="222" y="105" class="font" font-size="18" fill="#777777" text-anchor="middle">CCW &gt;</text><text x="222" y="124" class="font mini2 vdim" text-anchor="middle">hold to run</text>
    <rect x="10" y="158" width="136" height="18" rx="3" class="btn"/><text x="78" y="170" class="font mini text" text-anchor="middle">&lt; BACK</text>
    <text x="150" y="198" class="font cap">4. JOG</text>
  </g>

  <!-- 5 PULSE -->
  <g transform="translate(30,250)" filter="url(#cardShadow)">
    <rect width="300" height="180" rx="5" class="card"/>
    <rect width="300" height="14" class="header"/>
    <text x="8" y="10" class="font miniH accent">PULSE MODE</text>
    <text x="18" y="38" class="font mini dim">ON</text><rect x="62" y="25" width="40" height="26" rx="3" class="btn"/><text x="82" y="42" class="font mini text" text-anchor="middle">0.5s</text>
    <text x="18" y="72" class="font mini dim">OFF</text><rect x="62" y="59" width="40" height="26" rx="3" class="btn"/><text x="82" y="76" class="font mini text" text-anchor="middle">0.5s</text>
    <text x="164" y="38" class="font mini dim">RPM</text><text x="220" y="42" class="font accent" font-size="17">0.5</text>
    <rect x="18" y="102" width="264" height="14" rx="3" fill="#111111"/><rect x="18" y="102" width="132" height="14" rx="3" fill="#FF9500"/>
    <text x="150" y="132" class="font mini dim" text-anchor="middle">Duty, cycle, frequency and steps/sec</text>
    <rect x="6" y="158" width="142" height="20" rx="3" class="btnAccent"/><text x="77" y="171" class="font mini accent" text-anchor="middle">&gt; START</text>
    <rect x="152" y="158" width="142" height="20" rx="3" class="btnDanger"/><text x="223" y="171" class="font mini red" text-anchor="middle">X STOP</text>
    <text x="150" y="198" class="font cap">5. PULSE</text>
  </g>

  <!-- 6 STEP -->
  <g transform="translate(375,250)" filter="url(#cardShadow)">
    <rect width="300" height="180" rx="5" class="card"/>
    <rect width="300" height="14" class="header"/>
    <text x="8" y="10" class="font miniH accent">STEP MODE</text>
    <circle cx="150" cy="74" r="48" fill="none" stroke="#111111" stroke-width="7"/>
    <path d="M150 26 A48 48 0 0 1 198 74" fill="none" stroke="#FF9500" stroke-width="7" stroke-linecap="round"/>
    <text x="150" y="72" class="font accent" font-size="20" font-weight="800" text-anchor="middle">90</text>
    <text x="150" y="90" class="font mini dim" text-anchor="middle">DEG</text>
    <text x="24" y="132" class="font mini dim">RPM 0.5</text><text x="106" y="132" class="font mini dim">DIA 100mm</text><text x="210" y="132" class="font mini dim">STEPS</text>
    <rect x="6" y="158" width="94" height="20" rx="3" class="btn"/><text x="53" y="171" class="font mini text" text-anchor="middle">&lt; BACK</text>
    <rect x="104" y="158" width="94" height="20" rx="3" class="btnAccent"/><text x="151" y="171" class="font mini accent" text-anchor="middle">STEP</text>
    <rect x="202" y="158" width="92" height="20" rx="3" class="btnDanger"/><text x="248" y="171" class="font mini red" text-anchor="middle">STOP</text>
    <text x="150" y="198" class="font cap">6. STEP</text>
  </g>

  <!-- 7 TIMER -->
  <g transform="translate(720,250)" filter="url(#cardShadow)">
    <rect width="300" height="180" rx="5" class="card"/>
    <rect width="300" height="14" class="header"/>
    <text x="8" y="10" class="font miniH accent">COUNTDOWN</text>
    <circle cx="150" cy="72" r="46" fill="none" stroke="#111111" stroke-width="7"/>
    <path d="M150 26 A46 46 0 1 1 149 26" fill="none" stroke="#00C853" stroke-width="7" stroke-linecap="round"/>
    <text x="150" y="78" class="font green" font-size="34" font-weight="800" text-anchor="middle">3</text>
    <text x="150" y="128" class="font mini dim" text-anchor="middle">READY</text>
    <text x="24" y="146" class="font mini dim">DELAY 3 sec</text><text x="198" y="146" class="font mini dim">RPM 0.5</text>
    <rect x="6" y="158" width="94" height="20" rx="3" class="btn"/><text x="53" y="171" class="font mini text" text-anchor="middle">&lt; BACK</text>
    <rect x="104" y="158" width="94" height="20" rx="3" class="btnAccent"/><text x="151" y="171" class="font mini accent" text-anchor="middle">&gt; START</text>
    <rect x="202" y="158" width="92" height="20" rx="3" class="btnDanger"/><text x="248" y="171" class="font mini red" text-anchor="middle">STOP</text>
    <text x="150" y="198" class="font cap">7. TIMER</text>
  </g>

  <!-- 8 PROGRAMS -->
  <g transform="translate(1065,250)" filter="url(#cardShadow)">
    <rect width="300" height="180" rx="5" class="card"/>
    <rect width="300" height="14" class="header"/>
    <text x="8" y="10" class="font miniH accent">PROGRAMS</text><text x="292" y="10" class="font mini dim" text-anchor="end">(0/20)</text>
    <rect x="10" y="26" width="280" height="26" rx="4" class="btnAccent"/><text x="150" y="43" class="font mini accent" text-anchor="middle">+ NEW PROGRAM</text>
    <rect x="10" y="62" width="280" height="28" rx="4" class="row"/><text x="20" y="80" class="font mini text">01 CONT  0.5 RPM</text><text x="260" y="80" class="font mini accent">PLAY</text>
    <rect x="10" y="96" width="280" height="28" rx="4" class="row"/><text x="20" y="114" class="font mini text">02 PULSE 0.5/0.5</text><text x="260" y="114" class="font mini accent">EDIT</text>
    <rect x="10" y="130" width="280" height="28" rx="4" class="row"/><text x="20" y="148" class="font mini text">03 STEP 90 DEG</text><text x="260" y="148" class="font mini red">DEL</text>
    <text x="150" y="198" class="font cap">8. PROGRAMS</text>
  </g>

  <!-- 9 PROGRAM EDIT -->
  <g transform="translate(30,430)" filter="url(#cardShadow)">
    <rect width="300" height="180" rx="5" class="card"/>
    <rect width="300" height="14" class="header"/>
    <text x="8" y="10" class="font miniH accent">PROGRAM EDIT</text>
    <rect x="12" y="28" width="276" height="24" rx="4" class="row"/><text x="22" y="44" class="font mini dim">NAME</text><text x="82" y="44" class="font mini text">WELD PASS 01</text>
    <rect x="12" y="62" width="84" height="36" rx="4" class="btnAccent"/><text x="54" y="84" class="font mini accent" text-anchor="middle">CONT</text>
    <rect x="108" y="62" width="84" height="36" rx="4" class="btn"/><text x="150" y="84" class="font mini text" text-anchor="middle">PULSE</text>
    <rect x="204" y="62" width="84" height="36" rx="4" class="btn"/><text x="246" y="84" class="font mini text" text-anchor="middle">STEP</text>
    <text x="24" y="128" class="font mini dim">RPM</text><text x="86" y="128" class="font accent" font-size="15">0.5</text><text x="180" y="128" class="font mini dim">CW</text>
    <rect x="6" y="158" width="94" height="20" rx="3" class="btn"/><text x="53" y="171" class="font mini text" text-anchor="middle">&lt; BACK</text>
    <rect x="104" y="158" width="94" height="20" rx="3" class="btnAccent"/><text x="151" y="171" class="font mini accent" text-anchor="middle">SAVE</text>
    <rect x="202" y="158" width="92" height="20" rx="3" class="btnDanger"/><text x="248" y="171" class="font mini red" text-anchor="middle">DELETE</text>
    <text x="150" y="198" class="font cap">9. PROGRAM EDIT</text>
  </g>

  <!-- 10 SETTINGS -->
  <g transform="translate(375,430)" filter="url(#cardShadow)">
    <rect width="300" height="180" rx="5" class="card"/>
    <rect width="300" height="14" class="header"/>
    <text x="8" y="10" class="font miniH accent">SETTINGS</text>
    <rect x="12" y="28" width="276" height="24" rx="4" class="row"/><text x="24" y="44" class="font mini text">MOTOR CONFIG</text><text x="276" y="44" class="font mini dim" text-anchor="end">&gt;</text>
    <rect x="12" y="58" width="276" height="24" rx="4" class="row"/><text x="24" y="74" class="font mini text">DISPLAY</text><text x="276" y="74" class="font mini dim" text-anchor="end">&gt;</text>
    <rect x="12" y="88" width="276" height="24" rx="4" class="row"/><text x="24" y="104" class="font mini text">PEDAL SETTINGS</text><text x="276" y="104" class="font mini dim" text-anchor="end">&gt;</text>
    <rect x="12" y="118" width="276" height="24" rx="4" class="row"/><text x="24" y="134" class="font mini text">DIAGNOSTICS</text><text x="276" y="134" class="font mini dim" text-anchor="end">&gt;</text>
    <rect x="10" y="156" width="136" height="20" rx="3" class="btn"/><text x="78" y="169" class="font mini text" text-anchor="middle">&lt; MENU</text>
    <text x="150" y="198" class="font cap">10. SETTINGS</text>
  </g>

  <!-- 11 CONFIRM -->
  <g transform="translate(720,430)" filter="url(#cardShadow)">
    <rect width="300" height="180" rx="5" class="card"/>
    <rect x="48" y="36" width="204" height="108" rx="6" fill="#0D0D0D" stroke="#FF1744" stroke-width="1.5"/>
    <text x="150" y="62" class="font red" font-size="13" font-weight="800" text-anchor="middle">CONFIRM DELETE</text>
    <text x="150" y="90" class="font mini dim" text-anchor="middle">This action cannot be undone.</text>
    <rect x="64" y="112" width="80" height="22" rx="3" class="btn"/><text x="104" y="126" class="font mini text" text-anchor="middle">CANCEL</text>
    <rect x="156" y="112" width="80" height="22" rx="3" class="btnDanger"/><text x="196" y="126" class="font mini red" text-anchor="middle">DELETE</text>
    <text x="150" y="198" class="font cap">11. CONFIRM</text>
  </g>

  <!-- 12 EDIT CONT -->
  <g transform="translate(1065,430)" filter="url(#cardShadow)">
    <rect width="300" height="180" rx="5" class="card"/>
    <rect width="300" height="14" class="header"/><text x="8" y="10" class="font miniH accent">EDIT CONTINUOUS</text>
    <text x="150" y="60" class="font accent" font-size="32" font-weight="800" text-anchor="middle">0.5</text><text x="150" y="78" class="font mini dim" text-anchor="middle">RPM</text>
    <rect x="54" y="98" width="192" height="8" rx="3" fill="#111111"/><rect x="54" y="98" width="54" height="8" rx="3" fill="#FF9500"/>
    <rect x="48" y="122" width="62" height="24" rx="4" class="btnAccent"/><text x="79" y="138" class="font mini accent" text-anchor="middle">CW</text>
    <rect x="190" y="122" width="62" height="24" rx="4" class="btn"/><text x="221" y="138" class="font mini text" text-anchor="middle">CCW</text>
    <text x="150" y="198" class="font cap">12. EDIT CONT</text>
  </g>

  <!-- 13 EDIT PULSE -->
  <g transform="translate(30,610)" filter="url(#cardShadow)">
    <rect width="300" height="180" rx="5" class="card"/>
    <rect width="300" height="14" class="header"/><text x="8" y="10" class="font miniH accent">EDIT PULSE</text>
    <text x="26" y="44" class="font mini dim">ON</text><text x="88" y="46" class="font accent" font-size="15">0.5s</text>
    <text x="26" y="76" class="font mini dim">OFF</text><text x="88" y="78" class="font accent" font-size="15">0.5s</text>
    <text x="26" y="108" class="font mini dim">RPM</text><text x="88" y="110" class="font accent" font-size="15">0.5</text>
    <rect x="168" y="34" width="104" height="58" rx="5" fill="#111111"/><text x="220" y="58" class="font mini dim" text-anchor="middle">DUTY</text><text x="220" y="78" class="font accent" font-size="20" text-anchor="middle">50%</text>
    <rect x="6" y="158" width="142" height="20" rx="3" class="btn"/><text x="77" y="171" class="font mini text" text-anchor="middle">&lt; BACK</text>
    <rect x="152" y="158" width="142" height="20" rx="3" class="btnAccent"/><text x="223" y="171" class="font mini accent" text-anchor="middle">SAVE</text>
    <text x="150" y="198" class="font cap">13. EDIT PULSE</text>
  </g>

  <!-- 14 EDIT STEP -->
  <g transform="translate(375,610)" filter="url(#cardShadow)">
    <rect width="300" height="180" rx="5" class="card"/>
    <rect width="300" height="14" class="header"/><text x="8" y="10" class="font miniH accent">EDIT STEP</text>
    <text x="26" y="44" class="font mini dim">ANGLE</text><text x="112" y="46" class="font accent" font-size="15">90</text>
    <text x="26" y="76" class="font mini dim">REPEATS</text><text x="112" y="78" class="font accent" font-size="15">1</text>
    <text x="26" y="108" class="font mini dim">DWELL</text><text x="112" y="110" class="font accent" font-size="15">0.0s</text>
    <circle cx="222" cy="72" r="38" fill="none" stroke="#111111" stroke-width="6"/><path d="M222 34 A38 38 0 0 1 260 72" fill="none" stroke="#FF9500" stroke-width="6"/>
    <rect x="6" y="158" width="142" height="20" rx="3" class="btn"/><text x="77" y="171" class="font mini text" text-anchor="middle">&lt; BACK</text>
    <rect x="152" y="158" width="142" height="20" rx="3" class="btnAccent"/><text x="223" y="171" class="font mini accent" text-anchor="middle">SAVE</text>
    <text x="150" y="198" class="font cap">14. EDIT STEP</text>
  </g>

  <!-- 15 SYSINFO -->
  <g transform="translate(720,610)" filter="url(#cardShadow)">
    <rect width="300" height="180" rx="5" class="card"/>
    <rect width="300" height="14" class="header"/><text x="8" y="10" class="font miniH accent">SYSTEM INFO</text>
    <text x="18" y="38" class="font mini dim">UPTIME</text><text x="112" y="38" class="font mini text">00:12:44</text>
    <text x="18" y="66" class="font mini dim">HEAP</text><rect x="112" y="58" width="150" height="8" rx="3" fill="#111111"/><rect x="112" y="58" width="92" height="8" rx="3" fill="#00C853"/>
    <text x="18" y="94" class="font mini dim">PSRAM</text><rect x="112" y="86" width="150" height="8" rx="3" fill="#111111"/><rect x="112" y="86" width="126" height="8" rx="3" fill="#00C853"/>
    <text x="18" y="122" class="font mini dim">FLASH</text><rect x="112" y="114" width="150" height="8" rx="3" fill="#111111"/><rect x="112" y="114" width="42" height="8" rx="3" fill="#FFD600"/>
    <text x="18" y="150" class="font mini dim">TEMP</text><text x="112" y="150" class="font mini text">42 C</text>
    <text x="150" y="198" class="font cap">15. SYSINFO</text>
  </g>

  <!-- 16 CALIBRATION -->
  <g transform="translate(1065,610)" filter="url(#cardShadow)">
    <rect width="300" height="180" rx="5" class="card"/>
    <rect width="300" height="14" class="header"/><text x="8" y="10" class="font miniH accent">CALIBRATION</text>
    <text x="18" y="42" class="font mini dim">FACTOR</text><text x="118" y="46" class="font accent" font-size="18">1.000</text>
    <rect x="18" y="66" width="264" height="10" rx="3" fill="#111111"/><rect x="18" y="66" width="132" height="10" rx="3" fill="#FF9500"/>
    <text x="18" y="108" class="font mini dim">TEST ANGLE</text><text x="118" y="110" class="font mini text">360 deg</text>
    <text x="18" y="136" class="font mini dim">ERROR</text><text x="118" y="138" class="font mini green">PASS</text>
    <rect x="6" y="158" width="142" height="20" rx="3" class="btn"/><text x="77" y="171" class="font mini text" text-anchor="middle">&lt; BACK</text>
    <rect x="152" y="158" width="142" height="20" rx="3" class="btnAccent"/><text x="223" y="171" class="font mini accent" text-anchor="middle">SAVE</text>
    <text x="150" y="198" class="font cap">16. CALIBRATION</text>
  </g>

  <!-- 17 MOTOR CONFIG -->
  <g transform="translate(30,790)" filter="url(#cardShadow)">
    <rect width="300" height="180" rx="5" class="card"/>
    <rect width="300" height="14" class="header"/><text x="8" y="10" class="font miniH accent">MOTOR CONFIG</text>
    <text x="14" y="36" class="font mini dim">PULSE/REV</text>
    <rect x="86" y="24" width="42" height="20" rx="3" class="btn"/><text x="107" y="37" class="font mini2 text" text-anchor="middle">800</text>
    <rect x="134" y="24" width="42" height="20" rx="3" class="btn"/><text x="155" y="37" class="font mini2 text" text-anchor="middle">1600</text>
    <rect x="182" y="24" width="42" height="20" rx="3" class="btnAccent"/><text x="203" y="37" class="font mini2 accent" text-anchor="middle">3200</text>
    <rect x="230" y="24" width="42" height="20" rx="3" class="btn"/><text x="251" y="37" class="font mini2 text" text-anchor="middle">6400</text>
    <text x="14" y="70" class="font mini dim">ACCEL</text><rect x="86" y="62" width="174" height="6" rx="3" fill="#111111"/><rect x="86" y="62" width="60" height="6" rx="3" fill="#FF9500"/>
    <text x="14" y="100" class="font mini dim">MAX RPM</text><rect x="86" y="92" width="174" height="6" rx="3" fill="#111111"/><rect x="86" y="92" width="174" height="6" rx="3" fill="#FF9500"/>
    <text x="14" y="130" class="font mini dim">DIR SW</text><rect x="86" y="118" width="42" height="20" rx="8" fill="#00C853"/><text x="107" y="132" class="font mini2 text" text-anchor="middle">ON</text>
    <rect x="6" y="158" width="116" height="20" rx="3" class="btn"/><text x="64" y="171" class="font mini text" text-anchor="middle">&lt; BACK</text>
    <rect x="128" y="158" width="166" height="20" rx="3" class="btnAccent"/><text x="211" y="171" class="font mini accent" text-anchor="middle">SAVE &amp; APPLY</text>
    <text x="150" y="198" class="font cap">17. MOTOR CONFIG</text>
  </g>

  <!-- 18 DISPLAY -->
  <g transform="translate(375,790)" filter="url(#cardShadow)">
    <rect width="300" height="180" rx="5" class="card"/>
    <rect width="300" height="14" class="header"/><text x="8" y="10" class="font miniH accent">DISPLAY</text>
    <text x="18" y="42" class="font mini dim">BRIGHTNESS</text><rect x="118" y="34" width="150" height="8" rx="3" fill="#111111"/><rect x="118" y="34" width="92" height="8" rx="3" fill="#FF9500"/>
    <text x="18" y="78" class="font mini dim">ACCENT</text><circle cx="126" cy="74" r="8" fill="#FF9500"/><circle cx="154" cy="74" r="8" fill="#00C853"/><circle cx="182" cy="74" r="8" fill="#00B0FF"/><circle cx="210" cy="74" r="8" fill="#FF1744"/>
    <text x="18" y="114" class="font mini dim">DIM TIMEOUT</text><text x="132" y="114" class="font mini text">60 sec</text>
    <rect x="6" y="158" width="142" height="20" rx="3" class="btn"/><text x="77" y="171" class="font mini text" text-anchor="middle">&lt; BACK</text>
    <rect x="152" y="158" width="142" height="20" rx="3" class="btnAccent"/><text x="223" y="171" class="font mini accent" text-anchor="middle">SAVE</text>
    <text x="150" y="198" class="font cap">18. DISPLAY</text>
  </g>

  <!-- 19 PEDAL SETTINGS -->
  <g transform="translate(720,790)" filter="url(#cardShadow)">
    <rect width="300" height="180" rx="5" class="card"/>
    <rect width="300" height="14" class="header"/><text x="8" y="10" class="font miniH accent">PEDAL SETTINGS</text>
    <text x="18" y="42" class="font mini dim">PEDAL SW</text><rect x="126" y="28" width="54" height="26" rx="10" fill="#00C853"/><text x="153" y="45" class="font mini text" text-anchor="middle">ON</text>
    <text x="18" y="76" class="font mini dim">ADS1115</text><text x="126" y="76" class="font mini green">PRESENT</text>
    <text x="18" y="110" class="font mini dim">ANALOG</text><text x="126" y="110" class="font mini green">ACTIVE</text>
    <rect x="18" y="130" width="246" height="8" rx="3" fill="#111111"/><rect x="18" y="130" width="112" height="8" rx="3" fill="#FF9500"/>
    <rect x="6" y="158" width="142" height="20" rx="3" class="btn"/><text x="77" y="171" class="font mini text" text-anchor="middle">&lt; BACK</text>
    <text x="150" y="198" class="font cap">19. PEDAL SETTINGS</text>
  </g>

  <!-- 20 DIAGNOSTICS -->
  <g transform="translate(1065,790)" filter="url(#cardShadow)">
    <rect width="300" height="180" rx="5" class="card"/>
    <rect width="300" height="14" class="header"/><text x="8" y="10" class="font miniH accent">DIAGNOSTICS</text>
    <text x="16" y="34" class="font mini dim">STATE</text><text x="100" y="34" class="font mini green">IDLE</text>
    <text x="16" y="54" class="font mini dim">FAULT</text><text x="100" y="54" class="font mini green">NONE</text>
    <text x="16" y="74" class="font mini dim">INHIBIT</text><text x="100" y="74" class="font mini green">NO</text>
    <text x="16" y="100" class="font mini dim">GPIO34 ESTOP</text><text x="174" y="100" class="font mini green">HIGH OK</text>
    <text x="16" y="120" class="font mini dim">GPIO32 ALM</text><text x="174" y="120" class="font mini green">HIGH OK</text>
    <rect x="14" y="138" width="272" height="28" rx="4" fill="#050505" stroke="#252525"/>
    <text x="22" y="154" class="mono mini2 vdim">00:12 STATE IDLE&gt;RUNNING</text>
    <text x="150" y="198" class="font cap">20. DIAGNOSTICS</text>
  </g>

  <!-- 21 ABOUT -->
  <g transform="translate(30,970)" filter="url(#cardShadow)">
    <rect width="300" height="180" rx="5" class="card"/>
    <rect width="300" height="14" class="header"/><text x="8" y="10" class="font miniH accent">ABOUT</text>
    <text x="150" y="52" class="font accent" font-size="20" font-weight="800" text-anchor="middle">TIG ROTATOR</text>
    <text x="150" y="78" class="font mini dim" text-anchor="middle">ESP32-P4 welding positioner</text>
    <text x="150" y="102" class="font mini dim" text-anchor="middle">LVGL 9.5 / FastAccelStepper</text>
    <text x="150" y="126" class="font mini dim" text-anchor="middle">DM542T + NEMA 23 + 108:1</text>
    <rect x="82" y="150" width="136" height="22" rx="3" class="btn"/><text x="150" y="164" class="font mini text" text-anchor="middle">&lt; BACK</text>
    <text x="150" y="198" class="font cap">21. ABOUT</text>
  </g>

  <g transform="translate(375,970)">
    <rect width="990" height="180" rx="5" fill="#080808" stroke="#252525"/>
    <text x="24" y="34" class="font accent" font-size="16" font-weight="800">UI logic notes</text>
    <text x="24" y="62" class="font text" font-size="12">Main screen RPM is pot-driven only; touchscreen +/- RPM controls live on jog, pulse, step, timer and program edit screens.</text>
    <text x="24" y="86" class="font text" font-size="12">START, STOP, JOG, PULSE, STEP and TIMER requests route through controlTask mailbox before motor functions run on Core 0.</text>
    <text x="24" y="110" class="font text" font-size="12">Timer stores countdown on start/back, then switches to main after countdown and continuous start request.</text>
    <text x="24" y="134" class="font text" font-size="12">Motor config save is blocked unless state is IDLE, then settings are applied by motorTask.</text>
    <text x="24" y="158" class="font dim" font-size="11">Generated from current src/ui/screen structure; dimensions retain 800x480 landscape proportions.</text>
  </g>
</svg>
