<svg xmlns="http://www.w3.org/2000/svg" viewBox="0 0 1400 900" width="1400" height="900">
  <defs>
    <style>
      .bg { fill: #0A0A0A; }
      .box { fill: #121212; stroke: #333; stroke-width: 2; rx: 10; }
      .box-esp { fill: #0c1a1c; stroke: #00E5FF; stroke-width: 2; rx: 10; }
      .box-tb { fill: #1a0c0c; stroke: #FF9100; stroke-width: 2; rx: 10; }
      .box-motor { fill: #0c1a12; stroke: #1DE9B6; stroke-width: 2; rx: 10; }
      .box-psu { fill: #1a1a0c; stroke: #FFD600; stroke-width: 2; rx: 10; }
      .wire-sig { stroke: #00E5FF; stroke-width: 2.5; fill: none; }
      .wire-pwr { stroke: #FF1744; stroke-width: 3; fill: none; stroke-dasharray: 8,4; }
      .wire-gnd { stroke: #555; stroke-width: 2.5; fill: none; }
      .wire-motor { stroke: #1DE9B6; stroke-width: 3; fill: none; }
      .wire-estop { stroke: #FF1744; stroke-width: 2.5; fill: none; }
      .wire-pot { stroke: #D500F9; stroke-width: 2; fill: none; }
      .t-main { fill: #FFF; font-family: sans-serif; font-weight: bold; }
      .t-dim { fill: #888; font-family: sans-serif; }
      .t-cyan { fill: #00E5FF; font-family: sans-serif; }
      .t-amber { fill: #FF9100; font-family: sans-serif; }
      .t-teal { fill: #1DE9B6; font-family: sans-serif; }
      .t-red { fill: #FF1744; font-family: sans-serif; }
      .t-yellow { fill: #FFD600; font-family: sans-serif; }
      .t-purple { fill: #D500F9; font-family: sans-serif; }
      .pin { fill: #222; stroke: #555; stroke-width: 1; }
      .pin-label { fill: #CCC; font-family: monospace; font-size: 13px; }
      .header-pin { fill: #111; stroke: #444; stroke-width: 1; }
      .header-bg { fill: #050505; stroke: #333; stroke-width: 1; rx: 3; }
      .label-gnd { fill: #555; font-size: 11px; font-family: monospace; font-weight: bold; }
      .label-3v3 { fill: #FF1744; font-size: 11px; font-family: monospace; font-weight: bold; }
      .label-gpio { fill: #8BC34A; font-size: 11px; font-family: monospace; font-weight: bold; }
    </style>
  </defs>

  <!-- Background -->
  <rect width="1400" height="900" class="bg"/>

  <!-- Title -->
  <text x="700" y="30" class="t-main" font-size="28" text-anchor="middle">TIG Rotator — Wiring Diagram</text>
  <text x="700" y="55" class="t-dim" font-size="14" text-anchor="middle">ESP32-P4 · TB6600 Stepper Driver · NEMA 23 · 24V DC</text>

  <!-- ══════════════════════════════════════════════════════════════════ -->
  <!-- ESP32-P4 BOARD                                                    -->
  <!-- ══════════════════════════════════════════════════════════════════ -->
  <g transform="translate(140, 100)">
    <!-- Board Outline -->
    <rect width="360" height="490" class="box-esp" rx="10"/>
    <text x="180" y="32" class="t-cyan" font-size="22" text-anchor="middle" font-weight="bold">ESP32-P4 (Back View)</text>
    <text x="180" y="55" class="t-dim" font-size="14" text-anchor="middle">Waveshare/Guition 4.3" Board</text>

    <!-- USB-C label -->
    <rect x="145" y="480" width="70" height="5" rx="2" fill="#555"/>
    <text x="180" y="470" class="t-dim" font-size="13" text-anchor="middle">USB-C</text>

    <!-- 2x13 Header Block -->
    <rect x="90" y="80" width="140" height="375" class="header-bg"/>
    <text x="160" y="70" class="t-dim" font-size="14" text-anchor="middle" font-weight="bold">2x13 HEADER</text>

    <!-- PIN ROWS -->
    <!-- Row 1 (Y=100) -->
    <rect x="100" y="100" width="12" height="12" class="header-pin"/>
    <text x="118" y="110" class="label-3v3" text-anchor="start">3V3</text>
    <text x="202" y="110" class="label-3v3" text-anchor="end">5V</text>
    <rect x="208" y="100" width="12" height="12" class="header-pin"/>

    <!-- Row 2 (Y=126) -->
    <rect x="100" y="126" width="12" height="12" class="header-pin"/>
    <text x="118" y="136" class="label-3v3" text-anchor="start">3V3</text>
    <text x="202" y="136" class="label-3v3" text-anchor="end">5V</text>
    <rect x="208" y="126" width="12" height="12" class="header-pin"/>

    <!-- Row 3 (Y=152) -->
    <rect x="100" y="152" width="12" height="12" class="header-pin" fill="#555"/>
    <text x="118" y="162" class="label-gnd" text-anchor="start">GND</text>
    <text x="202" y="162" class="label-gnd" text-anchor="end">GND</text>
    <rect x="208" y="152" width="12" height="12" class="header-pin" fill="#555"/>

    <!-- Row 4 (Y=178) GPIO33 ENA / GPIO52 unused -->
    <rect x="100" y="178" width="12" height="12" class="header-pin"/>
    <text x="118" y="188" class="label-gpio" text-anchor="start">GPIO52</text>
    <text x="202" y="188" class="label-gpio" text-anchor="end">GPIO33</text>
    <rect x="208" y="178" width="12" height="12" class="header-pin"/>

    <!-- Row 5 (Y=204) GPIO31 DIR -->
    <rect x="100" y="204" width="12" height="12" class="header-pin"/>
    <text x="118" y="214" class="label-gpio" text-anchor="start">GPIO51</text>
    <text x="202" y="214" class="label-gpio" text-anchor="end">GPIO31</text>
    <rect x="208" y="204" width="12" height="12" class="header-pin"/>

    <!-- Row 6 (Y=230) GPIO30 STEP -->
    <rect x="100" y="230" width="12" height="12" class="header-pin"/>
    <text x="118" y="240" class="label-gpio" text-anchor="start">GPIO50</text>
    <text x="202" y="240" class="label-gpio" text-anchor="end">GPIO30</text>
    <rect x="208" y="230" width="12" height="12" class="header-pin"/>

    <!-- Row 7 (Y=256) GPIO49 POT -->
    <rect x="100" y="256" width="12" height="12" class="header-pin"/>
    <text x="118" y="266" class="label-gpio" text-anchor="start">GPIO49</text>
    <text x="202" y="266" class="label-gpio" text-anchor="end">GPIO29</text>
    <rect x="208" y="256" width="12" height="12" class="header-pin"/>

    <!-- Row 8 (Y=282) GND -->
    <rect x="100" y="282" width="12" height="12" class="header-pin"/>
    <text x="118" y="292" class="label-gpio" text-anchor="start">GPIO35</text>
    <text x="202" y="292" class="label-gnd" text-anchor="end">GND</text>
    <rect x="208" y="282" width="12" height="12" class="header-pin" fill="#555"/>

    <!-- Row 9 (Y=308) GPIO34 E-STOP -->
    <rect x="100" y="308" width="12" height="12" class="header-pin"/>
    <text x="118" y="318" class="label-gpio" text-anchor="start">GPIO34</text>
    <text x="202" y="318" class="t-dim" font-size="11" text-anchor="end">ESP_3V3</text>
    <rect x="208" y="308" width="12" height="12" class="header-pin"/>

    <!-- Row 10 (Y=334) -->
    <rect x="100" y="334" width="12" height="12" class="header-pin"/>
    <text x="118" y="344" class="t-dim" font-size="11" text-anchor="start">GPIO32</text>
    <text x="202" y="344" class="t-dim" font-size="11" text-anchor="end">C6_RX</text>
    <rect x="208" y="334" width="12" height="12" class="header-pin"/>

    <!-- Row 11 (Y=360) -->
    <rect x="100" y="360" width="12" height="12" class="header-pin"/>
    <text x="118" y="370" class="t-dim" font-size="11" text-anchor="start">GPIO28</text>
    <text x="202" y="370" class="t-dim" font-size="11" text-anchor="end">C6_TX</text>
    <rect x="208" y="360" width="12" height="12" class="header-pin"/>

    <!-- Row 12 (Y=386) -->
    <rect x="100" y="386" width="12" height="12" class="header-pin"/>
    <text x="118" y="396" class="t-dim" font-size="11" text-anchor="start">I2C_SDA</text>
    <text x="202" y="396" class="t-dim" font-size="11" text-anchor="end">C6_IO9</text>
    <rect x="208" y="386" width="12" height="12" class="header-pin"/>

    <!-- Row 13 (Y=412) -->
    <rect x="100" y="412" width="12" height="12" class="header-pin"/>
    <text x="118" y="422" class="t-dim" font-size="11" text-anchor="start">I2C_SCL</text>
    <text x="202" y="422" class="t-dim" font-size="11" text-anchor="end">C6_EN</text>
    <rect x="208" y="412" width="12" height="12" class="header-pin"/>

  </g>

  <!-- Left Pin Function Annotations -->
  <text x="115" y="376" class="t-purple" font-size="15" text-anchor="end" font-weight="bold">POT</text>
  <text x="115" y="428" class="t-red" font-size="15" text-anchor="end" font-weight="bold">E-STOP</text>

  <!-- Right Pin Function Annotations -->
  <text x="520" y="288" class="t-cyan" font-size="15" text-anchor="start" font-weight="bold">ENA</text>
  <text x="520" y="314" class="t-cyan" font-size="15" text-anchor="start" font-weight="bold">DIR</text>
  <text x="520" y="340" class="t-cyan" font-size="15" text-anchor="start" font-weight="bold">STEP</text>


  <!-- ══════════════════════════════════════════════════════════════════ -->
  <!-- TB6600 STEPPER DRIVER                                             -->
  <!-- ══════════════════════════════════════════════════════════════════ -->
  <g transform="translate(600, 180)">
    <rect width="180" height="380" class="box-tb" rx="10"/>
    <text x="90" y="32" class="t-amber" font-size="20" text-anchor="middle" font-weight="bold">TB6600</text>
    <text x="90" y="50" class="t-dim" font-size="13" text-anchor="middle">Stepper Driver</text>

    <!-- Single 12-pin block output (right side) -->
    <rect x="160" y="65" width="20" height="14" class="pin" rx="2" fill="#2E7D32"/>
    <text x="155" y="77" class="pin-label" text-anchor="end">ENA-</text>

    <rect x="160" y="89" width="20" height="14" class="pin" rx="2" fill="#2E7D32"/>
    <text x="155" y="101" class="pin-label" text-anchor="end">ENA+</text>

    <rect x="160" y="113" width="20" height="14" class="pin" rx="2" fill="#2E7D32"/>
    <text x="155" y="125" class="pin-label" text-anchor="end">DIR-</text>

    <rect x="160" y="137" width="20" height="14" class="pin" rx="2" fill="#2E7D32"/>
    <text x="155" y="149" class="pin-label" text-anchor="end">DIR+</text>

    <rect x="160" y="161" width="20" height="14" class="pin" rx="2" fill="#2E7D32"/>
    <text x="155" y="173" class="pin-label" text-anchor="end">PUL-</text>

    <rect x="160" y="185" width="20" height="14" class="pin" rx="2" fill="#2E7D32"/>
    <text x="155" y="197" class="pin-label" text-anchor="end">PUL+</text>

    <rect x="160" y="215" width="20" height="14" class="pin" rx="2" fill="#2E7D32"/>
    <text x="155" y="227" class="pin-label" text-anchor="end">B-</text>

    <rect x="160" y="239" width="20" height="14" class="pin" rx="2" fill="#2E7D32"/>
    <text x="155" y="251" class="pin-label" text-anchor="end">B+</text>

    <rect x="160" y="263" width="20" height="14" class="pin" rx="2" fill="#2E7D32"/>
    <text x="155" y="275" class="pin-label" text-anchor="end">A-</text>

    <rect x="160" y="287" width="20" height="14" class="pin" rx="2" fill="#2E7D32"/>
    <text x="155" y="299" class="pin-label" text-anchor="end">A+</text>

    <rect x="160" y="316" width="20" height="14" class="pin" rx="2" fill="#2E7D32"/>
    <text x="155" y="328" class="pin-label" text-anchor="end">GND</text>

    <rect x="160" y="340" width="20" height="14" class="pin" rx="2" fill="#2E7D32"/>
    <text x="155" y="352" class="pin-label" text-anchor="end">VCC</text>

    <!-- Side Brackets Text -->
    <path d="M 190 70 L 195 70 L 195 194 L 190 194" fill="none" stroke="#FF9100" stroke-width="1"/>
    <text x="207" y="132" class="t-amber" font-size="12" transform="rotate(90, 207, 132)" text-anchor="middle">Signal</text>

    <path d="M 190 220 L 195 220 L 195 296 L 190 296" fill="none" stroke="#FF9100" stroke-width="1"/>
    <text x="207" y="258" class="t-amber" font-size="12" transform="rotate(90, 207, 258)" text-anchor="middle">Motor</text>

    <path d="M 190 321 L 195 321 L 195 349 L 190 349" fill="none" stroke="#FF9100" stroke-width="1"/>
    <text x="207" y="335" class="t-amber" font-size="12" transform="rotate(90, 207, 335)" text-anchor="middle">PWR</text>

    <!-- DIP Switch label -->
    <rect x="25" y="150" width="80" height="50" rx="4" fill="#0a0a0a" stroke="#555" stroke-width="1"/>
    <text x="65" y="165" class="t-dim" font-size="10" text-anchor="middle">DIP SWITCH</text>
    <text x="65" y="177" class="t-amber" font-size="12" text-anchor="middle" font-weight="bold">1/8 (1600)</text>
    <text x="65" y="190" class="t-dim" font-size="10" text-anchor="middle">3.0A peak</text>

    <rect x="15" y="205" width="100" height="15" rx="2" fill="#1a0a0a" stroke="#FF9100" stroke-width="1"/>
    <text x="65" y="215" class="t-dim" font-size="9" text-anchor="middle">1-6: OFF OFF ON OFF ON OFF</text>
  </g>

  <!-- ══════════════════════════════════════════════════════════════════ -->
  <!-- NEMA 23 STEPPER MOTOR                                             -->
  <!-- ══════════════════════════════════════════════════════════════════ -->
  <g transform="translate(1000, 320)">
    <rect width="220" height="260" class="box-motor" rx="10"/>
    <text x="110" y="30" class="t-teal" font-size="20" text-anchor="middle" font-weight="bold">NEMA 23</text>
    <text x="110" y="48" class="t-dim" font-size="13" text-anchor="middle">3.0 Nm Stepper Motor</text>

    <!-- Motor icon -->
    <circle cx="110" cy="130" r="50" fill="none" stroke="#1DE9B6" stroke-width="2"/>
    <circle cx="110" cy="130" r="10" fill="#1DE9B6"/>
    <text x="110" y="210" class="t-dim" font-size="13" text-anchor="middle">200 steps/rev</text>
    <text x="110" y="230" class="t-dim" font-size="13" text-anchor="middle">4-wire bipolar</text>

    <!-- Coil labels (4 discrete pins) -->
    <rect x="0" y="83" width="20" height="14" class="pin" rx="2"/>
    <text x="-8" y="95" class="pin-label" text-anchor="end">A+</text>

    <rect x="0" y="123" width="20" height="14" class="pin" rx="2"/>
    <text x="-8" y="135" class="pin-label" text-anchor="end">A-</text>

    <rect x="0" y="163" width="20" height="14" class="pin" rx="2"/>
    <text x="-8" y="175" class="pin-label" text-anchor="end">B+</text>

    <rect x="0" y="203" width="20" height="14" class="pin" rx="2"/>
    <text x="-8" y="215" class="pin-label" text-anchor="end">B-</text>
  </g>

  <!-- ══════════════════════════════════════════════════════════════════ -->
  <!-- 24V PSU                                                           -->
  <!-- ══════════════════════════════════════════════════════════════════ -->
  <g transform="translate(1000, 80)">
    <rect width="200" height="110" class="box-psu" rx="10"/>
    <text x="100" y="28" class="t-yellow" font-size="18" text-anchor="middle" font-weight="bold">24V DC PSU</text>
    <text x="100" y="48" class="t-dim" font-size="13" text-anchor="middle">100W+ (4.5A min)</text>

    <!-- Terminals -->
    <text x="45" y="80" class="t-red" font-size="15" text-anchor="middle" font-weight="bold">V+</text>
    <text x="45" y="95" class="t-dim" font-size="11" text-anchor="middle">24V</text>

    <text x="155" y="80" class="t-dim" font-size="15" text-anchor="middle" font-weight="bold">V-</text>
    <text x="155" y="95" class="t-dim" font-size="11" text-anchor="middle">GND</text>
  </g>

  <!-- ══════════════════════════════════════════════════════════════════ -->
  <!-- E-STOP BUTTON                                                     -->
  <!-- ══════════════════════════════════════════════════════════════════ -->
  <g transform="translate(80, 660)">
    <rect width="140" height="120" rx="10" fill="#1a0a0a" stroke="#FF1744" stroke-width="2"/>
    <text x="70" y="28" class="t-red" font-size="18" text-anchor="middle" font-weight="bold">E-STOP</text>
    <text x="70" y="48" class="t-dim" font-size="11" text-anchor="middle">NC (Normally Closed)</text>

    <!-- E-stop icon -->
    <circle cx="70" cy="78" r="24" fill="#FF1744" fill-opacity="0.3" stroke="#FF1744" stroke-width="2"/>
    <text x="70" y="85" class="t-red" font-size="20" text-anchor="middle" font-weight="bold">⏻</text>

    <!-- terminals -->
    <circle cx="45" cy="5" r="3" fill="#FF1744"/>
    <circle cx="95" cy="5" r="3" fill="#555"/>
  </g>

  <!-- ══════════════════════════════════════════════════════════════════ -->
  <!-- POTENTIOMETER                                                     -->
  <!-- ══════════════════════════════════════════════════════════════════ -->
  <g transform="translate(260, 680)">
    <rect width="160" height="60" rx="6" fill="#121212" stroke="#D500F9" stroke-width="1"/>
    <text x="80" y="22" class="t-purple" font-size="14" text-anchor="middle" font-weight="bold">10k POT</text>
    <text x="80" y="38" class="t-dim" font-size="11" text-anchor="middle">(Speed Control)</text>
    <!-- terminals -->
    <circle cx="30" cy="0" r="3" fill="#FF1744"/>
    <circle cx="80" cy="0" r="3" fill="#D500F9"/>
    <circle cx="130" cy="0" r="3" fill="#555"/>
  </g>

  <!-- ══════════════════════════════════════════════════════════════════ -->
  <!-- WIRES: ESP32 → POT & E-STOP                                       -->
  <!-- ══════════════════════════════════════════════════════════════════ -->
  <!-- POT 3V3 (absolute: X=290, Y=680) → ESP 3V3 (Left Row 1, absolute: X=246, Y=206) -->
  <path d="M 290 680 L 290 640 L 110 640 L 110 206 L 246 206" class="wire-pwr"/>

  <!-- POT Wiper (absolute: X=340, Y=680) → ESP GPIO49 (Left Row 7, absolute: X=246, Y=362) -->
  <path d="M 340 680 L 340 620 L 120 620 L 120 362 L 246 362" class="wire-pot"/>

  <!-- E-STOP SIG (absolute: X=125, Y=665) → ESP GPIO34 (Left Row 9, absolute: X=246, Y=414) -->
  <path d="M 125 665 L 125 630 L 140 630 L 140 414 L 246 414" class="wire-estop"/>

  <!-- E-STOP GND (absolute: X=175, Y=665) → ESP GND (Right Row 8, absolute: X=354, Y=388) -->
  <path d="M 175 665 L 175 600 L 480 600 L 480 388 L 354 388" class="wire-gnd"/>

  <!-- POT GND (absolute: X=390, Y=680) → branches into E-STOP GND array -->
  <path d="M 390 680 L 390 600 L 480 600" class="wire-gnd"/>

  <!-- ══════════════════════════════════════════════════════════════════ -->
  <!-- WIRES: ESP32 → TB6600 (Signal)                                    -->
  <!-- ══════════════════════════════════════════════════════════════════ -->
  <!-- ESP GND (Left Row 3, abs: 246, 258) → ENA- (760, 245), DIR- (293), PUL- (341) -->
  <path d="M 246 258 L 90 258 L 90 100 L 780 100 L 780 245 L 760 245" class="wire-gnd"/>
  <path d="M 780 245 L 780 293 L 760 293" class="wire-gnd"/>
  <path d="M 780 293 L 780 341 L 760 341" class="wire-gnd"/>

  <!-- GPIO33 (ENA, right row 4, abs: 354, 284) → ENA+ (760, 269) -->
  <path d="M 354 284 L 500 284 L 500 80 L 800 80 L 800 269 L 760 269" class="wire-sig"/>

  <!-- GPIO31 (DIR, right row 5, abs: 354, 310) → DIR+ (760, 317) -->
  <path d="M 354 310 L 510 310 L 510 60 L 820 60 L 820 317 L 760 317" class="wire-sig"/>

  <!-- GPIO30 (STEP, right row 6, abs: 354, 336) → PUL+ (760, 365) -->
  <path d="M 354 336 L 520 336 L 520 40 L 840 40 L 840 365 L 760 365" class="wire-sig"/>

  <!-- ══════════════════════════════════════════════════════════════════ -->
  <!-- WIRES: TB6600 → Motor (4-wire cascade)                            -->
  <!-- ══════════════════════════════════════════════════════════════════ -->
  <!-- TB Coil B- (760, 395) to Motor B- (1000, 530) | BLUE -->
  <path d="M 760 395 L 840 395 L 840 530 L 1000 530" class="wire-motor" stroke="#2196F3"/>
  <text x="910" y="525" fill="#2196F3" font-size="12" font-weight="bold">BLUE</text>

  <!-- TB Coil B+ (760, 419) to Motor B+ (1000, 490) | RED -->
  <path d="M 760 419 L 860 419 L 860 490 L 1000 490" class="wire-motor" stroke="#F44336"/>
  <text x="910" y="485" fill="#F44336" font-size="12" font-weight="bold">RED</text>

  <!-- TB Coil A- (760, 443) to Motor A- (1000, 450) | GREEN -->
  <path d="M 760 443 L 880 443 L 880 450 L 1000 450" class="wire-motor" stroke="#4CAF50"/>
  <text x="910" y="445" fill="#4CAF50" font-size="12" font-weight="bold">GREEN</text>

  <!-- TB Coil A+ (760, 467) to Motor A+ (1000, 410) | BLACK -->
  <path d="M 760 467 L 900 467 L 900 410 L 1000 410" class="wire-motor" stroke="#000000"/>
  <text x="910" y="405" fill="#000000" font-size="12" font-weight="bold">BLACK</text>

  <!-- Motor → Gear -->
  <g transform="translate(1000, 620)">
    <rect width="220" height="70" rx="8" fill="#121212" stroke="#555" stroke-width="1"/>
    <text x="110" y="25" class="t-dim" font-size="14" text-anchor="middle" font-weight="bold">1:108 GEAR REDUCTION</text>
    <text x="110" y="45" class="t-dim" font-size="12" text-anchor="middle">→ Welding Table</text>
    <text x="110" y="60" class="t-dim" font-size="11" text-anchor="middle">0.1 – 5.0 RPM output</text>
  </g>
  <path d="M 1110 580 L 1110 620" class="wire-motor" stroke-dasharray="6,3"/>

  <!-- ══════════════════════════════════════════════════════════════════ -->
  <!-- WIRES: PSU → TB6600                                               -->
  <!-- ══════════════════════════════════════════════════════════════════ -->
  <!-- PSU V+ (1045, 175) to TB6600 VCC (760, 520) -->
  <path d="M 1045 175 L 1045 250 L 950 250 L 950 520 L 760 520" class="wire-pwr"/>
  <text x="770" y="515" class="t-red" font-size="11">24V+</text>

  <!-- PSU GND (1155, 175) to TB6600 GND (760, 496) -->
  <path d="M 1155 175 L 1155 230 L 970 230 L 970 496 L 760 496" class="wire-gnd"/>
  <text x="770" y="490" class="t-dim" font-size="11">PWR GND</text>

  <!-- ══════════════════════════════════════════════════════════════════ -->
  <!-- LEGEND                                                            -->
  <!-- ══════════════════════════════════════════════════════════════════ -->
  <g transform="translate(500, 720)">
    <rect width="420" height="140" rx="8" fill="#0A0A0A" stroke="#333" stroke-width="1"/>
    <text x="210" y="28" class="t-dim" font-size="15" text-anchor="middle" font-weight="bold">WIRE LEGEND</text>

    <line x1="25" y1="50" x2="75" y2="50" stroke="#00E5FF" stroke-width="2.5"/>
    <text x="85" y="55" class="t-dim" font-size="14">Signal (3.3V logic: STEP / DIR / ENA)</text>

    <line x1="25" y1="72" x2="75" y2="72" stroke="#FF1744" stroke-width="3" stroke-dasharray="8,4"/>
    <text x="85" y="77" class="t-dim" font-size="14">Power (24V DC / 3.3V POT)</text>

    <line x1="25" y1="94" x2="75" y2="94" stroke="#555" stroke-width="2.5"/>
    <text x="85" y="99" class="t-dim" font-size="14">Ground (GND)</text>

    <line x1="25" y1="116" x2="45" y2="116" stroke="#2196F3" stroke-width="3"/>
    <line x1="45" y1="116" x2="65" y2="116" stroke="#F44336" stroke-width="3"/>
    <text x="85" y="121" class="t-dim" font-size="14">Motor coils (A+/A-  B+/B-)</text>
  </g>

  <!-- ══════════════════════════════════════════════════════════════════ -->
  <!-- PIN REFERENCE                                                     -->
  <!-- ══════════════════════════════════════════════════════════════════ -->
  <g transform="translate(80, 100)">
    <text x="0" y="0" class="t-dim" font-size="13" font-weight="bold">PIN REFERENCE:</text>
    <text x="0" y="25" class="t-cyan" font-size="12">• GPIO33 → TB6600 ENA+ (Right, Row 4)</text>
    <text x="0" y="45" class="t-cyan" font-size="12">• GPIO31 → TB6600 DIR+ (Right, Row 5)</text>
    <text x="0" y="65" class="t-cyan" font-size="12">• GPIO30 → TB6600 PUL+ (Right, Row 6)</text>
    <text x="0" y="85" class="t-purple" font-size="12">• GPIO49 → POT Wiper  (Left, Row 7)</text>
    <text x="0" y="105" class="t-red" font-size="12">• GPIO34 → E-STOP     (Left, Row 9)</text>
  </g>

</svg>
