<svg xmlns="http://www.w3.org/2000/svg" viewBox="0 0 1400 900" width="1400" height="900">
  <defs>
    <style>
      .bg { fill: #0A0A0A; }
      .box { fill: #121212; stroke: #333; stroke-width: 2; rx: 10; }
      .box-esp { fill: #0c1a1c; stroke: #00E5FF; stroke-width: 2; rx: 10; }
      .box-tb { fill: #1a0c0c; stroke: #FF9100; stroke-width: 2; rx: 10; }
      .box-motor { fill: #0c1a12; stroke: #1DE9B6; stroke-width: 2; rx: 10; }
      .box-psu { fill: #1a1a0c; stroke: #FFD600; stroke-width: 2; rx: 10; }
      .wire-sig { stroke: #00E5FF; stroke-width: 2.5; fill: none; }
      .wire-pwr { stroke: #FF1744; stroke-width: 3; fill: none; stroke-dasharray: 8,4; }
      .wire-gnd { stroke: #555; stroke-width: 2.5; fill: none; }
      .wire-motor { stroke: #1DE9B6; stroke-width: 3; fill: none; }
      .wire-estop { stroke: #FF1744; stroke-width: 2.5; fill: none; }
      .wire-pot { stroke: #D500F9; stroke-width: 2; fill: none; }
      .t-main { fill: #FFF; font-family: sans-serif; font-weight: bold; }
      .t-dim { fill: #888; font-family: sans-serif; }
      .t-cyan { fill: #00E5FF; font-family: sans-serif; }
      .t-amber { fill: #FF9100; font-family: sans-serif; }
      .t-teal { fill: #1DE9B6; font-family: sans-serif; }
      .t-red { fill: #FF1744; font-family: sans-serif; }
      .t-yellow { fill: #FFD600; font-family: sans-serif; }
      .t-purple { fill: #D500F9; font-family: sans-serif; }
      .pin { fill: #222; stroke: #555; stroke-width: 1; }
      .pin-label { fill: #CCC; font-family: monospace; font-size: 11px; }
      .header-pin { fill: #111; stroke: #444; stroke-width: 1; }
      .header-bg { fill: #050505; stroke: #333; stroke-width: 1; rx: 3; }
      .label-gnd { fill: #555; font-size: 9px; font-family: monospace; font-weight: bold; }
      .label-3v3 { fill: #FF1744; font-size: 9px; font-family: monospace; font-weight: bold; }
      .label-gpio { fill: #8BC34A; font-size: 9px; font-family: monospace; font-weight: bold; }
    </style>
    <marker id="arrowCyan" markerWidth="8" markerHeight="6" refX="8" refY="3" orient="auto">
      <path d="M0,0 L8,3 L0,6 Z" fill="#00E5FF"/>
    </marker>
    <marker id="arrowGnd" markerWidth="8" markerHeight="6" refX="8" refY="3" orient="auto">
      <path d="M0,0 L8,3 L0,6 Z" fill="#555"/>
    </marker>
    <marker id="arrowMotor" markerWidth="8" markerHeight="6" refX="8" refY="3" orient="auto">
      <path d="M0,0 L8,3 L0,6 Z" fill="#1DE9B6"/>
    </marker>
    <marker id="arrowPwr" markerWidth="8" markerHeight="6" refX="8" refY="3" orient="auto">
      <path d="M0,0 L8,3 L0,6 Z" fill="#FF1744"/>
    </marker>
  </defs>

  <!-- Background -->
  <rect width="1400" height="900" class="bg"/>

  <!-- Title -->
  <text x="700" y="30" class="t-main" font-size="24" text-anchor="middle">DIY Welding Positioner — Wiring Diagram</text>
  <text x="700" y="55" class="t-dim" font-size="14" text-anchor="middle">ESP32-P4 · TB6600 Stepper Driver · NEMA 23 · 24V DC</text>

  <!-- ══════════════════════════════════════════════════════════════════ -->
  <!-- ESP32-P4 BOARD                                                    -->
  <!-- ══════════════════════════════════════════════════════════════════ -->
  <g transform="translate(80, 100)">
    <!-- Board Outline -->
    <rect width="280" height="460" class="box-esp" rx="10"/>
    <text x="140" y="28" class="t-cyan" font-size="18" text-anchor="middle" font-weight="bold">ESP32-P4 (Back View)</text>
    <text x="140" y="50" class="t-dim" font-size="12" text-anchor="middle">Waveshare/Guition 4.3" Board</text>

    <!-- USB-C label -->
    <rect x="105" y="455" width="70" height="5" rx="2" fill="#555"/>
    <text x="140" y="445" class="t-dim" font-size="11" text-anchor="middle">USB-C</text>

    <!-- 2x13 Header Block -->
    <rect x="110" y="80" width="60" height="280" class="header-bg"/>
    <text x="140" y="70" class="t-dim" font-size="11" text-anchor="middle" font-weight="bold">2x13 HEADER</text>

    <!-- Header Pins & Labels -->
    <text x="100" y="98" class="label-3v3" text-anchor="end">3V3</text>
    <rect x="120" y="90" width="10" height="10" class="header-pin"/>
    <rect x="150" y="90" width="10" height="10" class="header-pin"/>
    <text x="180" y="98" class="label-3v3" text-anchor="start">5V</text>

    <text x="100" y="118" class="label-3v3" text-anchor="end">3V3</text>
    <rect x="120" y="110" width="10" height="10" class="header-pin"/>
    <rect x="150" y="110" width="10" height="10" class="header-pin"/>
    <text x="180" y="118" class="label-3v3" text-anchor="start">5V</text>

    <text x="100" y="138" class="label-gnd" text-anchor="end">GND</text>
    <rect x="120" y="130" width="10" height="10" class="header-pin" fill="#555"/>
    <rect x="150" y="130" width="10" height="10" class="header-pin" fill="#555"/>
    <text x="180" y="138" class="label-gnd" text-anchor="start">GND</text>

    <text x="100" y="158" class="label-gpio" text-anchor="end">GPIO52</text>
    <rect x="120" y="150" width="10" height="10" class="header-pin"/>
    <rect x="150" y="150" width="10" height="10" class="header-pin"/>
    <text x="180" y="158" class="label-gpio" text-anchor="start">GPIO33</text>
    
    <text x="100" y="178" class="label-gpio" text-anchor="end">GPIO51</text>
    <rect x="120" y="170" width="10" height="10" class="header-pin"/>
    <rect x="150" y="170" width="10" height="10" class="header-pin"/>
    <text x="180" y="178" class="label-gpio" text-anchor="start">GPIO31</text>

    <text x="100" y="198" class="label-gpio" text-anchor="end">GPIO50</text>
    <rect x="120" y="190" width="10" height="10" class="header-pin"/>
    <rect x="150" y="190" width="10" height="10" class="header-pin"/>
    <text x="180" y="198" class="label-gpio" text-anchor="start">GPIO30</text>

    <text x="100" y="218" class="label-gpio" text-anchor="end">GPIO49</text>
    <rect x="120" y="210" width="10" height="10" class="header-pin"/>
    <rect x="150" y="210" width="10" height="10" class="header-pin"/>
    <text x="180" y="218" class="label-gpio" text-anchor="start">GPIO29</text>

    <text x="100" y="238" class="label-gpio" text-anchor="end">GPIO35</text>
    <rect x="120" y="230" width="10" height="10" class="header-pin"/>
    <rect x="150" y="230" width="10" height="10" class="header-pin" fill="#555"/>
    <text x="180" y="238" class="label-gnd" text-anchor="start">GND</text>

    <text x="100" y="258" class="t-dim" font-size="10" text-anchor="end">GPIO34</text>
    <rect x="120" y="250" width="10" height="10" class="header-pin"/>
    <rect x="150" y="250" width="10" height="10" class="header-pin"/>
    <text x="180" y="258" class="t-dim" font-size="10" text-anchor="start">ESP_3V3</text>

    <text x="100" y="278" class="t-dim" font-size="10" text-anchor="end">GPIO32</text>
    <rect x="120" y="270" width="10" height="10" class="header-pin"/>
    <rect x="150" y="270" width="10" height="10" class="header-pin"/>
    <text x="180" y="278" class="t-dim" font-size="10" text-anchor="start">C6_RX</text>

    <text x="100" y="298" class="t-dim" font-size="10" text-anchor="end">GPIO28</text>
    <rect x="120" y="290" width="10" height="10" class="header-pin"/>
    <rect x="150" y="290" width="10" height="10" class="header-pin"/>
    <text x="180" y="298" class="t-dim" font-size="10" text-anchor="start">C6_TX</text>

    <text x="100" y="318" class="t-dim" font-size="10" text-anchor="end">I2C_SDA</text>
    <rect x="120" y="310" width="10" height="10" class="header-pin"/>
    <rect x="150" y="310" width="10" height="10" class="header-pin"/>
    <text x="180" y="318" class="t-dim" font-size="10" text-anchor="start">C6_IO9</text>

    <text x="100" y="338" class="t-dim" font-size="10" text-anchor="end">I2C_SCL</text>
    <rect x="120" y="330" width="10" height="10" class="header-pin"/>
    <rect x="150" y="330" width="10" height="10" class="header-pin"/>
    <text x="180" y="338" class="t-dim" font-size="10" text-anchor="start">C6_EN</text>

    <!-- Annotations -->
    <text x="60" y="158" class="t-cyan" font-size="12" text-anchor="end" font-weight="bold">ENA ←</text>
    <text x="60" y="178" class="t-cyan" font-size="12" text-anchor="end" font-weight="bold">DIR ←</text>
    <text x="60" y="198" class="t-cyan" font-size="12" text-anchor="end" font-weight="bold">STEP ←</text>
    <text x="60" y="218" class="t-purple" font-size="12" text-anchor="end" font-weight="bold">POT ←</text>
    <text x="220" y="158" class="t-red" font-size="12" text-anchor="start" font-weight="bold">→ E-STOP</text>
  </g>

  <!-- ══════════════════════════════════════════════════════════════════ -->
  <!-- TB6600 STEPPER DRIVER                                             -->
  <!-- ══════════════════════════════════════════════════════════════════ -->
  <g transform="translate(600, 180)">
    <rect width="180" height="380" class="box-tb" rx="10"/>
    <text x="90" y="28" class="t-amber" font-size="18" text-anchor="middle" font-weight="bold">TB6600</text>
    <text x="90" y="46" class="t-dim" font-size="12" text-anchor="middle">Stepper Driver</text>

    <!-- Single 12-pin block output (right side) -->
    <rect x="160" y="65" width="20" height="14" class="pin" rx="2" fill="#2E7D32"/>
    <text x="155" y="76" class="pin-label" text-anchor="end">ENA-</text>

    <rect x="160" y="89" width="20" height="14" class="pin" rx="2" fill="#2E7D32"/>
    <text x="155" y="100" class="pin-label" text-anchor="end">ENA+</text>

    <rect x="160" y="113" width="20" height="14" class="pin" rx="2" fill="#2E7D32"/>
    <text x="155" y="124" class="pin-label" text-anchor="end">DIR-</text>

    <rect x="160" y="137" width="20" height="14" class="pin" rx="2" fill="#2E7D32"/>
    <text x="155" y="148" class="pin-label" text-anchor="end">DIR+</text>

    <rect x="160" y="161" width="20" height="14" class="pin" rx="2" fill="#2E7D32"/>
    <text x="155" y="172" class="pin-label" text-anchor="end">PUL-</text>

    <rect x="160" y="185" width="20" height="14" class="pin" rx="2" fill="#2E7D32"/>
    <text x="155" y="196" class="pin-label" text-anchor="end">PUL+</text>

    <rect x="160" y="215" width="20" height="14" class="pin" rx="2" fill="#2E7D32"/>
    <text x="155" y="226" class="pin-label" text-anchor="end">B-</text>

    <rect x="160" y="239" width="20" height="14" class="pin" rx="2" fill="#2E7D32"/>
    <text x="155" y="250" class="pin-label" text-anchor="end">B+</text>

    <rect x="160" y="263" width="20" height="14" class="pin" rx="2" fill="#2E7D32"/>
    <text x="155" y="274" class="pin-label" text-anchor="end">A-</text>

    <rect x="160" y="287" width="20" height="14" class="pin" rx="2" fill="#2E7D32"/>
    <text x="155" y="298" class="pin-label" text-anchor="end">A+</text>

    <rect x="160" y="316" width="20" height="14" class="pin" rx="2" fill="#2E7D32"/>
    <text x="155" y="327" class="pin-label" text-anchor="end">GND</text>

    <rect x="160" y="340" width="20" height="14" class="pin" rx="2" fill="#2E7D32"/>
    <text x="155" y="351" class="pin-label" text-anchor="end">VCC</text>

    <!-- Side Brackets Text -->
    <path d="M 190 70 L 195 70 L 195 194 L 190 194" fill="none" stroke="#FF9100" stroke-width="1"/>
    <text x="205" y="132" class="t-amber" font-size="11" transform="rotate(90, 205, 132)" text-anchor="middle">Signal</text>

    <path d="M 190 220 L 195 220 L 195 296 L 190 296" fill="none" stroke="#FF9100" stroke-width="1"/>
    <text x="205" y="258" class="t-amber" font-size="11" transform="rotate(90, 205, 258)" text-anchor="middle">Motor</text>

    <path d="M 190 321 L 195 321 L 195 349 L 190 349" fill="none" stroke="#FF9100" stroke-width="1"/>
    <text x="205" y="335" class="t-amber" font-size="11" transform="rotate(90, 205, 335)" text-anchor="middle">PWR</text>

    <!-- DIP Switch label -->
    <rect x="25" y="150" width="80" height="50" rx="4" fill="#0a0a0a" stroke="#555" stroke-width="1"/>
    <text x="65" y="165" class="t-dim" font-size="9" text-anchor="middle">DIP SWITCH</text>
    <text x="65" y="177" class="t-amber" font-size="11" text-anchor="middle" font-weight="bold">1/8 (1600)</text>
    <text x="65" y="190" class="t-dim" font-size="9" text-anchor="middle">3.0A peak</text>

    <rect x="15" y="205" width="100" height="15" rx="2" fill="#1a0a0a" stroke="#FF9100" stroke-width="1"/>
    <text x="65" y="215" class="t-dim" font-size="8" text-anchor="middle">1-6: OFF OFF ON OFF ON OFF</text>
  </g>

  <!-- ══════════════════════════════════════════════════════════════════ -->
  <!-- NEMA 23 STEPPER MOTOR                                             -->
  <!-- ══════════════════════════════════════════════════════════════════ -->
  <g transform="translate(1000, 320)">
    <rect width="220" height="260" class="box-motor" rx="10"/>
    <text x="110" y="28" class="t-teal" font-size="18" text-anchor="middle" font-weight="bold">NEMA 23</text>
    <text x="110" y="46" class="t-dim" font-size="12" text-anchor="middle">3.0 Nm Stepper Motor</text>

    <!-- Motor icon -->
    <circle cx="110" cy="130" r="50" fill="none" stroke="#1DE9B6" stroke-width="2"/>
    <circle cx="110" cy="130" r="10" fill="#1DE9B6"/>
    <text x="110" y="210" class="t-dim" font-size="12" text-anchor="middle">200 steps/rev</text>
    <text x="110" y="230" class="t-dim" font-size="12" text-anchor="middle">4-wire bipolar</text>

    <!-- Coil labels (4 discrete pins) -->
    <rect x="0" y="83" width="20" height="14" class="pin" rx="2"/>
    <text x="-5" y="94" class="pin-label" text-anchor="end">A+</text>
    <text x="25" y="94" class="t-dim" font-size="10" text-anchor="start">Black</text>

    <rect x="0" y="123" width="20" height="14" class="pin" rx="2"/>
    <text x="-5" y="134" class="pin-label" text-anchor="end">A-</text>
    <text x="25" y="134" class="t-dim" font-size="10" text-anchor="start">Green</text>

    <rect x="0" y="163" width="20" height="14" class="pin" rx="2"/>
    <text x="-5" y="174" class="pin-label" text-anchor="end">B+</text>
    <text x="25" y="174" class="t-dim" font-size="10" text-anchor="start">Red</text>

    <rect x="0" y="203" width="20" height="14" class="pin" rx="2"/>
    <text x="-5" y="214" class="pin-label" text-anchor="end">B-</text>
    <text x="25" y="214" class="t-dim" font-size="10" text-anchor="start">Blue</text>
  </g>

  <!-- ══════════════════════════════════════════════════════════════════ -->
  <!-- 24V PSU                                                           -->
  <!-- ══════════════════════════════════════════════════════════════════ -->
  <g transform="translate(1000, 80)">
    <rect width="200" height="110" class="box-psu" rx="10"/>
    <text x="100" y="25" class="t-yellow" font-size="16" text-anchor="middle" font-weight="bold">24V DC PSU</text>
    <text x="100" y="45" class="t-dim" font-size="12" text-anchor="middle">100W+ (4.5A min)</text>

    <!-- Terminals -->
    <text x="45" y="80" class="t-red" font-size="14" text-anchor="middle" font-weight="bold">V+</text>
    <text x="45" y="95" class="t-dim" font-size="10" text-anchor="middle">24V</text>

    <text x="155" y="80" class="t-dim" font-size="14" text-anchor="middle" font-weight="bold">V-</text>
    <text x="155" y="95" class="t-dim" font-size="10" text-anchor="middle">GND</text>
  </g>

  <!-- ══════════════════════════════════════════════════════════════════ -->
  <!-- E-STOP BUTTON                                                     -->
  <!-- ══════════════════════════════════════════════════════════════════ -->
  <g transform="translate(50, 660)">
    <rect width="140" height="120" rx="10" fill="#1a0a0a" stroke="#FF1744" stroke-width="2"/>
    <text x="70" y="25" class="t-red" font-size="16" text-anchor="middle" font-weight="bold">E-STOP</text>
    <text x="70" y="45" class="t-dim" font-size="10" text-anchor="middle">NC (Normally Closed)</text>

    <!-- E-stop icon -->
    <circle cx="70" cy="75" r="22" fill="#FF1744" fill-opacity="0.3" stroke="#FF1744" stroke-width="2"/>
    <text x="70" y="82" class="t-red" font-size="18" text-anchor="middle" font-weight="bold">⏻</text>

    <!-- terminals -->
    <circle cx="45" cy="5" r="3" fill="#FF1744"/>
    <circle cx="95" cy="5" r="3" fill="#555"/>
  </g>

  <!-- ══════════════════════════════════════════════════════════════════ -->
  <!-- POTENTIOMETER                                                     -->
  <!-- ══════════════════════════════════════════════════════════════════ -->
  <g transform="translate(260, 680)">
    <rect width="160" height="60" rx="6" fill="#121212" stroke="#D500F9" stroke-width="1"/>
    <text x="80" y="20" class="t-purple" font-size="12" text-anchor="middle" font-weight="bold">10k POT</text>
    <text x="80" y="35" class="t-dim" font-size="10" text-anchor="middle">(Speed Control)</text>
    <!-- terminals -->
    <circle cx="30" cy="0" r="3" fill="#FF1744"/>
    <circle cx="80" cy="0" r="3" fill="#D500F9"/>
    <circle cx="130" cy="0" r="3" fill="#555"/>
  </g>

  <!-- ══════════════════════════════════════════════════════════════════ -->
  <!-- WIRES: ESP32 → POT & E-STOP                                       -->
  <!-- ══════════════════════════════════════════════════════════════════ -->
  <!-- POT 3V3 (absolute: X=290, Y=680) → ESP 3V3 (Left Row 1, absolute: X=200, Y=190) -->
  <path d="M 290 680 L 290 580 L 160 580 L 160 190 L 200 190" class="wire-pwr"/>
  <!-- POT Wiper (absolute: X=340, Y=680) → ESP GPIO49 (Left Row 7, absolute: X=200, Y=310) -->
  <path d="M 340 680 L 340 600 L 180 600 L 180 310 L 200 310" class="wire-pot"/>
  <!-- POT GND (absolute: X=390, Y=680) → ESP GND (Right Row 8, absolute: X=230, Y=330) -->
  <path d="M 390 680 L 390 620 L 250 620 L 250 330 L 230 330" class="wire-gnd"/>

  <!-- E-STOP SIG (absolute: X=95, Y=665) → ESP GPIO33 (Right Row 4, absolute: X=230, Y=250) -->
  <path d="M 95 665 L 95 560 L 330 560 L 330 250 L 230 250" class="wire-estop"/>
  <!-- E-STOP GND (absolute: X=145, Y=665) → ESP GND (Right Row 8, absolute: X=230, Y=330) -->
  <path d="M 145 665 L 145 610 L 305 610 L 305 330 L 230 330" class="wire-gnd"/>

  <!-- ══════════════════════════════════════════════════════════════════ -->
  <!-- WIRES: ESP32 → TB6600 (Signal) ROUTED OVER THE TOP                -->
  <!-- ══════════════════════════════════════════════════════════════════ -->
  <!-- ESP GND (Left Row 3, abs: 200, 230) → ENA- (760, 245), DIR- (293), PUL- (341) -->
  <path d="M 200 230 L 250 230 L 250 140 L 780 140 L 780 245 L 760 245" class="wire-gnd" marker-end="url(#arrowGnd)"/>
  <path d="M 780 245 L 780 293 L 760 293" class="wire-gnd" marker-end="url(#arrowGnd)"/>
  <path d="M 780 293 L 780 341 L 760 341" class="wire-gnd" marker-end="url(#arrowGnd)"/>

  <!-- GPIO52 (ENA, abs: 200, 250) → ENA+ (760, 269) -->
  <path d="M 200 250 L 270 250 L 270 120 L 800 120 L 800 269 L 760 269" class="wire-sig" marker-end="url(#arrowCyan)"/>
  
  <!-- GPIO51 (DIR, abs: 200, 270) → DIR+ (760, 317) -->
  <path d="M 200 270 L 290 270 L 290 100 L 820 100 L 820 317 L 760 317" class="wire-sig" marker-end="url(#arrowCyan)"/>

  <!-- GPIO50 (STEP, abs: 200, 290) → PUL+ (760, 365) -->
  <path d="M 200 290 L 310 290 L 310 80 L 840 80 L 840 365 L 760 365" class="wire-sig" marker-end="url(#arrowCyan)"/>


  <!-- ══════════════════════════════════════════════════════════════════ -->
  <!-- WIRES: TB6600 → Motor (4-wire direct routes)                      -->
  <!-- ══════════════════════════════════════════════════════════════════ -->
  <!-- TB Coil B- (760, 395) to Motor B- (1000, 530) -->
  <path d="M 760 395 L 860 395 L 860 530 L 1000 530" class="wire-motor" stroke="#2196F3" marker-end="url(#arrowMotor)"/>
  <!-- TB Coil B+ (760, 419) to Motor B+ (1000, 490) -->
  <path d="M 760 419 L 880 419 L 880 490 L 1000 490" class="wire-motor" stroke="#F44336" marker-end="url(#arrowMotor)"/>
  <!-- TB Coil A- (760, 443) to Motor A- (1000, 450) -->
  <path d="M 760 443 L 900 443 L 900 450 L 1000 450" class="wire-motor" stroke="#4CAF50" marker-end="url(#arrowMotor)"/>
  <!-- TB Coil A+ (760, 467) to Motor A+ (1000, 410) -->
  <path d="M 760 467 L 920 467 L 920 410 L 1000 410" class="wire-motor" stroke="#000000" marker-end="url(#arrowMotor)"/>

  <!-- Colored Wire Labels inline -->
  <text x="960" y="405" fill="#000000" font-size="10" font-weight="bold">BLACK</text>
  <text x="960" y="445" fill="#4CAF50" font-size="10" font-weight="bold">GREEN</text>
  <text x="960" y="485" fill="#F44336" font-size="10" font-weight="bold">RED</text>
  <text x="960" y="525" fill="#2196F3" font-size="10" font-weight="bold">BLUE</text>


  <!-- Motor → Worm Gear -->
  <g transform="translate(1000, 620)">
    <rect width="220" height="70" rx="8" fill="#121212" stroke="#555" stroke-width="1"/>
    <text x="110" y="25" class="t-dim" font-size="13" text-anchor="middle" font-weight="bold">60:1 WORM GEAR</text>
    <text x="110" y="45" class="t-dim" font-size="11" text-anchor="middle">→ Welding Table</text>
    <text x="110" y="60" class="t-dim" font-size="10" text-anchor="middle">0.1 – 3.0 RPM output</text>
  </g>
  <path d="M 1110 580 L 1110 620" class="wire-motor" marker-end="url(#arrowMotor)" stroke-dasharray="6,3"/>

  <!-- ══════════════════════════════════════════════════════════════════ -->
  <!-- WIRES: PSU → TB6600                                               -->
  <!-- ══════════════════════════════════════════════════════════════════ -->
  <!-- PSU V+ (1045, 175) to TB6600 VCC (760, 520) -->
  <path d="M 1045 175 L 1045 250 L 950 250 L 950 520 L 760 520" class="wire-pwr" marker-end="url(#arrowPwr)"/>
  <text x="770" y="515" class="t-red" font-size="10">24V+</text>

  <!-- PSU GND (1155, 175) to TB6600 GND (760, 496) -->
  <path d="M 1155 175 L 1155 230 L 970 230 L 970 496 L 760 496" class="wire-gnd" marker-end="url(#arrowGnd)"/>
  <text x="770" y="490" class="t-dim" font-size="10">PWR GND</text>

  <!-- ══════════════════════════════════════════════════════════════════ -->
  <!-- LEGEND                                                            -->
  <!-- ══════════════════════════════════════════════════════════════════ -->
  <g transform="translate(500, 700)">
    <rect width="400" height="130" rx="8" fill="#0A0A0A" stroke="#333" stroke-width="1"/>
    <text x="200" y="25" class="t-dim" font-size="14" text-anchor="middle" font-weight="bold">WIRE LEGEND</text>

    <line x1="20" y1="45" x2="70" y2="45" stroke="#00E5FF" stroke-width="2.5"/>
    <text x="80" y="49" class="t-dim" font-size="13">Signal (3.3V logic: STEP / DIR / ENA)</text>

    <line x1="20" y1="65" x2="70" y2="65" stroke="#FF1744" stroke-width="3" stroke-dasharray="8,4"/>
    <text x="80" y="69" class="t-dim" font-size="13">Power (24V DC / 3.3V POT)</text>

    <line x1="20" y1="85" x2="70" y2="85" stroke="#555" stroke-width="2.5"/>
    <text x="80" y="89" class="t-dim" font-size="13">Ground (GND)</text>

    <line x1="20" y1="105" x2="40" y2="105" stroke="#2196F3" stroke-width="3"/>
    <line x1="40" y1="105" x2="60" y2="105" stroke="#F44336" stroke-width="3"/>
    <text x="80" y="109" class="t-dim" font-size="13">Motor coils (A+/A-  B+/B-)</text>
  </g>

</svg>
