<svg xmlns="http://www.w3.org/2000/svg" viewBox="-110 0 1710 1120" width="1710" height="1120">

  <rect width="1600" height="1060" fill="#080C0C"/>
<g transform="translate(50,0)">

  <!-- Title -->
  <text x="725" y="38" font-family="sans-serif" font-size="30" fill="#FFF" text-anchor="middle" font-weight="bold">TIG Rotator — Wiring Diagram</text>
  <text x="725" y="62" font-family="sans-serif" font-size="15" fill="#669999" text-anchor="middle">ESP32-P4  ·  TB6600 Stepper Driver  ·  NEMA 23  ·  24V DC PSU</text>
  <rect x="30" y="72" width="1380" height="2" fill="#1A3333"/>

  <!-- ═══════════════════════════════════════
       ESP32-P4
       ═══════════════════════════════════════ -->
  <g transform="translate(40, 84)">
    <rect width="380" height="520" rx="14" fill="#071214" stroke="#00E5FF" stroke-width="2.5"/>
    <rect width="380" height="50" rx="14" fill="#00E5FF" fill-opacity="0.12"/>
    <rect y="36" width="380" height="14" fill="#00E5FF" fill-opacity="0.12"/>
    <text x="190" y="24" font-family="sans-serif" font-size="19" fill="#00E5FF" text-anchor="middle" font-weight="bold" letter-spacing="2">ESP32-P4</text>
    <text x="190" y="44" font-family="sans-serif" font-size="12" fill="#669999" text-anchor="middle">Waveshare / Guition JC4880P433  4.3"</text>

    <text x="190" y="78" font-family="sans-serif" font-size="13" fill="#446666" text-anchor="middle" letter-spacing="1">2 × 13  GPIO HEADER</text>
    <rect x="50" y="86" width="280" height="408" rx="6" fill="#040A0A" stroke="#162626" stroke-width="1"/>

    <!-- Row 1: 3V3 | 5V -->
    <rect x="64" y="96" width="18" height="18" rx="3" fill="#CC0000" stroke="#FF3333" stroke-width="1"/>
    <text x="88" y="110" font-family="monospace" font-size="15" fill="#FF7070" font-weight="bold">3V3</text>
    <text x="280" y="110" font-family="monospace" font-size="15" fill="#FF7070" text-anchor="end" font-weight="bold">5V</text>
    <rect x="290" y="96" width="18" height="18" rx="3" fill="#CC0000" stroke="#FF3333" stroke-width="1"/>

    <!-- Row 2: 3V3 | 5V -->
    <rect x="64" y="126" width="18" height="18" rx="3" fill="#CC0000" stroke="#FF3333" stroke-width="1"/>
    <text x="88" y="140" font-family="monospace" font-size="15" fill="#FF7070" font-weight="bold">3V3</text>
    <text x="280" y="140" font-family="monospace" font-size="15" fill="#FF7070" text-anchor="end" font-weight="bold">5V</text>
    <rect x="290" y="126" width="18" height="18" rx="3" fill="#CC0000" stroke="#FF3333" stroke-width="1"/>

    <!-- Row 3: GND | GND -->
    <rect x="64" y="156" width="18" height="18" rx="3" fill="#222" stroke="#555" stroke-width="1.5"/>
    <text x="88" y="170" font-family="monospace" font-size="15" fill="#BBBBBB" font-weight="bold">GND</text>
    <text x="280" y="170" font-family="monospace" font-size="15" fill="#BBBBBB" text-anchor="end" font-weight="bold">GND</text>
    <rect x="290" y="156" width="18" height="18" rx="3" fill="#222" stroke="#555" stroke-width="1.5"/>

    <!-- Row 4: GPIO52 ★ ENA | GPIO33 -->
    <rect x="64" y="186" width="18" height="18" rx="3" fill="#1A4400" stroke="#8BC34A" stroke-width="2"/>
    <text x="88" y="200" font-family="monospace" font-size="15" fill="#CCEE66" font-weight="bold">GPIO52</text>
    <text x="280" y="200" font-family="monospace" font-size="15" fill="#6B8E23" text-anchor="end">GPIO33</text>
    <rect x="290" y="186" width="18" height="18" rx="3" fill="#1A4400" stroke="#6B8E23" stroke-width="1"/>

    <!-- Row 5: GPIO51 ★ DIR | GPIO31 -->
    <rect x="64" y="216" width="18" height="18" rx="3" fill="#1A4400" stroke="#8BC34A" stroke-width="2"/>
    <text x="88" y="230" font-family="monospace" font-size="15" fill="#CCEE66" font-weight="bold">GPIO51</text>
    <text x="280" y="230" font-family="monospace" font-size="15" fill="#6B8E23" text-anchor="end">GPIO31</text>
    <rect x="290" y="216" width="18" height="18" rx="3" fill="#1A4400" stroke="#6B8E23" stroke-width="1"/>

    <!-- Row 6: GPIO50 ★ STEP | GPIO30 -->
    <rect x="64" y="246" width="18" height="18" rx="3" fill="#1A4400" stroke="#8BC34A" stroke-width="2"/>
    <text x="88" y="260" font-family="monospace" font-size="15" fill="#CCEE66" font-weight="bold">GPIO50</text>
    <text x="280" y="260" font-family="monospace" font-size="15" fill="#6B8E23" text-anchor="end">GPIO30</text>
    <rect x="290" y="246" width="18" height="18" rx="3" fill="#1A4400" stroke="#6B8E23" stroke-width="1"/>

    <!-- Row 7: GPIO49 ★ POT | GPIO29 -->
    <rect x="64" y="276" width="18" height="18" rx="3" fill="#1A4400" stroke="#8BC34A" stroke-width="2"/>
    <text x="88" y="290" font-family="monospace" font-size="15" fill="#CCEE66" font-weight="bold">GPIO49</text>
    <text x="280" y="290" font-family="monospace" font-size="15" fill="#6B8E23" text-anchor="end">GPIO29</text>
    <rect x="290" y="276" width="18" height="18" rx="3" fill="#1A4400" stroke="#6B8E23" stroke-width="1"/>

    <!-- Two USB-C on RIGHT side at GPIO30/29 level -->
    <rect x="330" y="242" width="50" height="16" rx="5" fill="#1A2A2A" stroke="#446666" stroke-width="1.5"/>
    <text x="355" y="253" font-family="sans-serif" font-size="8" fill="#558888" text-anchor="middle">USB-C</text>
    <rect x="330" y="272" width="50" height="16" rx="5" fill="#1A2A2A" stroke="#446666" stroke-width="1.5"/>
    <text x="355" y="283" font-family="sans-serif" font-size="8" fill="#558888" text-anchor="middle">USB-C</text>

    <!-- Row 8: GPIO35 | GND -->
    <rect x="64" y="306" width="18" height="18" rx="3" fill="#1A4400" stroke="#6B8E23" stroke-width="1"/>
    <text x="88" y="320" font-family="monospace" font-size="15" fill="#6B8E23">GPIO35</text>
    <text x="280" y="320" font-family="monospace" font-size="15" fill="#BBBBBB" text-anchor="end" font-weight="bold">GND</text>
    <rect x="290" y="306" width="18" height="18" rx="3" fill="#222" stroke="#555" stroke-width="1.5"/>

    <!-- Row 9: GPIO34 ★ E-STOP | ESP_3V3 -->
    <rect x="64" y="336" width="18" height="18" rx="3" fill="#1A4400" stroke="#8BC34A" stroke-width="2"/>
    <text x="88" y="350" font-family="monospace" font-size="15" fill="#CCEE66" font-weight="bold">GPIO34</text>
    <text x="280" y="350" font-family="monospace" font-size="15" fill="#FF9100" text-anchor="end" font-weight="bold">ESP_3V3</text>
    <rect x="290" y="336" width="18" height="18" rx="3" fill="#332200" stroke="#FF9100" stroke-width="1.5"/>

    <!-- Row 10: GPIO32 | C6_U0RXD -->
    <rect x="64" y="366" width="18" height="18" rx="3" fill="#1A4400" stroke="#6B8E23" stroke-width="1"/>
    <text x="88" y="380" font-family="monospace" font-size="15" fill="#6B8E23">GPIO32</text>
    <text x="280" y="380" font-family="monospace" font-size="14" fill="#5599DD" text-anchor="end">C6_U0RXD</text>
    <rect x="290" y="366" width="18" height="18" rx="3" fill="#0A1A33" stroke="#5599DD" stroke-width="1"/>

    <!-- Row 11: GPIO28 ★ DIR SW | C6_U0TXD -->
    <rect x="64" y="396" width="18" height="18" rx="3" fill="#1A4400" stroke="#8BC34A" stroke-width="2"/>
    <text x="88" y="410" font-family="monospace" font-size="15" fill="#CCEE66" font-weight="bold">GPIO28</text>
    <text x="280" y="410" font-family="monospace" font-size="14" fill="#5599DD" text-anchor="end">C6_U0TXD</text>
    <rect x="290" y="396" width="18" height="18" rx="3" fill="#0A1A33" stroke="#5599DD" stroke-width="1"/>

    <!-- Row 12: I2C_SDA | C6_IO9 -->
    <rect x="64" y="426" width="18" height="18" rx="3" fill="#220044" stroke="#AA77DD" stroke-width="1"/>
    <text x="88" y="440" font-family="monospace" font-size="15" fill="#AA77DD">I2C_SDA</text>
    <text x="280" y="440" font-family="monospace" font-size="15" fill="#5599DD" text-anchor="end">C6_IO9</text>
    <rect x="290" y="426" width="18" height="18" rx="3" fill="#0A1A33" stroke="#5599DD" stroke-width="1"/>

    <!-- Row 13: I2C_SCL | C6_CHIP_PU -->
    <rect x="64" y="456" width="18" height="18" rx="3" fill="#220044" stroke="#AA77DD" stroke-width="1"/>
    <text x="88" y="470" font-family="monospace" font-size="15" fill="#AA77DD">I2C_SCL</text>
    <text x="280" y="470" font-family="monospace" font-size="14" fill="#5599DD" text-anchor="end">C6_CHIP_PU</text>
    <rect x="290" y="456" width="18" height="18" rx="3" fill="#0A1A33" stroke="#5599DD" stroke-width="1"/>
  </g>

  <!-- Active pin function labels (right side arrows) -->
  <text x="432" y="200" font-family="sans-serif" font-size="15" fill="#00E5FF" font-weight="bold">← ENA</text>
  <text x="432" y="230" font-family="sans-serif" font-size="15" fill="#00E5FF" font-weight="bold">← DIR</text>
  <text x="432" y="260" font-family="sans-serif" font-size="15" fill="#00E5FF" font-weight="bold">← STEP</text>
  <text x="432" y="290" font-family="sans-serif" font-size="15" fill="#CC88FF" font-weight="bold">← POT</text>
  <text x="432" y="350" font-family="sans-serif" font-size="15" fill="#FF5252" font-weight="bold">← E-STOP</text>
  <text x="432" y="410" font-family="sans-serif" font-size="15" fill="#26C6DA" font-weight="bold">← DIR SW</text>

  <!-- ═══════════════════════════════════════
       TB6600
       ═══════════════════════════════════════ -->
  <g transform="translate(540, 84)">
    <rect width="400" height="280" rx="10" fill="#140F06" stroke="#6B3A2A" stroke-width="3"/>
    <text x="200" y="80" font-family="sans-serif" font-size="22" fill="#FF9100" text-anchor="middle" font-weight="bold">TB6600</text>
    <text x="200" y="108" font-family="sans-serif" font-size="17" fill="#996633" text-anchor="middle">Stepper Motor Driver</text>
    <text x="200" y="150" font-family="sans-serif" font-size="14" fill="#553311" text-anchor="middle">1/8 microstep · 3.0A peak</text>
    <text x="200" y="174" font-family="sans-serif" font-size="13" fill="#443311" text-anchor="middle">DIP: OFF OFF ON OFF ON OFF</text>

    <text x="97"  y="238" font-family="sans-serif" font-size="12" fill="#664422" text-anchor="middle" letter-spacing="1">POWER + MOTOR</text>
    <text x="304" y="238" font-family="sans-serif" font-size="12" fill="#664422" text-anchor="middle" letter-spacing="1">SIGNAL</text>

    <!-- LEFT group screw terminals -->
    <rect x="8" y="248" width="186" height="34" rx="4" fill="#0A0500" stroke="#555" stroke-width="1"/>
    <circle cx="28"  cy="265" r="10" fill="none" stroke="#666" stroke-width="1.5"/>
    <line x1="22" y1="259" x2="34" y2="271" stroke="#666" stroke-width="1.5"/>
    <circle cx="60"  cy="265" r="10" fill="none" stroke="#666" stroke-width="1.5"/>
    <line x1="54" y1="259" x2="66" y2="271" stroke="#666" stroke-width="1.5"/>
    <circle cx="92"  cy="265" r="10" fill="none" stroke="#666" stroke-width="1.5"/>
    <line x1="86" y1="259" x2="98" y2="271" stroke="#666" stroke-width="1.5"/>
    <circle cx="124" cy="265" r="10" fill="none" stroke="#666" stroke-width="1.5"/>
    <line x1="118" y1="259" x2="130" y2="271" stroke="#666" stroke-width="1.5"/>
    <circle cx="156" cy="265" r="10" fill="none" stroke="#666" stroke-width="1.5"/>
    <line x1="150" y1="259" x2="162" y2="271" stroke="#666" stroke-width="1.5"/>
    <circle cx="188" cy="265" r="10" fill="none" stroke="#666" stroke-width="1.5"/>
    <line x1="182" y1="259" x2="194" y2="271" stroke="#666" stroke-width="1.5"/>

    <!-- RIGHT group screw terminals -->
    <rect x="206" y="248" width="186" height="34" rx="4" fill="#0A0500" stroke="#555" stroke-width="1"/>
    <circle cx="224" cy="265" r="10" fill="none" stroke="#666" stroke-width="1.5"/>
    <line x1="218" y1="259" x2="230" y2="271" stroke="#666" stroke-width="1.5"/>
    <circle cx="256" cy="265" r="10" fill="none" stroke="#666" stroke-width="1.5"/>
    <line x1="250" y1="259" x2="262" y2="271" stroke="#666" stroke-width="1.5"/>
    <circle cx="288" cy="265" r="10" fill="none" stroke="#666" stroke-width="1.5"/>
    <line x1="282" y1="259" x2="294" y2="271" stroke="#666" stroke-width="1.5"/>
    <circle cx="320" cy="265" r="10" fill="none" stroke="#666" stroke-width="1.5"/>
    <line x1="314" y1="259" x2="326" y2="271" stroke="#666" stroke-width="1.5"/>
    <circle cx="352" cy="265" r="10" fill="none" stroke="#666" stroke-width="1.5"/>
    <line x1="346" y1="259" x2="358" y2="271" stroke="#666" stroke-width="1.5"/>
    <circle cx="384" cy="265" r="10" fill="none" stroke="#666" stroke-width="1.5"/>
    <line x1="378" y1="259" x2="390" y2="271" stroke="#666" stroke-width="1.5"/>
  </g>

  <!-- TB6600 pin labels -->
  <line x1="568" y1="364" x2="568" y2="390" stroke="#FF6666" stroke-width="1.5"/>
  <text x="568"  y="404" font-family="monospace" font-size="13" fill="#FF6666" text-anchor="middle" font-weight="bold">VCC</text>
  <line x1="600" y1="364" x2="600" y2="390" stroke="#666" stroke-width="1"/>
  <text x="600"  y="404" font-family="monospace" font-size="13" fill="#AAA"    text-anchor="middle">GND</text>
  <line x1="632" y1="364" x2="632" y2="390" stroke="#F44336" stroke-width="1.5"/>
  <text x="632"  y="404" font-family="monospace" font-size="13" fill="#F44336" text-anchor="middle" font-weight="bold">A+</text>
  <line x1="664" y1="364" x2="664" y2="390" stroke="#666" stroke-width="1"/>
  <text x="664"  y="404" font-family="monospace" font-size="13" fill="#AAA"    text-anchor="middle">A-</text>
  <line x1="696" y1="364" x2="696" y2="390" stroke="#2196F3" stroke-width="1.5"/>
  <text x="696"  y="404" font-family="monospace" font-size="13" fill="#2196F3" text-anchor="middle" font-weight="bold">B+</text>
  <line x1="728" y1="364" x2="728" y2="390" stroke="#666" stroke-width="1"/>
  <text x="728"  y="404" font-family="monospace" font-size="13" fill="#AAA"    text-anchor="middle">B-</text>
  <line x1="764" y1="364" x2="764" y2="390" stroke="#00E5FF" stroke-width="1.5"/>
  <text x="764"  y="404" font-family="monospace" font-size="12" fill="#00E5FF" text-anchor="middle" font-weight="bold">PUL+</text>
  <line x1="796" y1="364" x2="796" y2="390" stroke="#666" stroke-width="1"/>
  <text x="796"  y="404" font-family="monospace" font-size="12" fill="#888"    text-anchor="middle">PUL-</text>
  <line x1="828" y1="364" x2="828" y2="390" stroke="#00E5FF" stroke-width="1.5"/>
  <text x="828"  y="404" font-family="monospace" font-size="12" fill="#00E5FF" text-anchor="middle" font-weight="bold">DIR+</text>
  <line x1="860" y1="364" x2="860" y2="390" stroke="#666" stroke-width="1"/>
  <text x="860"  y="404" font-family="monospace" font-size="12" fill="#888"    text-anchor="middle">DIR-</text>
  <line x1="892" y1="364" x2="892" y2="390" stroke="#00E5FF" stroke-width="1.5"/>
  <text x="892"  y="404" font-family="monospace" font-size="12" fill="#00E5FF" text-anchor="middle" font-weight="bold">EN+</text>
  <line x1="924" y1="364" x2="924" y2="390" stroke="#666" stroke-width="1"/>
  <text x="924"  y="404" font-family="monospace" font-size="12" fill="#888"    text-anchor="middle">EN-</text>

  <!-- ═══════════════════════════════════════
       NEMA 23
       ═══════════════════════════════════════ -->
  <g transform="translate(1100, 84)">
    <rect width="280" height="340" rx="14" fill="#061410" stroke="#1DE9B6" stroke-width="2.5"/>
    <rect width="280" height="50" rx="14" fill="#1DE9B6" fill-opacity="0.10"/>
    <rect y="36" width="280" height="14" fill="#1DE9B6" fill-opacity="0.10"/>
    <text x="140" y="24" font-family="sans-serif" font-size="19" fill="#1DE9B6" text-anchor="middle" font-weight="bold" letter-spacing="2">NEMA 23</text>
    <text x="140" y="44" font-family="sans-serif" font-size="12" fill="#337755" text-anchor="middle">3.0 Nm Bipolar Stepper</text>
    <circle cx="140" cy="155" r="58" fill="none" stroke="#1DE9B6" stroke-width="2.5"/>
    <circle cx="140" cy="155" r="16" fill="#0C201A" stroke="#1DE9B6" stroke-width="2"/>
    <text x="140" y="161" font-family="sans-serif" font-size="15" fill="#1DE9B6" text-anchor="middle" font-weight="bold">M</text>
    <rect x="192" y="149" width="30" height="12" rx="4" fill="#1DE9B6" fill-opacity="0.35"/>
    <text x="140" y="240" font-family="sans-serif" font-size="12" fill="#226644" text-anchor="middle">4-wire bipolar · 200 steps/rev</text>
    <rect x="20" y="262" width="240" height="40" rx="8" fill="#040A08" stroke="#1A4433" stroke-width="1.5"/>
    <text x="140" y="278" font-family="sans-serif" font-size="13" fill="#1DE9B6" text-anchor="middle" font-weight="bold">1:108 Gear → 0.1–5.0 RPM</text>
    <text x="140" y="294" font-family="sans-serif" font-size="12" fill="#337755" text-anchor="middle">→ Welding Table / Positioner</text>
    <rect x="32" y="314" width="216" height="28" rx="4" fill="#040A08" stroke="#1A4433" stroke-width="1"/>
    <circle cx="72"  cy="328" r="8" fill="none" stroke="#555" stroke-width="1.5"/>
    <circle cx="112" cy="328" r="8" fill="none" stroke="#555" stroke-width="1.5"/>
    <circle cx="168" cy="328" r="8" fill="none" stroke="#555" stroke-width="1.5"/>
    <circle cx="208" cy="328" r="8" fill="none" stroke="#555" stroke-width="1.5"/>
  </g>

  <!-- NEMA pin labels -->
  <line x1="1172" y1="424" x2="1172" y2="446" stroke="#F44336" stroke-width="1.5"/>
  <text x="1172" y="460" font-family="monospace" font-size="14" fill="#F44336" text-anchor="middle" font-weight="bold">A+</text>
  <line x1="1212" y1="424" x2="1212" y2="446" stroke="#666" stroke-width="1"/>
  <text x="1212" y="460" font-family="monospace" font-size="14" fill="#AAA" text-anchor="middle">A-</text>
  <line x1="1268" y1="424" x2="1268" y2="446" stroke="#2196F3" stroke-width="1.5"/>
  <text x="1268" y="460" font-family="monospace" font-size="14" fill="#2196F3" text-anchor="middle" font-weight="bold">B+</text>
  <line x1="1308" y1="424" x2="1308" y2="446" stroke="#666" stroke-width="1"/>
  <text x="1308" y="460" font-family="monospace" font-size="14" fill="#AAA" text-anchor="middle">B-</text>

  <!-- ═══════════════════════════
       BOTTOM ROW
       ═══════════════════════════ -->
  <g transform="translate(40, 840)">
    <rect width="160" height="110" rx="12" fill="#140606" stroke="#FF1744" stroke-width="2.5"/>
    <rect width="160" height="40" rx="12" fill="#FF1744" fill-opacity="0.10"/>
    <rect y="28" width="160" height="12" fill="#FF1744" fill-opacity="0.10"/>
    <text x="80" y="22" font-family="sans-serif" font-size="16" fill="#FF1744" text-anchor="middle" font-weight="bold">E-STOP</text>
    <text x="80" y="36" font-family="sans-serif" font-size="11" fill="#662222" text-anchor="middle">NC · Normally Closed</text>
    <circle cx="80" cy="78" r="22" fill="#FF1744" fill-opacity="0.2" stroke="#FF1744" stroke-width="2"/>
    <circle cx="80" cy="78" r="14" fill="#FF1744" fill-opacity="0.35"/>
    <text x="80" y="84" font-family="sans-serif" font-size="16" fill="#FF1744" text-anchor="middle" font-weight="bold">⏻</text>
    <circle cx="44" cy="0" r="5" fill="#FF1744"/>
    <circle cx="116" cy="0" r="5" fill="#555"/>
    <text x="44" y="-10" font-family="monospace" font-size="12" fill="#FF7070" text-anchor="middle">SIG</text>
    <text x="116" y="-10" font-family="monospace" font-size="12" fill="#888" text-anchor="middle">GND</text>
  </g>
  <text x="120" y="970" font-family="monospace" font-size="13" fill="#FF5252" text-anchor="middle" font-weight="bold">→ GPIO34</text>

  <g transform="translate(250, 840)">
    <rect width="200" height="110" rx="12" fill="#100614" stroke="#CC44FF" stroke-width="2.5"/>
    <rect width="200" height="40" rx="12" fill="#CC44FF" fill-opacity="0.10"/>
    <rect y="28" width="200" height="12" fill="#CC44FF" fill-opacity="0.10"/>
    <text x="100" y="22" font-family="sans-serif" font-size="16" fill="#CC88FF" text-anchor="middle" font-weight="bold">10kΩ POT</text>
    <text x="100" y="36" font-family="sans-serif" font-size="11" fill="#551166" text-anchor="middle">Speed Control (ADC)</text>
    <text x="100" y="76" font-family="sans-serif" font-size="15" fill="#CC88FF" text-anchor="middle" font-weight="bold">↕ SPEED</text>
    <text x="100" y="92" font-family="monospace" font-size="11" fill="#DD99FF" text-anchor="middle">→ GPIO49</text>
    <text x="100" y="108" font-family="sans-serif" font-size="12" fill="#551166" text-anchor="middle">0 – 3.3V</text>
    <circle cx="36" cy="0" r="5" fill="#FF5252"/>
    <circle cx="100" cy="0" r="5" fill="#CC44FF"/>
    <circle cx="164" cy="0" r="5" fill="#555"/>
    <text x="36" y="-10" font-family="monospace" font-size="12" fill="#FF7070" text-anchor="middle">3V3</text>
    <text x="100" y="-10" font-family="monospace" font-size="12" fill="#DD99FF" text-anchor="middle">WIP</text>
    <text x="164" y="-10" font-family="monospace" font-size="12" fill="#888" text-anchor="middle">GND</text>
  </g>
  <text x="350" y="970" font-family="monospace" font-size="13" fill="#DD99FF" text-anchor="middle" font-weight="bold">→ GPIO49</text>

  <g transform="translate(540, 840)">
    <rect width="220" height="110" rx="12" fill="#141206" stroke="#FFD600" stroke-width="2.5"/>
    <rect width="220" height="40" rx="12" fill="#FFD600" fill-opacity="0.10"/>
    <rect y="28" width="220" height="12" fill="#FFD600" fill-opacity="0.10"/>
    <text x="110" y="22" font-family="sans-serif" font-size="16" fill="#FFD600" text-anchor="middle" font-weight="bold">24V DC PSU</text>
    <text x="110" y="36" font-family="sans-serif" font-size="11" fill="#665522" text-anchor="middle">Min 100W · 4.5A</text>
    <text x="110" y="76" font-family="sans-serif" font-size="20" fill="#FFD600" text-anchor="middle" font-weight="bold">⚡ 24V</text>
    <text x="110" y="100" font-family="sans-serif" font-size="13" fill="#665522" text-anchor="middle">Switch-mode PSU</text>
    <circle cx="64"  cy="0" r="5" fill="#FF5252"/>
    <circle cx="156" cy="0" r="5" fill="#555"/>
    <text x="64"  y="-10" font-family="monospace" font-size="12" fill="#FF7070" text-anchor="middle">V+</text>
    <text x="156" y="-10" font-family="monospace" font-size="12" fill="#888" text-anchor="middle">V−</text>
  </g>

  <!-- DIR SWITCH -->
  <g transform="translate(820, 840)">
    <rect width="180" height="110" rx="12" fill="#0A1418" stroke="#26C6DA" stroke-width="2.5"/>
    <rect width="180" height="40" rx="12" fill="#26C6DA" fill-opacity="0.10"/>
    <rect y="28" width="180" height="12" fill="#26C6DA" fill-opacity="0.10"/>
    <text x="90" y="22" font-family="sans-serif" font-size="16" fill="#26C6DA" text-anchor="middle" font-weight="bold">DIR SWITCH</text>
    <text x="90" y="36" font-family="sans-serif" font-size="11" fill="#1A5566" text-anchor="middle">CW / CCW Toggle</text>
    <rect x="30" y="56" width="120" height="30" rx="15" fill="#0A2020" stroke="#26C6DA" stroke-width="1.5"/>
    <circle cx="65" cy="71" r="11" fill="#26C6DA" fill-opacity="0.4" stroke="#26C6DA" stroke-width="1.5"/>
    <text x="52" y="76" font-family="sans-serif" font-size="10" fill="#26C6DA" text-anchor="middle">CW</text>
    <text x="128" y="76" font-family="sans-serif" font-size="10" fill="#1A5566" text-anchor="middle">CCW</text>
    <text x="90" y="96" font-family="monospace" font-size="11" fill="#4DD0E1" text-anchor="middle">→ GPIO28</text>
    <circle cx="36" cy="0" r="5" fill="#26C6DA"/>
    <circle cx="144" cy="0" r="5" fill="#555"/>
    <text x="36" y="-10" font-family="monospace" font-size="12" fill="#4DD0E1" text-anchor="middle">SIG</text>
    <text x="144" y="-10" font-family="monospace" font-size="12" fill="#888" text-anchor="middle">GND</text>
  </g>
  <text x="910" y="970" font-family="monospace" font-size="13" fill="#4DD0E1" text-anchor="middle" font-weight="bold">→ GPIO28</text>

  <!--
  ═══════════════════════════════════════════
   WIRES — CABLE HARNESS with 14px spacing

  LEFT CHANNEL (vertical, x = -40 to 36):
    x=-40  POT wiper (purple)
    x=-26  POT 3V3 (red dashed)
    x=-12  E-STOP signal (red solid)
    x=  2  GND bus (gray)
    x= 16  STEP signal (cyan)
    x= 30  DIR signal (cyan)
    x= 36  ENA signal (cyan) — closest to ESP

  HORIZONTAL routing at bottom (y=670-720):
    Each signal peels off at its own y-level

  MOTOR routing (y=480-530 between component rows):
    Straight across from TB to NEMA
  ═══════════════════════════════════════════
  -->

  <!-- ── SIGNAL BUNDLE (cyan): ESP → TB6600 ── -->

  <!-- ENA (GPIO52→EN+): via x=28 -->
  <path d="M 113 279 L 28 279 L 28 670 L 892 670 L 892 420"
        fill="none" stroke="#00E5FF" stroke-width="3"/>
  <text x="460" y="666" font-family="sans-serif" font-size="14" fill="#00CCCC" font-weight="bold">ENA  (GPIO52)</text>

  <!-- DIR (GPIO51→DIR+): via x=10 -->
  <path d="M 113 309 L 10 309 L 10 686 L 828 686 L 828 420"
        fill="none" stroke="#00E5FF" stroke-width="3"/>
  <text x="424" y="682" font-family="sans-serif" font-size="14" fill="#00CCCC" font-weight="bold">DIR  (GPIO51)</text>

  <!-- STEP (GPIO50→PUL+): via x=-8 -->
  <path d="M 113 339 L -8 339 L -8 702 L 764 702 L 764 420"
        fill="none" stroke="#00E5FF" stroke-width="3"/>
  <text x="386" y="698" font-family="sans-serif" font-size="14" fill="#00CCCC" font-weight="bold">STEP  (GPIO50)</text>

  <!-- GND bus: via x=-26 -->
  <path d="M 339 249 L 339 252 L -26 252 L -26 718 L 924 718 L 924 420"
        fill="none" stroke="#555" stroke-width="2"/>
  <path d="M 860 718 L 860 420" fill="none" stroke="#555" stroke-width="2"/>
  <path d="M 796 718 L 796 420" fill="none" stroke="#555" stroke-width="2"/>
  <text x="460" y="714" font-family="sans-serif" font-size="11" fill="#444">GND bus (EN−, DIR−, PUL−)</text>

  <!-- ── MOTOR BUNDLE: TB6600 → NEMA ── -->
  <path d="M 632 420 L 632 480 L 1172 480 L 1172 474"
        fill="none" stroke="#F44336" stroke-width="3"/>
  <text x="900" y="476" font-family="sans-serif" font-size="14" fill="#F44336" font-weight="bold">RED  A+</text>

  <path d="M 664 420 L 664 498 L 1212 498 L 1212 474"
        fill="none" stroke="#4CAF50" stroke-width="3"/>
  <text x="936" y="494" font-family="sans-serif" font-size="14" fill="#4CAF50" font-weight="bold">GREEN  A−</text>

  <path d="M 696 420 L 696 516 L 1268 516 L 1268 474"
        fill="none" stroke="#2196F3" stroke-width="3"/>
  <text x="980" y="512" font-family="sans-serif" font-size="14" fill="#2196F3" font-weight="bold">BLUE  B+</text>

  <path d="M 728 420 L 728 534 L 1308 534 L 1308 474"
        fill="none" stroke="#AAA" stroke-width="3"/>
  <text x="1014" y="530" font-family="sans-serif" font-size="14" fill="#AAA" font-weight="bold">BLACK  B−</text>

  <!-- ── POWER: PSU → TB6600 ── -->
  <path d="M 604 840 L 604 770 L 568 770 L 568 420"
        fill="none" stroke="#FF5252" stroke-width="3" stroke-dasharray="12 5"/>
  <text x="556" y="826" font-family="sans-serif" font-size="13" fill="#FF7070" font-weight="bold">24V</text>
  <path d="M 696 840 L 696 776 L 600 776 L 600 420"
        fill="none" stroke="#555" stroke-width="2"/>

  <!-- ── E-STOP → ESP: via x=-44 ── -->
  <path d="M 84 840 L 84 746 L -44 746 L -44 429 L 113 429"
         fill="none" stroke="#FF1744" stroke-width="2.5"/>
  <!-- E-STOP GND → GND bus -->
  <path d="M 156 840 L 156 752 L -26 752 L -26 718"
         fill="none" stroke="#555" stroke-width="2"/>

  <!-- ── POT → ESP: via x=-62 and x=-80 ── -->
  <!-- POT 3V3 → ESP 3V3: via x=-62 -->
  <path d="M 286 840 L 286 758 L -62 758 L -62 189 L 113 189"
         fill="none" stroke="#FF5252" stroke-width="2" stroke-dasharray="8 4"/>
  <!-- POT WIPER → ESP GPIO49: via x=-80 -->
  <path d="M 350 840 L 350 764 L -80 764 L -80 369 L 113 369"
         fill="none" stroke="#CC44FF" stroke-width="2.5"/>
  <!-- POT GND → GND bus -->
  <path d="M 414 840 L 414 752 L -26 752"
         fill="none" stroke="#555" stroke-width="2"/>

  <!-- ── DIR SWITCH → ESP GPIO28 ── -->
  <!-- SIG: GPIO28 (x=-98 channel) -->
  <path d="M 856 840 L 856 770 L -98 770 L -98 489 L 113 489"
         fill="none" stroke="#26C6DA" stroke-width="2.5"/>
  <text x="400" y="826" font-family="sans-serif" font-size="14" fill="#1A99AA" font-weight="bold">DIR SW  (GPIO28)</text>
  <!-- GND → GND bus -->
  <path d="M 964 840 L 964 756 L -26 756 L -26 752"
         fill="none" stroke="#555" stroke-width="2"/>

  <!-- ═══════════════════════
       PIN REFERENCE
       ═══════════════════════ -->
  <g transform="translate(1060, 570)">
    <rect width="420" height="216" rx="12" fill="#060A08" stroke="#1A3322" stroke-width="1.5"/>
    <text x="210" y="24" font-family="sans-serif" font-size="16" fill="#55AA77" text-anchor="middle" font-weight="bold" letter-spacing="1">PIN REFERENCE</text>
    <text x="18" y="52"  font-family="monospace" font-size="15" fill="#CCEE66">GPIO50</text><text x="106" y="52"  font-family="monospace" font-size="15" fill="#CCC">→  TB6600  PUL+  (STEP)</text>
    <text x="18" y="76"  font-family="monospace" font-size="15" fill="#CCEE66">GPIO51</text><text x="106" y="76"  font-family="monospace" font-size="15" fill="#CCC">→  TB6600  DIR+</text>
    <text x="18" y="100" font-family="monospace" font-size="15" fill="#CCEE66">GPIO52</text><text x="106" y="100" font-family="monospace" font-size="15" fill="#CCC">→  TB6600  EN+  (ENA)</text>
    <text x="18" y="124" font-family="monospace" font-size="15" fill="#DD99FF">GPIO49</text><text x="106" y="124" font-family="monospace" font-size="15" fill="#CCC">→  Potentiometer (ADC)</text>
    <text x="18" y="148" font-family="monospace" font-size="15" fill="#FF6666">GPIO34</text><text x="106" y="148" font-family="monospace" font-size="15" fill="#CCC">→  E-STOP  NC contact</text>
    <text x="18" y="172" font-family="monospace" font-size="15" fill="#888">GND</text>   <text x="106" y="172" font-family="monospace" font-size="15" fill="#888">→  all minus (−) pins</text>
    <text x="18" y="196" font-family="monospace" font-size="15" fill="#4DD0E1">GPIO28</text><text x="106" y="196" font-family="monospace" font-size="15" fill="#CCC">→  DIR Switch (CW/CCW)</text>
  </g>

  <!-- ═══════════════════════
       WIRE LEGEND
       ═══════════════════════ -->
  <g transform="translate(1060, 806)">
    <rect width="420" height="148" rx="12" fill="#060A08" stroke="#1A3322" stroke-width="1.5"/>
    <text x="210" y="24" font-family="sans-serif" font-size="16" fill="#55AA77" text-anchor="middle" font-weight="bold" letter-spacing="1">WIRE LEGEND</text>
    <line x1="18" y1="48" x2="72" y2="48" stroke="#00E5FF" stroke-width="3"/>
    <text x="84" y="54" font-family="sans-serif" font-size="15" fill="#CCC">Signal  (STEP / DIR / ENA)</text>
    <line x1="18" y1="72" x2="72" y2="72" stroke="#FF5252" stroke-width="3" stroke-dasharray="12 5"/>
    <text x="84" y="78" font-family="sans-serif" font-size="15" fill="#CCC">Power  (24V / 3.3V)</text>
    <line x1="18" y1="96" x2="72" y2="96" stroke="#555" stroke-width="3"/>
    <text x="84" y="102" font-family="sans-serif" font-size="15" fill="#CCC">Ground  (GND)</text>
    <line x1="18" y1="120" x2="40" y2="120" stroke="#F44336" stroke-width="3"/>
    <line x1="40" y1="120" x2="72" y2="120" stroke="#2196F3" stroke-width="3"/>
    <text x="84" y="126" font-family="sans-serif" font-size="15" fill="#CCC">Motor coils (RED/GRN BLU/BLK)</text>
    <line x1="18" y1="144" x2="72" y2="144" stroke="#CC44FF" stroke-width="2.5"/>
    <text x="84" y="146" font-family="sans-serif" font-size="15" fill="#CCC">POT wiper / E-STOP signal</text>
  </g>

</g>
</svg>
