<svg xmlns="http://www.w3.org/2000/svg" viewBox="-30 0 1370 1250" width="1370" height="1250">
  <defs>
    <marker id="arr-cyan" viewBox="0 0 10 8" refX="9" refY="4" markerWidth="7" markerHeight="5" orient="auto">
      <path d="M0,0.5 L9,4 L0,7.5Z" fill="#00E5FF"/>
    </marker>
    <filter id="glow-sig" x="-30%" y="-30%" width="160%" height="160%">
      <feGaussianBlur stdDeviation="3" result="b"/>
      <feMerge><feMergeNode in="b"/><feMergeNode in="SourceGraphic"/></feMerge>
    </filter>
    <filter id="glow-estop" x="-80%" y="-80%" width="260%" height="260%">
      <feGaussianBlur stdDeviation="6" result="b"/>
      <feMerge><feMergeNode in="b"/><feMergeNode in="SourceGraphic"/></feMerge>
    </filter>
    <pattern id="grid" width="40" height="40" patternUnits="userSpaceOnUse">
      <path d="M40 0L0 0 0 40" fill="none" stroke="#151b22" stroke-width="0.5"/>
    </pattern>
    <linearGradient id="bg-grad" x1="0" y1="0" x2="0" y2="1">
      <stop offset="0%" stop-color="#0d1117"/>
      <stop offset="100%" stop-color="#080b0f"/>
    </linearGradient>
  </defs>

  <style>
    @keyframes estopPulse {
      0%, 100% { opacity: 0.1; }
      50% { opacity: 0.45; }
    }
    @keyframes powerFlow {
      from { stroke-dashoffset: 0; }
      to { stroke-dashoffset: -34; }
    }
    @keyframes ledBlink {
      0%, 100% { opacity: 0.2; }
      50% { opacity: 1; }
    }
    @keyframes potWiper {
      0%, 100% { opacity: 0.3; }
      50% { opacity: 1; }
    }
    .estop-pulse { animation: estopPulse 2s ease-in-out infinite; }
    .power-flow { animation: powerFlow 1.2s linear infinite; }
    .led-blink { animation: ledBlink 1.5s ease-in-out infinite; }
    .pot-glow { animation: potWiper 3s ease-in-out infinite; }
  </style>

  <rect x="0" y="0" width="1340" height="1250" fill="url(#bg-grad)"/>
  <rect x="0" y="0" width="1340" height="1250" fill="url(#grid)" opacity="0.4"/>

<g transform="translate(50,0)">

  <!-- Title -->
  <circle cx="30" cy="38" r="5" fill="#00FF88" class="led-blink"/>
  <text x="725" y="38" font-family="sans-serif" font-size="30" fill="#FFF" text-anchor="middle" font-weight="bold" letter-spacing="1">TIG Rotator — Wiring Diagram</text>
  <text x="725" y="62" font-family="sans-serif" font-size="15" fill="#669999" text-anchor="middle">ESP32-P4  ·  TB6600 Stepper Driver  ·  NEMA 23  ·  24V DC PSU</text>
  <rect x="30" y="72" width="1380" height="2" fill="#1A3333"/>

  <!-- ═══════════════════════════════════════
       ESP32-P4
       ═══════════════════════════════════════ -->
  <g transform="translate(40, 84)">
    <rect width="380" height="520" rx="14" fill="#071214" stroke="#00E5FF" stroke-width="2.5"/>
    <rect width="380" height="50" rx="14" fill="#00E5FF" fill-opacity="0.12"/>
    <rect y="36" width="380" height="14" fill="#00E5FF" fill-opacity="0.12"/>
    <text x="190" y="24" font-family="sans-serif" font-size="19" fill="#00E5FF" text-anchor="middle" font-weight="bold" letter-spacing="2">ESP32-P4</text>
    <text x="190" y="44" font-family="sans-serif" font-size="12" fill="#669999" text-anchor="middle">GUITION JC4880P443C  4.3"</text>

    <text x="190" y="78" font-family="sans-serif" font-size="13" fill="#558888" text-anchor="middle" letter-spacing="1">2 × 13  GPIO HEADER</text>
    <rect x="50" y="86" width="280" height="408" rx="6" fill="#040A0A" stroke="#162626" stroke-width="1"/>

    <!-- Row 1: 3V3 | 5V -->
    <rect x="64" y="96" width="18" height="18" rx="3" fill="#CC0000" stroke="#FF3333" stroke-width="1"/>
    <text x="88" y="110" font-family="monospace" font-size="15" fill="#FF7070" font-weight="bold">3V3</text>
    <text x="280" y="110" font-family="monospace" font-size="15" fill="#FF7070" text-anchor="end" font-weight="bold">5V</text>
    <rect x="290" y="96" width="18" height="18" rx="3" fill="#CC0000" stroke="#FF3333" stroke-width="1"/>

    <!-- Row 2: 3V3 | 5V -->
    <rect x="64" y="126" width="18" height="18" rx="3" fill="#CC0000" stroke="#FF3333" stroke-width="1"/>
    <text x="88" y="140" font-family="monospace" font-size="15" fill="#FF7070" font-weight="bold">3V3</text>
    <text x="280" y="140" font-family="monospace" font-size="15" fill="#FF7070" text-anchor="end" font-weight="bold">5V</text>
    <rect x="290" y="126" width="18" height="18" rx="3" fill="#CC0000" stroke="#FF3333" stroke-width="1"/>

    <!-- Row 3: GND | GND -->
    <rect x="64" y="156" width="18" height="18" rx="3" fill="#222" stroke="#555" stroke-width="1.5"/>
    <text x="88" y="170" font-family="monospace" font-size="15" fill="#BBBBBB" font-weight="bold">GND</text>
    <text x="280" y="170" font-family="monospace" font-size="15" fill="#BBBBBB" text-anchor="end" font-weight="bold">GND</text>
    <rect x="290" y="156" width="18" height="18" rx="3" fill="#222" stroke="#555" stroke-width="1.5"/>

    <!-- Row 4: GPIO52 ★ ENA | GPIO33 ★ PEDAL SW -->
    <rect x="64" y="186" width="18" height="18" rx="3" fill="#1A4400" stroke="#8BC34A" stroke-width="2"/>
    <text x="88" y="200" font-family="monospace" font-size="15" fill="#CCEE66" font-weight="bold">GPIO52</text>
    <text x="280" y="200" font-family="monospace" font-size="15" fill="#CC88FF" text-anchor="end" font-weight="bold">GPIO33</text>
    <rect x="290" y="186" width="18" height="18" rx="3" fill="#1A0A2A" stroke="#CC88FF" stroke-width="1.5"/>

    <!-- Row 5: GPIO51 ★ DIR -->
    <rect x="64" y="216" width="18" height="18" rx="3" fill="#1A4400" stroke="#8BC34A" stroke-width="2"/>
    <text x="88" y="230" font-family="monospace" font-size="15" fill="#CCEE66" font-weight="bold">GPIO51</text>
    <text x="280" y="230" font-family="monospace" font-size="15" fill="#6B8E23" text-anchor="end">GPIO31</text>
    <rect x="290" y="216" width="18" height="18" rx="3" fill="#1A4400" stroke="#6B8E23" stroke-width="1"/>

    <!-- Row 6: GPIO50 ★ STEP -->
    <rect x="64" y="246" width="18" height="18" rx="3" fill="#1A4400" stroke="#8BC34A" stroke-width="2"/>
    <text x="88" y="260" font-family="monospace" font-size="15" fill="#CCEE66" font-weight="bold">GPIO50</text>
    <text x="280" y="260" font-family="monospace" font-size="15" fill="#6B8E23" text-anchor="end">GPIO30</text>
    <rect x="290" y="246" width="18" height="18" rx="3" fill="#1A4400" stroke="#6B8E23" stroke-width="1"/>

    <!-- Row 7: GPIO49 ★ POT | GPIO29 ★ DIR SW -->
    <rect x="64" y="276" width="18" height="18" rx="3" fill="#1A4400" stroke="#8BC34A" stroke-width="2"/>
    <text x="88" y="290" font-family="monospace" font-size="15" fill="#CCEE66" font-weight="bold">GPIO49</text>
    <text x="280" y="290" font-family="monospace" font-size="15" fill="#CCEE66" text-anchor="end" font-weight="bold">GPIO29</text>
    <rect x="290" y="276" width="18" height="18" rx="3" fill="#1A4400" stroke="#8BC34A" stroke-width="2"/>

    <!-- USB-C ports -->
    <rect x="330" y="242" width="50" height="16" rx="5" fill="#1A2A2A" stroke="#446666" stroke-width="1.5"/>
    <text x="355" y="253" font-family="sans-serif" font-size="8" fill="#558888" text-anchor="middle">USB-C</text>
    <rect x="330" y="272" width="50" height="16" rx="5" fill="#1A2A2A" stroke="#446666" stroke-width="1.5"/>
    <text x="355" y="283" font-family="sans-serif" font-size="8" fill="#558888" text-anchor="middle">USB-C</text>

    <!-- Row 8: GPIO35 ★ PEDAL POT | GND -->
    <rect x="64" y="306" width="18" height="18" rx="3" fill="#1A4400" stroke="#8BC34A" stroke-width="2"/>
    <text x="88" y="320" font-family="monospace" font-size="15" fill="#CCEE66" font-weight="bold">GPIO35</text>
    <text x="280" y="320" font-family="monospace" font-size="15" fill="#BBBBBB" text-anchor="end" font-weight="bold">GND</text>
    <rect x="290" y="306" width="18" height="18" rx="3" fill="#222" stroke="#555" stroke-width="1.5"/>

    <!-- Row 9: GPIO34 ★ E-STOP -->
    <rect x="64" y="336" width="18" height="18" rx="3" fill="#1A4400" stroke="#8BC34A" stroke-width="2"/>
    <text x="88" y="350" font-family="monospace" font-size="15" fill="#CCEE66" font-weight="bold">GPIO34</text>
    <text x="280" y="350" font-family="monospace" font-size="15" fill="#FF9100" text-anchor="end" font-weight="bold">ESP_3V3</text>
    <rect x="290" y="336" width="18" height="18" rx="3" fill="#332200" stroke="#FF9100" stroke-width="1.5"/>

    <!-- Row 10: GPIO32 -->
    <rect x="64" y="366" width="18" height="18" rx="3" fill="#1A4400" stroke="#6B8E23" stroke-width="1"/>
    <text x="88" y="380" font-family="monospace" font-size="15" fill="#6B8E23">GPIO32</text>
    <text x="280" y="380" font-family="monospace" font-size="14" fill="#5599DD" text-anchor="end">C6_U0RXD</text>
    <rect x="290" y="366" width="18" height="18" rx="3" fill="#0A1A33" stroke="#5599DD" stroke-width="1"/>

    <!-- Row 11: GPIO28 | C6_U0TXD -->
    <rect x="64" y="396" width="18" height="18" rx="3" fill="#1A4400" stroke="#6B8E23" stroke-width="1"/>
    <text x="88" y="410" font-family="monospace" font-size="15" fill="#6B8E23">GPIO28</text>
    <text x="280" y="410" font-family="monospace" font-size="14" fill="#5599DD" text-anchor="end">C6_U0TXD</text>
    <rect x="290" y="396" width="18" height="18" rx="3" fill="#0A1A33" stroke="#5599DD" stroke-width="1"/>

    <!-- Row 12: I2C_SDA -->
    <rect x="64" y="426" width="18" height="18" rx="3" fill="#220044" stroke="#AA77DD" stroke-width="1"/>
    <text x="88" y="440" font-family="monospace" font-size="15" fill="#AA77DD">I2C_SDA</text>
    <text x="280" y="440" font-family="monospace" font-size="15" fill="#5599DD" text-anchor="end">C6_IO9</text>
    <rect x="290" y="426" width="18" height="18" rx="3" fill="#0A1A33" stroke="#5599DD" stroke-width="1"/>

    <!-- Row 13: I2C_SCL -->
    <rect x="64" y="456" width="18" height="18" rx="3" fill="#220044" stroke="#AA77DD" stroke-width="1"/>
    <text x="88" y="470" font-family="monospace" font-size="15" fill="#AA77DD">I2C_SCL</text>
    <text x="280" y="470" font-family="monospace" font-size="14" fill="#5599DD" text-anchor="end">C6_CHIP_PU</text>
    <rect x="290" y="456" width="18" height="18" rx="3" fill="#0A1A33" stroke="#5599DD" stroke-width="1"/>
  </g>

  <!-- Active pin function labels -->
  <text x="432" y="200" font-family="sans-serif" font-size="15" fill="#00E5FF" font-weight="bold">← ENA</text>
  <text x="560" y="200" font-family="sans-serif" font-size="15" fill="#CC88FF" font-weight="bold">← PEDAL SW</text>
  <text x="432" y="230" font-family="sans-serif" font-size="15" fill="#00E5FF" font-weight="bold">← DIR</text>
  <text x="432" y="260" font-family="sans-serif" font-size="15" fill="#00E5FF" font-weight="bold">← STEP</text>
  <text x="432" y="290" font-family="sans-serif" font-size="15" fill="#CC88FF" font-weight="bold">← POT</text>
  <text x="432" y="320" font-family="sans-serif" font-size="15" fill="#CC88FF" font-weight="bold">← PEDAL POT</text>
  <text x="432" y="350" font-family="sans-serif" font-size="15" fill="#FF5252" font-weight="bold">← E-STOP</text>
  <text x="560" y="290" font-family="sans-serif" font-size="15" fill="#26C6DA" font-weight="bold">DIR SW →</text>

  <!-- ═══════════════════════════════════════
       TB6600
       ═══════════════════════════════════════ -->
  <g transform="translate(540, 84)">
    <rect width="400" height="280" rx="10" fill="#140F06" stroke="#6B3A2A" stroke-width="3"/>
    <text x="200" y="80" font-family="sans-serif" font-size="22" fill="#FF9100" text-anchor="middle" font-weight="bold">TB6600</text>
    <text x="200" y="108" font-family="sans-serif" font-size="17" fill="#BB8855" text-anchor="middle">Stepper Motor Driver</text>
    <text x="200" y="150" font-family="sans-serif" font-size="14" fill="#AA7744" text-anchor="middle">1/8 microstep · 3.0A peak</text>
    <g transform="translate(128, 170)">
      <rect x="0" y="0" width="12" height="20" rx="2" fill="#0A0500" stroke="#555" stroke-width="1"/>
      <rect x="2" y="2" width="8" height="8" rx="1" fill="#332211"/>
      <rect x="20" y="0" width="12" height="20" rx="2" fill="#0A0500" stroke="#555" stroke-width="1"/>
      <rect x="22" y="2" width="8" height="8" rx="1" fill="#FF9100"/>
      <rect x="40" y="0" width="12" height="20" rx="2" fill="#0A0500" stroke="#555" stroke-width="1"/>
      <rect x="42" y="2" width="8" height="8" rx="1" fill="#332211"/>
      <rect x="60" y="0" width="12" height="20" rx="2" fill="#0A0500" stroke="#555" stroke-width="1"/>
      <rect x="62" y="2" width="8" height="8" rx="1" fill="#332211"/>
      <rect x="80" y="0" width="12" height="20" rx="2" fill="#0A0500" stroke="#555" stroke-width="1"/>
      <rect x="82" y="2" width="8" height="8" rx="1" fill="#FF9100"/>
      <rect x="100" y="0" width="12" height="20" rx="2" fill="#0A0500" stroke="#555" stroke-width="1"/>
      <rect x="102" y="2" width="8" height="8" rx="1" fill="#332211"/>
      <text x="6" y="30" font-family="monospace" font-size="8" fill="#996633" text-anchor="middle">1</text>
      <text x="26" y="30" font-family="monospace" font-size="8" fill="#996633" text-anchor="middle">2</text>
      <text x="46" y="30" font-family="monospace" font-size="8" fill="#996633" text-anchor="middle">3</text>
      <text x="66" y="30" font-family="monospace" font-size="8" fill="#996633" text-anchor="middle">4</text>
      <text x="86" y="30" font-family="monospace" font-size="8" fill="#996633" text-anchor="middle">5</text>
      <text x="106" y="30" font-family="monospace" font-size="8" fill="#996633" text-anchor="middle">6</text>
      <text x="6" y="-3" font-family="monospace" font-size="7" fill="#886644" text-anchor="middle">OFF</text>
      <text x="26" y="-3" font-family="monospace" font-size="7" fill="#FF9100" text-anchor="middle">ON</text>
      <text x="46" y="-3" font-family="monospace" font-size="7" fill="#886644" text-anchor="middle">OFF</text>
      <text x="66" y="-3" font-family="monospace" font-size="7" fill="#886644" text-anchor="middle">OFF</text>
      <text x="86" y="-3" font-family="monospace" font-size="7" fill="#FF9100" text-anchor="middle">ON</text>
      <text x="106" y="-3" font-family="monospace" font-size="7" fill="#886644" text-anchor="middle">OFF</text>
    </g>

    <text x="97"  y="230" font-family="sans-serif" font-size="11" fill="#AA7744" text-anchor="middle" letter-spacing="1">POWER + MOTOR</text>
    <text x="304" y="230" font-family="sans-serif" font-size="11" fill="#AA7744" text-anchor="middle" letter-spacing="1">SIGNAL</text>

    <!-- LEFT screw terminals -->
    <rect x="8" y="248" width="186" height="34" rx="4" fill="#0A0500" stroke="#555" stroke-width="1"/>
    <circle cx="28"  cy="265" r="9" fill="#0D0800" stroke="#777" stroke-width="1.5"/><circle cx="28"  cy="265" r="2" fill="#888"/>
    <circle cx="60"  cy="265" r="9" fill="#0D0800" stroke="#777" stroke-width="1.5"/><circle cx="60"  cy="265" r="2" fill="#888"/>
    <circle cx="92"  cy="265" r="9" fill="#0D0800" stroke="#777" stroke-width="1.5"/><circle cx="92"  cy="265" r="2" fill="#888"/>
    <circle cx="124" cy="265" r="9" fill="#0D0800" stroke="#777" stroke-width="1.5"/><circle cx="124" cy="265" r="2" fill="#888"/>
    <circle cx="156" cy="265" r="9" fill="#0D0800" stroke="#777" stroke-width="1.5"/><circle cx="156" cy="265" r="2" fill="#888"/>
    <circle cx="188" cy="265" r="9" fill="#0D0800" stroke="#777" stroke-width="1.5"/><circle cx="188" cy="265" r="2" fill="#888"/>

    <!-- RIGHT screw terminals -->
    <rect x="206" y="248" width="186" height="34" rx="4" fill="#0A0500" stroke="#555" stroke-width="1"/>
    <circle cx="224" cy="265" r="9" fill="#0D0800" stroke="#777" stroke-width="1.5"/><circle cx="224" cy="265" r="2" fill="#888"/>
    <circle cx="256" cy="265" r="9" fill="#0D0800" stroke="#777" stroke-width="1.5"/><circle cx="256" cy="265" r="2" fill="#888"/>
    <circle cx="288" cy="265" r="9" fill="#0D0800" stroke="#777" stroke-width="1.5"/><circle cx="288" cy="265" r="2" fill="#888"/>
    <circle cx="320" cy="265" r="9" fill="#0D0800" stroke="#777" stroke-width="1.5"/><circle cx="320" cy="265" r="2" fill="#888"/>
    <circle cx="352" cy="265" r="9" fill="#0D0800" stroke="#777" stroke-width="1.5"/><circle cx="352" cy="265" r="2" fill="#888"/>
    <circle cx="384" cy="265" r="9" fill="#0D0800" stroke="#777" stroke-width="1.5"/><circle cx="384" cy="265" r="2" fill="#888"/>
  </g>

  <!-- TB6600 pin labels -->
  <line x1="568" y1="364" x2="568" y2="374" stroke="#FF6666" stroke-width="1.5"/>
  <text x="568" y="386" font-family="monospace" font-size="10" fill="#FF6666" text-anchor="middle" font-weight="bold">VCC</text>
  <line x1="600" y1="364" x2="600" y2="374" stroke="#555" stroke-width="1"/>
  <text x="600" y="386" font-family="monospace" font-size="10" fill="#888" text-anchor="middle">GND</text>
  <line x1="632" y1="364" x2="632" y2="374" stroke="#F44336" stroke-width="1.5"/>
  <text x="632" y="386" font-family="monospace" font-size="10" fill="#F44336" text-anchor="middle" font-weight="bold">A+</text>
  <line x1="664" y1="364" x2="664" y2="374" stroke="#4CAF50" stroke-width="1.5"/>
  <text x="664" y="386" font-family="monospace" font-size="10" fill="#4CAF50" text-anchor="middle" font-weight="bold">A−</text>
  <line x1="696" y1="364" x2="696" y2="374" stroke="#2196F3" stroke-width="1.5"/>
  <text x="696" y="386" font-family="monospace" font-size="10" fill="#2196F3" text-anchor="middle" font-weight="bold">B+</text>
  <line x1="728" y1="364" x2="728" y2="374" stroke="#AAA" stroke-width="1.5"/>
  <text x="728" y="386" font-family="monospace" font-size="10" fill="#AAA" text-anchor="middle" font-weight="bold">B−</text>
  <line x1="764" y1="364" x2="764" y2="374" stroke="#00E5FF" stroke-width="1.5"/>
  <text x="764" y="386" font-family="monospace" font-size="10" fill="#00E5FF" text-anchor="middle" font-weight="bold">PUL+</text>
  <line x1="796" y1="364" x2="796" y2="374" stroke="#555" stroke-width="1"/>
  <text x="796" y="386" font-family="monospace" font-size="10" fill="#666" text-anchor="middle">PUL−</text>
  <line x1="828" y1="364" x2="828" y2="374" stroke="#00E5FF" stroke-width="1.5"/>
  <text x="828" y="386" font-family="monospace" font-size="10" fill="#00E5FF" text-anchor="middle" font-weight="bold">DIR+</text>
  <line x1="860" y1="364" x2="860" y2="374" stroke="#555" stroke-width="1"/>
  <text x="860" y="386" font-family="monospace" font-size="10" fill="#666" text-anchor="middle">DIR−</text>
  <line x1="892" y1="364" x2="892" y2="374" stroke="#00E5FF" stroke-width="1.5"/>
  <text x="892" y="386" font-family="monospace" font-size="10" fill="#00E5FF" text-anchor="middle" font-weight="bold">EN+</text>
  <line x1="924" y1="364" x2="924" y2="374" stroke="#555" stroke-width="1"/>
  <text x="924" y="386" font-family="monospace" font-size="10" fill="#666" text-anchor="middle">EN−</text>

  <!-- ═══════════════════════════════════════
       NEMA 23
       ═══════════════════════════════════════ -->
  <g transform="translate(980, 84)">
    <rect width="280" height="340" rx="14" fill="#061410" stroke="#1DE9B6" stroke-width="2.5"/>
    <rect width="280" height="50" rx="14" fill="#1DE9B6" fill-opacity="0.10"/>
    <rect y="36" width="280" height="14" fill="#1DE9B6" fill-opacity="0.10"/>
    <text x="140" y="24" font-family="sans-serif" font-size="19" fill="#1DE9B6" text-anchor="middle" font-weight="bold" letter-spacing="2">NEMA 23</text>
    <text x="140" y="44" font-family="sans-serif" font-size="12" fill="#559977" text-anchor="middle">3.0 Nm Bipolar Stepper</text>
    <circle cx="140" cy="155" r="58" fill="none" stroke="#1DE9B6" stroke-width="2.5"/>
    <circle cx="140" cy="155" r="16" fill="#0C201A" stroke="#1DE9B6" stroke-width="2"/>
    <text x="140" y="161" font-family="sans-serif" font-size="15" fill="#1DE9B6" text-anchor="middle" font-weight="bold">M</text>
    <rect x="192" y="149" width="30" height="12" rx="4" fill="#1DE9B6" fill-opacity="0.35"/>
    <text x="140" y="240" font-family="sans-serif" font-size="12" fill="#448866" text-anchor="middle">4-wire bipolar · 200 steps/rev</text>
    <rect x="20" y="262" width="240" height="40" rx="8" fill="#040A08" stroke="#1A4433" stroke-width="1.5"/>
    <text x="140" y="278" font-family="sans-serif" font-size="13" fill="#1DE9B6" text-anchor="middle" font-weight="bold">1:199.5 Gear → 0.02–1.0 RPM</text>
    <text x="140" y="294" font-family="sans-serif" font-size="12" fill="#448866" text-anchor="middle">→ Welding Table / Positioner</text>
    <rect x="32" y="314" width="216" height="28" rx="4" fill="#040A08" stroke="#1A4433" stroke-width="1"/>
    <circle cx="40"  cy="328" r="8" fill="#0D0800" stroke="#777" stroke-width="1.5"/><circle cx="40"  cy="328" r="2" fill="#888"/>
    <circle cx="80"  cy="328" r="8" fill="#0D0800" stroke="#777" stroke-width="1.5"/><circle cx="80"  cy="328" r="2" fill="#888"/>
    <circle cx="136" cy="328" r="8" fill="#0D0800" stroke="#777" stroke-width="1.5"/><circle cx="136" cy="328" r="2" fill="#888"/>
    <circle cx="176" cy="328" r="8" fill="#0D0800" stroke="#777" stroke-width="1.5"/><circle cx="176" cy="328" r="2" fill="#888"/>
  </g>

  <!-- NEMA pin labels -->
  <line x1="1020" y1="424" x2="1020" y2="440" stroke="#F44336" stroke-width="1.5"/>
  <text x="1020" y="452" font-family="monospace" font-size="11" fill="#F44336" text-anchor="middle" font-weight="bold">A+</text>
  <line x1="1060" y1="424" x2="1060" y2="440" stroke="#4CAF50" stroke-width="1.5"/>
  <text x="1060" y="452" font-family="monospace" font-size="11" fill="#4CAF50" text-anchor="middle" font-weight="bold">A−</text>
  <line x1="1116" y1="424" x2="1116" y2="440" stroke="#2196F3" stroke-width="1.5"/>
  <text x="1116" y="452" font-family="monospace" font-size="11" fill="#2196F3" text-anchor="middle" font-weight="bold">B+</text>
  <line x1="1156" y1="424" x2="1156" y2="440" stroke="#AAA" stroke-width="1.5"/>
  <text x="1156" y="452" font-family="monospace" font-size="11" fill="#AAA" text-anchor="middle" font-weight="bold">B−</text>

  <!-- ═══════════════════════════
       BOTTOM ROW COMPONENTS
       ═══════════════════════════ -->

  <!-- E-STOP -->
  <g transform="translate(20, 840)">
    <rect width="155" height="110" rx="12" fill="#140606" stroke="#FF1744" stroke-width="2.5"/>
    <rect width="155" height="40" rx="12" fill="#FF1744" fill-opacity="0.10"/>
    <rect y="28" width="155" height="12" fill="#FF1744" fill-opacity="0.10"/>
    <text x="78" y="22" font-family="sans-serif" font-size="16" fill="#FF1744" text-anchor="middle" font-weight="bold">E-STOP</text>
    <text x="78" y="36" font-family="sans-serif" font-size="11" fill="#AA4444" text-anchor="middle">NC · Normally Closed</text>
    <circle cx="78" cy="78" r="28" fill="#FF1744" class="estop-pulse" filter="url(#glow-estop)"/>
    <circle cx="78" cy="78" r="22" fill="#FF1744" fill-opacity="0.2" stroke="#FF1744" stroke-width="2"/>
    <circle cx="78" cy="78" r="14" fill="#FF1744" fill-opacity="0.35"/>
    <text x="78" y="84" font-family="sans-serif" font-size="16" fill="#FF1744" text-anchor="middle" font-weight="bold">⏻</text>
    <circle cx="44" cy="0" r="5" fill="#FF1744"/>
    <circle cx="116" cy="0" r="5" fill="#555"/>
    <text x="44" y="-10" font-family="monospace" font-size="11" fill="#FF7070" text-anchor="middle">SIG</text>
    <text x="116" y="-10" font-family="monospace" font-size="11" fill="#888" text-anchor="middle">GND</text>
  </g>

  <!-- POT -->
  <g transform="translate(260, 840)">
    <rect width="195" height="110" rx="12" fill="#100614" stroke="#CC44FF" stroke-width="2.5"/>
    <rect width="195" height="40" rx="12" fill="#CC44FF" fill-opacity="0.10"/>
    <rect y="28" width="195" height="12" fill="#CC44FF" fill-opacity="0.10"/>
    <text x="98" y="22" font-family="sans-serif" font-size="16" fill="#CC88FF" text-anchor="middle" font-weight="bold">10kΩ POT</text>
    <text x="98" y="36" font-family="sans-serif" font-size="11" fill="#885588" text-anchor="middle">Speed Control (ADC)</text>
    <text x="98" y="72" font-family="sans-serif" font-size="18" fill="#CC88FF" text-anchor="middle" font-weight="bold" class="pot-glow">↕ SPEED</text>
    <text x="98" y="92" font-family="sans-serif" font-size="12" fill="#885588" text-anchor="middle">0 – 3.3V → GPIO49</text>
    <text x="98" y="108" font-family="sans-serif" font-size="12" fill="#885588" text-anchor="middle">WIPER</text>
    <circle cx="36" cy="0" r="5" fill="#FF5252"/>
    <circle cx="98" cy="0" r="5" fill="#CC44FF"/>
    <circle cx="160" cy="0" r="5" fill="#555"/>
    <text x="36" y="-10" font-family="monospace" font-size="11" fill="#FF7070" text-anchor="middle">3V3</text>
    <text x="98" y="-10" font-family="monospace" font-size="11" fill="#DD99FF" text-anchor="middle">WIP</text>
    <text x="160" y="-10" font-family="monospace" font-size="11" fill="#888" text-anchor="middle">GND</text>
  </g>

  <!-- DIR SWITCH -->
  <g transform="translate(535, 840)">
    <rect width="175" height="110" rx="12" fill="#0A1418" stroke="#26C6DA" stroke-width="2.5"/>
    <rect width="175" height="40" rx="12" fill="#26C6DA" fill-opacity="0.10"/>
    <rect y="28" width="175" height="12" fill="#26C6DA" fill-opacity="0.10"/>
    <text x="88" y="22" font-family="sans-serif" font-size="16" fill="#26C6DA" text-anchor="middle" font-weight="bold">DIR SWITCH</text>
    <text x="88" y="36" font-family="sans-serif" font-size="11" fill="#448888" text-anchor="middle">CW / CCW Toggle</text>
    <rect x="28" y="56" width="120" height="30" rx="15" fill="#0A2020" stroke="#26C6DA" stroke-width="1.5"/>
    <circle r="11" fill="#26C6DA" fill-opacity="0.5" stroke="#26C6DA" stroke-width="1.5">
      <animateMotion dur="4s" repeatCount="indefinite" calcMode="spline"
        keyTimes="0;0.5;1" keySplines="0.4 0 0.2 1;0.4 0 0.2 1"
        path="M 58 71 L 128 71 L 58 71"/>
    </circle>
    <text x="46" y="76" font-family="sans-serif" font-size="10" text-anchor="middle" font-weight="bold" fill="#26C6DA">CW
      <animate attributeName="fill" values="#26C6DA;#0D3038;#0D3038;#26C6DA" keyTimes="0;0.4;0.6;1" dur="4s" repeatCount="indefinite"/>
    </text>
    <text x="136" y="76" font-family="sans-serif" font-size="10" text-anchor="middle" fill="#0D3038">CCW
      <animate attributeName="fill" values="#0D3038;#0D3038;#26C6DA;#0D3038" keyTimes="0;0.4;0.6;1" dur="4s" repeatCount="indefinite"/>
    </text>
    <text x="88" y="100" font-family="monospace" font-size="11" fill="#4DD0E1" text-anchor="middle">→ GPIO29</text>
    <circle cx="36" cy="0" r="5" fill="#26C6DA"/>
    <circle cx="144" cy="0" r="5" fill="#555"/>
    <text x="36" y="-10" font-family="monospace" font-size="11" fill="#4DD0E1" text-anchor="middle">SIG</text>
    <text x="144" y="-10" font-family="monospace" font-size="11" fill="#888" text-anchor="middle">GND</text>
  </g>

  <!-- 24V PSU -->
  <g transform="translate(790, 840)">
    <rect width="215" height="110" rx="12" fill="#141206" stroke="#FFD600" stroke-width="2.5"/>
    <rect width="215" height="40" rx="12" fill="#FFD600" fill-opacity="0.10"/>
    <rect y="28" width="215" height="12" fill="#FFD600" fill-opacity="0.10"/>
    <text x="108" y="22" font-family="sans-serif" font-size="16" fill="#FFD600" text-anchor="middle" font-weight="bold">24V DC PSU</text>
    <text x="108" y="36" font-family="sans-serif" font-size="11" fill="#AA8833" text-anchor="middle">Min 100W · 4.5A</text>
    <text x="108" y="76" font-family="sans-serif" font-size="20" fill="#FFD600" text-anchor="middle" font-weight="bold">⚡ 24V</text>
    <text x="108" y="100" font-family="sans-serif" font-size="13" fill="#AA8833" text-anchor="middle">Switch-mode PSU</text>
    <circle cx="64"  cy="0" r="5" fill="#FF5252"/>
    <circle cx="156" cy="0" r="5" fill="#555"/>
    <text x="64"  y="-10" font-family="monospace" font-size="11" fill="#FF7070" text-anchor="middle">V+</text>
    <text x="156" y="-10" font-family="monospace" font-size="11" fill="#888" text-anchor="middle">V−</text>
  </g>

  <!-- FOOT PEDAL -->
  <g transform="translate(1040, 840)">
    <rect width="195" height="110" rx="12" fill="#100614" stroke="#CC88FF" stroke-width="2.5"/>
    <rect width="195" height="40" rx="12" fill="#CC88FF" fill-opacity="0.10"/>
    <rect y="28" width="195" height="12" fill="#CC88FF" fill-opacity="0.10"/>
    <text x="98" y="22" font-family="sans-serif" font-size="16" fill="#CC88FF" text-anchor="middle" font-weight="bold">FOOT PEDAL</text>
    <text x="98" y="36" font-family="sans-serif" font-size="11" fill="#885588" text-anchor="middle">Analog POT + Momentary SW</text>
    <text x="98" y="66" font-family="sans-serif" font-size="13" fill="#CC88FF" text-anchor="middle">POT  → GPIO35</text>
    <text x="98" y="84" font-family="sans-serif" font-size="13" fill="#CC88FF" text-anchor="middle">SW   → GPIO33</text>
    <text x="98" y="104" font-family="sans-serif" font-size="11" fill="#885588" text-anchor="middle">Speed + Start</text>
    <circle cx="36" cy="0" r="5" fill="#CC88FF"/>
    <circle cx="80" cy="0" r="5" fill="#FF5252"/>
    <circle cx="124" cy="0" r="5" fill="#CC88FF"/>
    <circle cx="160" cy="0" r="5" fill="#555"/>
    <text x="36" y="-10" font-family="monospace" font-size="10" fill="#DD99FF" text-anchor="middle">POT</text>
    <text x="80" y="-10" font-family="monospace" font-size="10" fill="#FF7070" text-anchor="middle">3V3</text>
    <text x="124" y="-10" font-family="monospace" font-size="10" fill="#DD99FF" text-anchor="middle">SW</text>
    <text x="160" y="-10" font-family="monospace" font-size="10" fill="#888" text-anchor="middle">GND</text>
  </g>

  <!-- ═══════════════════════════════════════════
       WIRING
       ═══════════════════════════════════════════ -->

  <!-- ── GND BUS (y=770) ── -->
  <line x1="-10" y1="770" x2="1200" y2="770" stroke="#444" stroke-width="3" stroke-linecap="round"/>
  <text x="610" y="766" font-family="sans-serif" font-size="10" fill="#666666" text-anchor="middle" letter-spacing="3">GND BUS</text>

  <!-- ESP GND → bus -->
  <path d="M 113,249 L -10,249 L -10,770" fill="none" stroke="#444" stroke-width="2" stroke-linecap="round" stroke-linejoin="round"/>
  <circle cx="113" cy="249" r="4" fill="#555"/>
  <circle cx="-10" cy="770" r="4" fill="#555"/>

  <!-- Device GNDs → bus -->
  <line x1="136" y1="840" x2="136" y2="770" stroke="#444" stroke-width="2" stroke-linecap="round"/>
  <circle cx="136" cy="770" r="3.5" fill="#555"/>
  <line x1="420" y1="840" x2="420" y2="770" stroke="#444" stroke-width="2" stroke-linecap="round"/>
  <circle cx="420" cy="770" r="3.5" fill="#555"/>
  <line x1="679" y1="840" x2="679" y2="770" stroke="#444" stroke-width="2" stroke-linecap="round"/>
  <circle cx="679" cy="770" r="3.5" fill="#555"/>
  <line x1="946" y1="840" x2="946" y2="770" stroke="#444" stroke-width="2" stroke-linecap="round"/>
  <circle cx="946" cy="770" r="3.5" fill="#555"/>

  <!-- Bus → TB6600 GNDs -->
  <line x1="600" y1="770" x2="600" y2="349" stroke="#444" stroke-width="2" stroke-linecap="round"/>
  <circle cx="600" cy="770" r="3.5" fill="#555"/>
  <line x1="796" y1="770" x2="796" y2="349" stroke="#444" stroke-width="2" stroke-linecap="round"/>
  <circle cx="796" cy="770" r="3.5" fill="#555"/>
  <line x1="860" y1="770" x2="860" y2="349" stroke="#444" stroke-width="2" stroke-linecap="round"/>
  <circle cx="860" cy="770" r="3.5" fill="#555"/>
  <line x1="924" y1="770" x2="924" y2="349" stroke="#444" stroke-width="2" stroke-linecap="round"/>
  <circle cx="924" cy="770" r="3.5" fill="#555"/>

  <!-- ── SIGNAL: ESP → TB6600 ── -->
  <path id="step-path" d="M 122,339 L 468,339 Q 478,339 478,349 L 478,584 Q 478,594 488,594 L 754,594 Q 764,594 764,584 L 764,349"
        fill="none" stroke="#00E5FF" stroke-width="3" stroke-linecap="round" filter="url(#glow-sig)" marker-end="url(#arr-cyan)"/>
  <circle cx="122" cy="339" r="4" fill="#00E5FF"/>
  <circle r="4" fill="#FFFFFF" opacity="0">
    <animateMotion dur="1.8s" repeatCount="indefinite"
      path="M 122 339 L 468 339 Q 478 339 478 349 L 478 584 Q 478 594 488 594 L 754 594 Q 764 594 764 584 L 764 349"/>
    <animate attributeName="opacity" values="0;0;1;1;1;0" keyTimes="0;0.02;0.05;0.85;0.95;1" dur="1.8s" repeatCount="indefinite"/>
    <animate attributeName="r" values="3;5;5;3" dur="1.8s" repeatCount="indefinite"/>
  </circle>

  <path d="M 122,309 L 458,309 Q 468,309 468,319 L 468,610 Q 468,620 478,620 L 818,620 Q 828,620 828,610 L 828,349"
        fill="none" stroke="#00E5FF" stroke-width="3" stroke-linecap="round" filter="url(#glow-sig)" marker-end="url(#arr-cyan)"/>
  <circle cx="122" cy="309" r="4" fill="#00E5FF"/>

  <path d="M 122,279 L 448,279 Q 458,279 458,289 L 458,636 Q 458,646 468,646 L 882,646 Q 892,646 892,636 L 892,349"
        fill="none" stroke="#00E5FF" stroke-width="3" stroke-linecap="round" filter="url(#glow-sig)" marker-end="url(#arr-cyan)"/>
  <circle cx="122" cy="279" r="4" fill="#00E5FF"/>

  <!-- ── MOTOR: TB6600 → NEMA ── -->
  <path d="M 632,349 L 632,472 Q 632,480 640,480 L 1012,480 Q 1020,480 1020,472 L 1020,412"
        fill="none" stroke="#F44336" stroke-width="3" stroke-linecap="round" stroke-linejoin="round"/>
  <circle cx="1020" cy="412" r="4" fill="#F44336"/>
  <path d="M 664,349 L 664,490 Q 664,498 672,498 L 1052,498 Q 1060,498 1060,490 L 1060,412"
        fill="none" stroke="#4CAF50" stroke-width="3" stroke-linecap="round" stroke-linejoin="round"/>
  <circle cx="1060" cy="412" r="4" fill="#4CAF50"/>
  <path d="M 696,349 L 696,506 Q 696,514 704,514 L 1108,514 Q 1116,514 1116,506 L 1116,412"
        fill="none" stroke="#2196F3" stroke-width="3" stroke-linecap="round" stroke-linejoin="round"/>
  <circle cx="1116" cy="412" r="4" fill="#2196F3"/>
  <path d="M 728,349 L 728,522 Q 728,530 736,530 L 1148,530 Q 1156,530 1156,522 L 1156,412"
        fill="none" stroke="#AAA" stroke-width="3" stroke-linecap="round" stroke-linejoin="round"/>
  <circle cx="1156" cy="412" r="4" fill="#AAA"/>

  <text x="800" y="478" font-family="monospace" font-size="11" fill="#F44336" font-weight="bold">RED A+</text>
  <text x="830" y="496" font-family="monospace" font-size="11" fill="#4CAF50" font-weight="bold">GRN A−</text>
  <text x="860" y="514" font-family="monospace" font-size="11" fill="#2196F3" font-weight="bold">BLU B+</text>
  <text x="890" y="530" font-family="monospace" font-size="11" fill="#AAA" font-weight="bold">BLK B−</text>

  <!-- ── POWER: PSU → TB6600 ── -->
  <path d="M 854,840 L 854,798 Q 854,790 846,790 L 576,790 Q 568,790 568,782 L 568,349"
        fill="none" stroke="#FF5252" stroke-width="3" stroke-dasharray="12 5" stroke-linecap="round" class="power-flow"/>
  <circle cx="568" cy="349" r="4" fill="#FF5252"/>

  <!-- ── E-STOP → ESP GPIO34 ── -->
  <path d="M 64,840 L 64,429 L 113,429"
        fill="none" stroke="#FF1744" stroke-width="2.5" stroke-linecap="round" stroke-linejoin="round"/>
  <circle cx="64" cy="840" r="4" fill="#FF1744"/>
  <circle cx="113" cy="429" r="4" fill="#FF1744"/>

  <!-- ── POT WIPER → ESP GPIO49 (routed left of ESP to avoid GPIO29 area) ── -->
  <path d="M 358,840 L 358,770 L 20,770 L 20,369 L 113,369"
        fill="none" stroke="#CC44FF" stroke-width="2.5" stroke-linecap="round" stroke-linejoin="round"/>
  <circle cx="358" cy="840" r="4" fill="#CC44FF"/>
  <circle cx="113" cy="369" r="4" fill="#CC44FF"/>

  <path d="M 296,840 L 296,189 L 113,189"
        fill="none" stroke="#FF5252" stroke-width="1.5" stroke-dasharray="6 4" stroke-linecap="round" stroke-linejoin="round" opacity="0.5"/>
  <circle cx="296" cy="840" r="3" fill="#FF5252" opacity="0.5"/>

  <!-- ── DIR SWITCH → ESP GPIO29 (routed left of power cable) ── -->
  <path d="M 571,840 L 555,840 L 555,369 L 348,369"
        fill="none" stroke="#26C6DA" stroke-width="2.5" stroke-linecap="round" stroke-linejoin="round"/>
  <circle cx="571" cy="840" r="4" fill="#26C6DA"/>
  <circle cx="348" cy="369" r="4" fill="#26C6DA"/>

  <!-- ── FOOT PEDAL POT → ESP GPIO35 ── -->
  <path d="M 1076,840 L 1076,755 L 40,755 L 40,399 L 113,399"
        fill="none" stroke="#CC44FF" stroke-width="2.5" stroke-linecap="round" stroke-linejoin="round"/>
  <circle cx="1076" cy="840" r="4" fill="#CC44FF"/>
  <circle cx="113" cy="399" r="4" fill="#CC44FF"/>

  <!-- ── FOOT PEDAL SW → ESP GPIO33 ── -->
  <path d="M 1164,840 L 1164,745 L 365,745 L 365,279 L 339,279"
        fill="none" stroke="#CC88FF" stroke-width="2.5" stroke-linecap="round" stroke-linejoin="round"/>
  <circle cx="1164" cy="840" r="4" fill="#CC88FF"/>
  <circle cx="339" cy="279" r="4" fill="#CC88FF"/>

  <!-- ── FOOT PEDAL GND → bus ── -->
  <line x1="1200" y1="840" x2="1200" y2="770" stroke="#444" stroke-width="2" stroke-linecap="round"/>
  <circle cx="1200" cy="770" r="3.5" fill="#555"/>

  <!-- ── FOOT PEDAL 3V3 (dashed) ── -->
  <path d="M 1120,840 L 1120,798 Q 1120,790 1112,790 L 296,790 Q 288,790 288,782 L 288,189 L 113,189"
        fill="none" stroke="#FF5252" stroke-width="1.5" stroke-dasharray="6 4" stroke-linecap="round" stroke-linejoin="round" opacity="0.4"/>
  <circle cx="1120" cy="840" r="3" fill="#FF5252" opacity="0.4"/>

  <!-- ═══════════════════════════
       MOTOR ROTATION ANIMATION
       (Snur retning synkronisert med DIR-switch)
       ═══════════════════════════ -->
  <g>
    <line x1="1120" y1="210" x2="1120" y2="192" stroke="#1DE9B6" stroke-width="2.5" stroke-linecap="round"/>
    <circle cx="1120" cy="188" r="3" fill="#1DE9B6"/>
    <animateTransform attributeName="transform" type="rotate"
      values="0 1120 239; 360 1120 239; 0 1120 239"
      keyTimes="0; 0.5; 1"
      calcMode="linear"
      dur="4s" repeatCount="indefinite"/>
  </g>

  <!-- ═══════════════════════════
        PIN REFERENCE
        ═══════════════════════════ -->
  <g transform="translate(20, 960)">
    <rect width="420" height="260" rx="12" fill="#060A08" stroke="#1A3322" stroke-width="1.5"/>
    <text x="210" y="24" font-family="sans-serif" font-size="16" fill="#55AA77" text-anchor="middle" font-weight="bold" letter-spacing="1">PIN REFERENCE</text>
    <text x="18" y="50"  font-family="monospace" font-size="14" fill="#CCEE66">GPIO50</text><text x="106" y="50"  font-family="monospace" font-size="14" fill="#CCC">→  TB6600  PUL+  (STEP)</text>
    <text x="18" y="72"  font-family="monospace" font-size="14" fill="#CCEE66">GPIO51</text><text x="106" y="72"  font-family="monospace" font-size="14" fill="#CCC">→  TB6600  DIR+</text>
    <text x="18" y="94"  font-family="monospace" font-size="14" fill="#CCEE66">GPIO52</text><text x="106" y="94"  font-family="monospace" font-size="14" fill="#CCC">→  TB6600  EN+  (ENA)</text>
    <text x="18" y="116" font-family="monospace" font-size="14" fill="#DD99FF">GPIO49</text><text x="106" y="116" font-family="monospace" font-size="14" fill="#CCC">→  Potentiometer (ADC)</text>
    <text x="18" y="138" font-family="monospace" font-size="14" fill="#FF6666">GPIO34</text><text x="106" y="138" font-family="monospace" font-size="14" fill="#CCC">→  E-STOP  NC contact</text>
    <text x="18" y="160" font-family="monospace" font-size="14" fill="#DD99FF">GPIO33</text><text x="106" y="160" font-family="monospace" font-size="14" fill="#CCC">→  Foot Pedal SW (active LOW)</text>
    <text x="18" y="182" font-family="monospace" font-size="14" fill="#DD99FF">GPIO35</text><text x="106" y="182" font-family="monospace" font-size="14" fill="#CCC">→  Foot Pedal POT (ADC)</text>
    <text x="18" y="204" font-family="monospace" font-size="14" fill="#888">GND</text>   <text x="106" y="204" font-family="monospace" font-size="14" fill="#888">→  all minus (−) pins</text>
    <text x="18" y="226" font-family="monospace" font-size="14" fill="#4DD0E1">GPIO29</text><text x="106" y="226" font-family="monospace" font-size="14" fill="#CCC">→  DIR Switch (CW/CCW)</text>
    <text x="18" y="248" font-family="monospace" font-size="14" fill="#5599DD">GPIO28/32</text><text x="106" y="248" font-family="monospace" font-size="14" fill="#888">→  C6 UART (reserved)</text>
  </g>

  <!-- ═══════════════════════════
        WIRE LEGEND
        ═══════════════════════════ -->
  <g transform="translate(460, 960)">
    <rect width="420" height="148" rx="12" fill="#060A08" stroke="#1A3322" stroke-width="1.5"/>
    <text x="210" y="24" font-family="sans-serif" font-size="16" fill="#55AA77" text-anchor="middle" font-weight="bold" letter-spacing="1">WIRE LEGEND</text>
    <line x1="18" y1="48" x2="72" y2="48" stroke="#00E5FF" stroke-width="3"/>
    <text x="84" y="54" font-family="sans-serif" font-size="15" fill="#CCC">Signal  (STEP / DIR / ENA)</text>
    <line x1="18" y1="72" x2="72" y2="72" stroke="#FF5252" stroke-width="3" stroke-dasharray="12 5"/>
    <text x="84" y="78" font-family="sans-serif" font-size="15" fill="#CCC">Power  (24V / 3.3V)</text>
    <line x1="18" y1="96" x2="72" y2="96" stroke="#555" stroke-width="3"/>
    <text x="84" y="102" font-family="sans-serif" font-size="15" fill="#CCC">Ground  (GND)</text>
    <line x1="18" y1="120" x2="40" y2="120" stroke="#F44336" stroke-width="3"/>
    <line x1="40" y1="120" x2="72" y2="120" stroke="#2196F3" stroke-width="3"/>
    <text x="84" y="126" font-family="sans-serif" font-size="15" fill="#CCC">Motor coils (A+/A− B+/B−)</text>
    <line x1="18" y1="144" x2="72" y2="144" stroke="#CC44FF" stroke-width="2.5"/>
    <text x="84" y="146" font-family="sans-serif" font-size="15" fill="#CCC">POT wiper / E-STOP / DIR SW</text>
  </g>

</g>
</svg>