<svg xmlns="http://www.w3.org/2000/svg" viewBox="0 0 1800 1100" width="1800" height="1100">
  <defs>
    <marker id="arrowC" markerWidth="10" markerHeight="7" refX="9" refY="3.5" orient="auto">
      <polygon points="0 0, 10 3.5, 0 7" fill="#00E5FF"/>
    </marker>
    <marker id="arrowR" markerWidth="10" markerHeight="7" refX="9" refY="3.5" orient="auto">
      <polygon points="0 0, 10 3.5, 0 7" fill="#FF5252"/>
    </marker>
    <marker id="arrowG" markerWidth="10" markerHeight="7" refX="9" refY="3.5" orient="auto">
      <polygon points="0 0, 10 3.5, 0 7" fill="#666"/>
    </marker>
    <marker id="arrowT" markerWidth="10" markerHeight="7" refX="9" refY="3.5" orient="auto">
      <polygon points="0 0, 10 3.5, 0 7" fill="#1DE9B6"/>
    </marker>
  </defs>

  <!-- Background -->
  <rect width="1800" height="1100" fill="#080C0C"/>

  <!-- Title -->
  <text x="900" y="44" font-family="sans-serif" font-size="34" fill="#FFFFFF" text-anchor="middle" font-weight="bold">TIG Rotator — Wiring Diagram</text>
  <text x="900" y="70" font-family="sans-serif" font-size="17" fill="#66AAAA" text-anchor="middle">ESP32-P4 · TB6600 Stepper Driver · NEMA 23 · 24V DC Power Supply</text>
  <rect x="100" y="82" width="1600" height="2" fill="#1A3333"/>

  <!-- ══════════════════════════════════════════════════════
       ESP32-P4 BOARD
       ══════════════════════════════════════════════════ -->
  <g transform="translate(40, 100)">
    <rect width="380" height="680" rx="14" fill="#071214" stroke="#00E5FF" stroke-width="2.5"/>
    <!-- Header band -->
    <rect x="0" y="0" width="380" height="56" rx="14" fill="#00E5FF" fill-opacity="0.12"/>
    <rect x="0" y="42" width="380" height="14" fill="#00E5FF" fill-opacity="0.12"/>
    <text x="190" y="26" font-family="sans-serif" font-size="20" fill="#00E5FF" text-anchor="middle" font-weight="bold" letter-spacing="2">ESP32-P4</text>
    <text x="190" y="48" font-family="sans-serif" font-size="13" fill="#669999" text-anchor="middle">Waveshare / Guition JC4880P433  4.3"</text>

    <!-- Header block label -->
    <text x="190" y="78" font-family="sans-serif" font-size="13" fill="#335555" text-anchor="middle" font-weight="bold" letter-spacing="1">2 × 13  GPIO HEADER</text>
    <rect x="70" y="84" width="240" height="574" rx="6" fill="#040A0A" stroke="#162626" stroke-width="1"/>

    <!-- Helper macro: each row Y = 100 + n*42, pin-sq = 18px, step 42 -->

    <!-- ROW 1 — 3V3 | 5V -->
    <rect x="80"  y="100" width="18" height="18" rx="3" fill="#1A0606" stroke="#FF5252" stroke-width="1.5"/>
    <text x="104" y="114" font-family="monospace" font-size="14" fill="#FF7070">3V3</text>
    <text x="275" y="114" font-family="monospace" font-size="14" fill="#FF7070" text-anchor="end">5V</text>
    <rect x="278" y="100" width="18" height="18" rx="3" fill="#1A0606" stroke="#FF5252" stroke-width="1.5"/>

    <!-- ROW 2 — 3V3 | 5V -->
    <rect x="80"  y="142" width="18" height="18" rx="3" fill="#1A0606" stroke="#FF5252" stroke-width="1.5"/>
    <text x="104" y="156" font-family="monospace" font-size="14" fill="#FF7070">3V3</text>
    <text x="275" y="156" font-family="monospace" font-size="14" fill="#FF7070" text-anchor="end">5V</text>
    <rect x="278" y="142" width="18" height="18" rx="3" fill="#1A0606" stroke="#FF5252" stroke-width="1.5"/>

    <!-- ROW 3 — GND | GND -->
    <rect x="80"  y="184" width="18" height="18" rx="3" fill="#1A1A1A" stroke="#666" stroke-width="1.5"/>
    <text x="104" y="198" font-family="monospace" font-size="14" fill="#AAAAAA">GND</text>
    <text x="275" y="198" font-family="monospace" font-size="14" fill="#AAAAAA" text-anchor="end">GND</text>
    <rect x="278" y="184" width="18" height="18" rx="3" fill="#1A1A1A" stroke="#666" stroke-width="1.5"/>

    <!-- ROW 4 — GPIO52 ENA | GPIO33 E-STOP -->
    <rect x="80"  y="226" width="18" height="18" rx="3" fill="#061214" stroke="#00E5FF" stroke-width="2"/>
    <text x="104" y="240" font-family="monospace" font-size="14" fill="#00DDFF">GPIO52</text>
    <text x="275" y="240" font-family="monospace" font-size="14" fill="#FF5252" text-anchor="end">GPIO33</text>
    <rect x="278" y="226" width="18" height="18" rx="3" fill="#140606" stroke="#FF1744" stroke-width="2"/>

    <!-- ROW 5 — GPIO51 DIR | GPIO31 -->
    <rect x="80"  y="268" width="18" height="18" rx="3" fill="#061214" stroke="#00E5FF" stroke-width="2"/>
    <text x="104" y="282" font-family="monospace" font-size="14" fill="#00DDFF">GPIO51</text>
    <text x="275" y="282" font-family="monospace" font-size="14" fill="#555555" text-anchor="end">GPIO31</text>
    <rect x="278" y="268" width="18" height="18" rx="3" fill="#1A1A1A" stroke="#444" stroke-width="1"/>

    <!-- ROW 6 — GPIO50 STEP | GPIO30 -->
    <rect x="80"  y="310" width="18" height="18" rx="3" fill="#061214" stroke="#00E5FF" stroke-width="2"/>
    <text x="104" y="324" font-family="monospace" font-size="14" fill="#00DDFF">GPIO50</text>
    <text x="275" y="324" font-family="monospace" font-size="14" fill="#555555" text-anchor="end">GPIO30</text>
    <rect x="278" y="310" width="18" height="18" rx="3" fill="#1A1A1A" stroke="#444" stroke-width="1"/>

    <!-- ROW 7 — GPIO49 POT | GPIO29 -->
    <rect x="80"  y="352" width="18" height="18" rx="3" fill="#120614" stroke="#CC44FF" stroke-width="2"/>
    <text x="104" y="366" font-family="monospace" font-size="14" fill="#DD99FF">GPIO49</text>
    <text x="275" y="366" font-family="monospace" font-size="14" fill="#555555" text-anchor="end">GPIO29</text>
    <rect x="278" y="352" width="18" height="18" rx="3" fill="#1A1A1A" stroke="#444" stroke-width="1"/>

    <!-- ROW 8 — GPIO35 | GND -->
    <rect x="80"  y="394" width="18" height="18" rx="3" fill="#1A1A1A" stroke="#444" stroke-width="1"/>
    <text x="104" y="408" font-family="monospace" font-size="14" fill="#555555">GPIO35</text>
    <text x="275" y="408" font-family="monospace" font-size="14" fill="#AAAAAA" text-anchor="end">GND</text>
    <rect x="278" y="394" width="18" height="18" rx="3" fill="#1A1A1A" stroke="#666" stroke-width="1.5"/>

    <!-- ROW 9 — GPIO34 E-STOP | ESP_3V3 -->
    <rect x="80"  y="436" width="18" height="18" rx="3" fill="#140606" stroke="#FF1744" stroke-width="2"/>
    <text x="104" y="450" font-family="monospace" font-size="14" fill="#FF5252">GPIO34</text>
    <text x="275" y="450" font-family="monospace" font-size="14" fill="#666666" text-anchor="end">ESP_3V3</text>
    <rect x="278" y="436" width="18" height="18" rx="3" fill="#1A1A1A" stroke="#444" stroke-width="1"/>

    <!-- ROW 10-13 (future / dimmed) -->
    <rect x="80"  y="478" width="18" height="18" rx="3" fill="#111" stroke="#333" stroke-width="1"/>
    <text x="104" y="492" font-family="monospace" font-size="14" fill="#333333">GPIO32</text>
    <text x="275" y="492" font-family="monospace" font-size="14" fill="#333333" text-anchor="end">C6_RX</text>
    <rect x="278" y="478" width="18" height="18" rx="3" fill="#111" stroke="#333" stroke-width="1"/>

    <rect x="80"  y="520" width="18" height="18" rx="3" fill="#111" stroke="#333" stroke-width="1"/>
    <text x="104" y="534" font-family="monospace" font-size="14" fill="#333333">GPIO28</text>
    <text x="275" y="534" font-family="monospace" font-size="14" fill="#333333" text-anchor="end">C6_TX</text>
    <rect x="278" y="520" width="18" height="18" rx="3" fill="#111" stroke="#333" stroke-width="1"/>

    <rect x="80"  y="562" width="18" height="18" rx="3" fill="#111" stroke="#333" stroke-width="1"/>
    <text x="104" y="576" font-family="monospace" font-size="14" fill="#333333">I2C_SDA</text>
    <text x="275" y="576" font-family="monospace" font-size="14" fill="#333333" text-anchor="end">C6_IO9</text>
    <rect x="278" y="562" width="18" height="18" rx="3" fill="#111" stroke="#333" stroke-width="1"/>

    <rect x="80"  y="604" width="18" height="18" rx="3" fill="#111" stroke="#333" stroke-width="1"/>
    <text x="104" y="618" font-family="monospace" font-size="14" fill="#333333">I2C_SCL</text>
    <text x="275" y="618" font-family="monospace" font-size="14" fill="#333333" text-anchor="end">C6_EN</text>
    <rect x="278" y="604" width="18" height="18" rx="3" fill="#111" stroke="#333" stroke-width="1"/>

    <!-- USB-C -->
    <rect x="140" y="652" width="100" height="8" rx="4" fill="#1A3333"/>
    <text x="190" y="672" font-family="sans-serif" font-size="12" fill="#446666" text-anchor="middle">USB-C  (Programming / Serial)</text>
  </g>

  <!-- Pin function labels RIGHT of ESP -->
  <text x="434" y="245" font-family="sans-serif" font-size="15" fill="#00E5FF" font-weight="bold">ENA</text>
  <text x="434" y="287" font-family="sans-serif" font-size="15" fill="#00E5FF" font-weight="bold">DIR</text>
  <text x="434" y="329" font-family="sans-serif" font-size="15" fill="#00E5FF" font-weight="bold">STEP</text>
  <text x="434" y="455" font-family="sans-serif" font-size="15" fill="#FF5252" font-weight="bold">E-STOP</text>

  <!-- Pin function labels LEFT of ESP -->
  <text x="32"  y="371" font-family="sans-serif" font-size="15" fill="#DD99FF" font-weight="bold" text-anchor="end">POT</text>

  <!-- ══════════════════════════════════════════════════════
       TB6600 DRIVER
       ══════════════════════════════════════════════════ -->
  <g transform="translate(640, 100)">
    <rect width="280" height="580" rx="14" fill="#140F06" stroke="#FF9100" stroke-width="2.5"/>
    <rect x="0" y="0" width="280" height="56" rx="14" fill="#FF9100" fill-opacity="0.12"/>
    <rect x="0" y="42" width="280" height="14" fill="#FF9100" fill-opacity="0.12"/>
    <text x="140" y="26" font-family="sans-serif" font-size="20" fill="#FF9100" text-anchor="middle" font-weight="bold" letter-spacing="2">TB6600</text>
    <text x="140" y="48" font-family="sans-serif" font-size="13" fill="#996633" text-anchor="middle">Microstep Stepper Driver</text>

    <!-- SIGNAL section -->
    <text x="140" y="76" font-family="sans-serif" font-size="13" fill="#886633" text-anchor="middle" font-weight="bold" letter-spacing="1">SIGNAL PINS</text>

    <!-- ENA- -->
    <rect x="12" y="86"  width="20" height="20" rx="4" fill="#1A1A1A" stroke="#555" stroke-width="1.5"/>
    <text x="40" y="101" font-family="monospace" font-size="15" fill="#888888">ENA −</text>
    <!-- ENA+ -->
    <rect x="12" y="116" width="20" height="20" rx="4" fill="#061214" stroke="#00E5FF" stroke-width="2"/>
    <text x="40" y="131" font-family="monospace" font-size="15" fill="#00E5FF">ENA +</text>
    <!-- DIR- -->
    <rect x="12" y="146" width="20" height="20" rx="4" fill="#1A1A1A" stroke="#555" stroke-width="1.5"/>
    <text x="40" y="161" font-family="monospace" font-size="15" fill="#888888">DIR −</text>
    <!-- DIR+ -->
    <rect x="12" y="176" width="20" height="20" rx="4" fill="#061214" stroke="#00E5FF" stroke-width="2"/>
    <text x="40" y="191" font-family="monospace" font-size="15" fill="#00E5FF">DIR +</text>
    <!-- PUL- -->
    <rect x="12" y="206" width="20" height="20" rx="4" fill="#1A1A1A" stroke="#555" stroke-width="1.5"/>
    <text x="40" y="221" font-family="monospace" font-size="15" fill="#888888">PUL −</text>
    <!-- PUL+ -->
    <rect x="12" y="236" width="20" height="20" rx="4" fill="#061214" stroke="#00E5FF" stroke-width="2"/>
    <text x="40" y="251" font-family="monospace" font-size="15" fill="#00E5FF">PUL +</text>

    <!-- Divider -->
    <rect x="16" y="270" width="248" height="2" fill="#2A1A0A"/>
    <text x="140" y="292" font-family="sans-serif" font-size="13" fill="#886633" text-anchor="middle" font-weight="bold" letter-spacing="1">MOTOR COIL PINS</text>

    <!-- A+ A- B+ B- -->
    <rect x="12" y="302" width="20" height="20" rx="4" fill="#180404" stroke="#F44336" stroke-width="2"/>
    <text x="40" y="317" font-family="monospace" font-size="15" fill="#F44336">A +</text>
    <rect x="12" y="332" width="20" height="20" rx="4" fill="#1A1A1A" stroke="#555" stroke-width="1.5"/>
    <text x="40" y="347" font-family="monospace" font-size="15" fill="#AAAAAA">A −</text>
    <rect x="12" y="362" width="20" height="20" rx="4" fill="#040C18" stroke="#2196F3" stroke-width="2"/>
    <text x="40" y="377" font-family="monospace" font-size="15" fill="#2196F3">B +</text>
    <rect x="12" y="392" width="20" height="20" rx="4" fill="#1A1A1A" stroke="#555" stroke-width="1.5"/>
    <text x="40" y="407" font-family="monospace" font-size="15" fill="#AAAAAA">B −</text>

    <!-- Divider -->
    <rect x="16" y="426" width="248" height="2" fill="#2A1A0A"/>
    <text x="140" y="448" font-family="sans-serif" font-size="13" fill="#886633" text-anchor="middle" font-weight="bold" letter-spacing="1">POWER</text>

    <!-- VCC GND -->
    <rect x="12" y="456" width="20" height="20" rx="4" fill="#140404" stroke="#FF1744" stroke-width="2"/>
    <text x="40" y="471" font-family="monospace" font-size="15" fill="#FF5252">VCC  (24V)</text>
    <rect x="12" y="486" width="20" height="20" rx="4" fill="#1A1A1A" stroke="#666" stroke-width="1.5"/>
    <text x="40" y="501" font-family="monospace" font-size="15" fill="#AAAAAA">GND</text>

    <!-- DIP Switch -->
    <rect x="20" y="520" width="240" height="54" rx="8" fill="#0A0500" stroke="#553300" stroke-width="1.5"/>
    <text x="140" y="538" font-family="sans-serif" font-size="13" fill="#886633" text-anchor="middle" letter-spacing="1">DIP SWITCH  SETTING</text>
    <text x="140" y="558" font-family="sans-serif" font-size="16" fill="#FF9100" text-anchor="middle" font-weight="bold">1/8 step  ·  3.0A peak</text>
  </g>

  <!-- ══════════════════════════════════════════════════════
       NEMA 23 MOTOR
       ══════════════════════════════════════════════════ -->
  <g transform="translate(1100, 90)">
    <rect width="300" height="380" rx="14" fill="#061410" stroke="#1DE9B6" stroke-width="2.5"/>
    <rect x="0" y="0" width="300" height="56" rx="14" fill="#1DE9B6" fill-opacity="0.10"/>
    <rect x="0" y="42" width="300" height="14" fill="#1DE9B6" fill-opacity="0.10"/>
    <text x="150" y="26" font-family="sans-serif" font-size="20" fill="#1DE9B6" text-anchor="middle" font-weight="bold" letter-spacing="2">NEMA 23</text>
    <text x="150" y="48" font-family="sans-serif" font-size="13" fill="#226644" text-anchor="middle">3.0 Nm Bipolar Stepper Motor</text>

    <!-- Motor circle symbol -->
    <circle cx="150" cy="170" r="68" fill="none" stroke="#1DE9B6" stroke-width="2.5"/>
    <circle cx="150" cy="170" r="20" fill="#0C201A" stroke="#1DE9B6" stroke-width="2"/>
    <text x="150" y="176" font-family="sans-serif" font-size="16" fill="#1DE9B6" text-anchor="middle" font-weight="bold">M</text>
    <!-- shaft -->
    <rect x="210" y="163" width="38" height="14" rx="5" fill="#1DE9B6" fill-opacity="0.4"/>

    <!-- Coil lead pins LEFT -->
    <rect x="0"  y="120" width="20" height="20" rx="4" fill="#180404" stroke="#F44336" stroke-width="2"/>
    <text x="-8" y="135" font-family="monospace" font-size="14" fill="#F44336" text-anchor="end">A+</text>
    <rect x="0"  y="152" width="20" height="20" rx="4" fill="#1A1A1A" stroke="#666" stroke-width="1.5"/>
    <text x="-8" y="167" font-family="monospace" font-size="14" fill="#AAAAAA" text-anchor="end">A−</text>
    <rect x="0"  y="184" width="20" height="20" rx="4" fill="#040C18" stroke="#2196F3" stroke-width="2"/>
    <text x="-8" y="199" font-family="monospace" font-size="14" fill="#2196F3" text-anchor="end">B+</text>
    <rect x="0"  y="216" width="20" height="20" rx="4" fill="#1A1A1A" stroke="#666" stroke-width="1.5"/>
    <text x="-8" y="231" font-family="monospace" font-size="14" fill="#AAAAAA" text-anchor="end">B−</text>

    <!-- Specs -->
    <text x="150" y="272" font-family="sans-serif" font-size="14" fill="#337755" text-anchor="middle">200 steps / rev  (1.8° per step)</text>
    <text x="150" y="294" font-family="sans-serif" font-size="14" fill="#337755" text-anchor="middle">4-wire bipolar</text>

    <!-- Gear box -->
    <rect x="24" y="316" width="252" height="56" rx="10" fill="#040A08" stroke="#1A4433" stroke-width="1.5"/>
    <text x="150" y="336" font-family="sans-serif" font-size="14" fill="#1DE9B6" text-anchor="middle" font-weight="bold">1 : 108  GEAR REDUCTION</text>
    <text x="150" y="356" font-family="sans-serif" font-size="13" fill="#337755" text-anchor="middle">Output: 0.1 – 5.0 RPM → Welding Table</text>
  </g>

  <!-- ══════════════════════════════════════════════════════
       24V PSU
       ══════════════════════════════════════════════════ -->
  <g transform="translate(1100, 530)">
    <rect width="300" height="150" rx="14" fill="#141206" stroke="#FFD600" stroke-width="2.5"/>
    <rect x="0" y="0" width="300" height="56" rx="14" fill="#FFD600" fill-opacity="0.10"/>
    <rect x="0" y="42" width="300" height="14" fill="#FFD600" fill-opacity="0.10"/>
    <text x="150" y="26" font-family="sans-serif" font-size="20" fill="#FFD600" text-anchor="middle" font-weight="bold" letter-spacing="2">24V  DC  PSU</text>
    <text x="150" y="48" font-family="sans-serif" font-size="13" fill="#665522" text-anchor="middle">Min 100W · 4.5A minimum</text>

    <!-- Terminals -->
    <rect x="30"  y="72" width="90" height="56" rx="8" fill="#100800" stroke="#FF5252" stroke-width="2"/>
    <text x="75"  y="97" font-family="sans-serif" font-size="18" fill="#FF5252" text-anchor="middle" font-weight="bold">V+</text>
    <text x="75"  y="116" font-family="sans-serif" font-size="13" fill="#FF5252" text-anchor="middle">24V</text>

    <rect x="180" y="72" width="90" height="56" rx="8" fill="#0A0A0A" stroke="#666" stroke-width="2"/>
    <text x="225" y="97" font-family="sans-serif" font-size="18" fill="#AAAAAA" text-anchor="middle" font-weight="bold">V−</text>
    <text x="225" y="116" font-family="sans-serif" font-size="13" fill="#888888" text-anchor="middle">GND</text>
  </g>

  <!-- ══════════════════════════════════════════════════════
       E-STOP BUTTON
       ══════════════════════════════════════════════════ -->
  <g transform="translate(40, 860)">
    <rect width="220" height="170" rx="14" fill="#140606" stroke="#FF1744" stroke-width="2.5"/>
    <rect x="0" y="0" width="220" height="56" rx="14" fill="#FF1744" fill-opacity="0.10"/>
    <rect x="0" y="42" width="220" height="14" fill="#FF1744" fill-opacity="0.10"/>
    <text x="110" y="26" font-family="sans-serif" font-size="20" fill="#FF1744" text-anchor="middle" font-weight="bold">E-STOP</text>
    <text x="110" y="48" font-family="sans-serif" font-size="13" fill="#662222" text-anchor="middle">NC · Normally Closed</text>

    <!-- Red button -->
    <circle cx="110" cy="112" r="34" fill="#FF1744" fill-opacity="0.15" stroke="#FF1744" stroke-width="2"/>
    <circle cx="110" cy="112" r="22" fill="#FF1744" fill-opacity="0.35"/>
    <text x="110" y="120" font-family="sans-serif" font-size="22" fill="#FF1744" text-anchor="middle" font-weight="bold">⏻</text>

    <!-- Terminals -->
    <circle cx="66"  cy="162" r="7" fill="#FF1744"/>
    <circle cx="154" cy="162" r="7" fill="#555"/>
    <text x="66"  y="175" font-family="monospace" font-size="12" fill="#FF7070" text-anchor="middle">SIG</text>
    <text x="154" y="175" font-family="monospace" font-size="12" fill="#888888" text-anchor="middle">GND</text>
  </g>

  <!-- ══════════════════════════════════════════════════════
       POTENTIOMETER
       ══════════════════════════════════════════════════ -->
  <g transform="translate(320, 876)">
    <rect width="260" height="130" rx="14" fill="#100614" stroke="#CC44FF" stroke-width="2.5"/>
    <rect x="0" y="0" width="260" height="56" rx="14" fill="#CC44FF" fill-opacity="0.10"/>
    <rect x="0" y="42" width="260" height="14" fill="#CC44FF" fill-opacity="0.10"/>
    <text x="130" y="26" font-family="sans-serif" font-size="20" fill="#CC88FF" text-anchor="middle" font-weight="bold">10kΩ  POT</text>
    <text x="130" y="48" font-family="sans-serif" font-size="13" fill="#551166" text-anchor="middle">Speed Control (ADC input)</text>

    <!-- 3 terminals -->
    <circle cx="46"  cy="100" r="9" fill="#FF5252"/>
    <circle cx="130" cy="100" r="9" fill="#CC44FF"/>
    <circle cx="214" cy="100" r="9" fill="#555"/>
    <text x="46"  y="122" font-family="monospace" font-size="13" fill="#FF7070" text-anchor="middle">3V3</text>
    <text x="130" y="122" font-family="monospace" font-size="13" fill="#DD99FF" text-anchor="middle">WIPER</text>
    <text x="214" y="122" font-family="monospace" font-size="13" fill="#888888" text-anchor="middle">GND</text>
  </g>

  <!-- ══════════════════════════════════════════════════════
       SIGNAL WIRES (ESP → TB6600)   CYAN
       ══════════════════════════════════════════════════ -->
  <!-- ENA: ESP GPIO52 left pin (40+80=120, 100+226+9=335) → TB ENA+ (640, 100+116+10=226) -->
  <path d="M 120 335 L 520 335 L 520 226 L 640 226" fill="none" stroke="#00E5FF" stroke-width="3" marker-end="url(#arrowC)"/>
  <text x="560" y="316" font-family="sans-serif" font-size="13" fill="#00CCCC" font-weight="bold">ENA</text>

  <!-- DIR: ESP GPIO51 left (120, 377) → TB DIR+ (640, 276) -->
  <path d="M 120 377 L 536 377 L 536 276 L 640 276" fill="none" stroke="#00E5FF" stroke-width="3" marker-end="url(#arrowC)"/>
  <text x="576" y="358" font-family="sans-serif" font-size="13" fill="#00CCCC" font-weight="bold">DIR</text>

  <!-- STEP: ESP GPIO50 left (120, 419) → TB PUL+ (640, 326) -->
  <path d="M 120 419 L 552 419 L 552 326 L 640 326" fill="none" stroke="#00E5FF" stroke-width="3" marker-end="url(#arrowC)"/>
  <text x="590" y="400" font-family="sans-serif" font-size="13" fill="#00CCCC" font-weight="bold">STEP</text>

  <!-- GND bus: ESP GND right row3 (40+296=336, 100+184+9=293) → TB ENA-/DIR-/PUL- -->
  <path d="M 336 293 L 336 70 L 1010 70 L 1010 196 L 640 196" fill="none" stroke="#555555" stroke-width="2.5"/>
  <path d="M 1010 196 L 1010 246 L 640 246" fill="none" stroke="#555555" stroke-width="2.5"/>
  <path d="M 1010 246 L 1010 296 L 640 296" fill="none" stroke="#555555" stroke-width="2.5"/>
  <text x="840" y="62" font-family="sans-serif" font-size="12" fill="#666666" text-anchor="middle">GND  BUS</text>

  <!-- ══════════════════════════════════════════════════════
       MOTOR WIRES (TB6600 → NEMA 23)
       ══════════════════════════════════════════════════ -->
  <!-- A+: TB A+ pin (640, 100+302+10=412) → NEMA A+ (1100, 90+120+10=220) -->
  <path d="M 640 412 L 1060 412 L 1060 220 L 1100 220" fill="none" stroke="#F44336" stroke-width="3" marker-end="url(#arrowT)"/>
  <text x="870" y="403" font-family="sans-serif" font-size="13" fill="#F44336" text-anchor="middle" font-weight="bold">RED · A+</text>

  <!-- A-: TB A- (640, 442) → NEMA A- (1100, 252) -->
  <path d="M 640 442 L 1070 442 L 1070 252 L 1100 252" fill="none" stroke="#4CAF50" stroke-width="3" marker-end="url(#arrowT)"/>
  <text x="870" y="432" font-family="sans-serif" font-size="13" fill="#4CAF50" text-anchor="middle" font-weight="bold">GREEN · A−</text>

  <!-- B+: TB B+ (640, 472) → NEMA B+ (1100, 284) -->
  <path d="M 640 472 L 1080 472 L 1080 284 L 1100 284" fill="none" stroke="#2196F3" stroke-width="3" marker-end="url(#arrowT)"/>
  <text x="870" y="462" font-family="sans-serif" font-size="13" fill="#2196F3" text-anchor="middle" font-weight="bold">BLUE · B+</text>

  <!-- B-: TB B- (640, 502) → NEMA B- (1100, 316) -->
  <path d="M 640 502 L 1090 502 L 1090 316 L 1100 316" fill="none" stroke="#CCCCCC" stroke-width="3" marker-end="url(#arrowT)"/>
  <text x="870" y="492" font-family="sans-serif" font-size="13" fill="#CCCCCC" text-anchor="middle" font-weight="bold">BLACK · B−</text>

  <!-- ══════════════════════════════════════════════════════
       POWER WIRES (PSU → TB6600)
       ══════════════════════════════════════════════════ -->
  <!-- PSU V+ (1100+75=1175, 530+100=630) → TB VCC (640, 556) -->
  <path d="M 1175 630 L 1175 560 L 630 560 L 630 556" fill="none" stroke="#FF5252" stroke-width="3" stroke-dasharray="12 5" marker-end="url(#arrowR)"/>
  <text x="900" y="549" font-family="sans-serif" font-size="14" fill="#FF7070" text-anchor="middle" font-weight="bold">24V DC</text>

  <!-- PSU GND (1100+225=1325, 630) → TB GND (640, 586) -->
  <path d="M 1325 630 L 1325 580 L 620 580 L 620 586" fill="none" stroke="#666666" stroke-width="2.5" marker-end="url(#arrowG)"/>
  <text x="980" y="575" font-family="sans-serif" font-size="13" fill="#888888" text-anchor="middle">GND</text>

  <!-- ══════════════════════════════════════════════════════
       E-STOP WIRES
       ══════════════════════════════════════════════════ -->
  <!-- E-STOP SIG (40+66=106, 860+162=1022) → ESP GPIO34 left (120, 100+436+9=545) -->
  <path d="M 106 1022 L 106 800 L 136 800 L 136 545 L 120 545" fill="none" stroke="#FF1744" stroke-width="2.5" marker-end="url(#arrowR)"/>

  <!-- E-STOP GND → shared GND bus (336, 293 region) -->
  <path d="M 194 1022 L 194 820 L 336 820 L 336 293" fill="none" stroke="#555555" stroke-width="2"/>

  <!-- ══════════════════════════════════════════════════════
       POT WIRES
       ══════════════════════════════════════════════════ -->
  <!-- POT 3V3 (320+46=366, 876+100=976) → ESP 3V3 left row1 (120, 100+100+9=209) -->
  <path d="M 366 976 L 366 850 L 72 850 L 72 209 L 120 209" fill="none" stroke="#FF5252" stroke-width="2" stroke-dasharray="8 4" marker-end="url(#arrowR)"/>

  <!-- POT WIPER (320+130=450, 976) → ESP GPIO49 left (120, 100+352+9=461) -->
  <path d="M 450 976 L 450 840 L 110 840 L 110 461 L 120 461" fill="none" stroke="#CC44FF" stroke-width="2.5" marker-end="url(#arrowC)"/>
  <text x="278" y="833" font-family="sans-serif" font-size="13" fill="#DD99FF">WIPER → GPIO49</text>

  <!-- POT GND (320+214=534, 976) → shared GND bus -->
  <path d="M 534 976 L 534 830 L 336 830" fill="none" stroke="#555555" stroke-width="2"/>

  <!-- ══════════════════════════════════════════════════════
       PIN REFERENCE
       ══════════════════════════════════════════════════ -->
  <g transform="translate(640, 720)">
    <rect width="420" height="200" rx="12" fill="#060A08" stroke="#1A3322" stroke-width="1.5"/>
    <text x="210" y="26" font-family="sans-serif" font-size="15" fill="#55AA77" text-anchor="middle" font-weight="bold" letter-spacing="1">PIN REFERENCE</text>

    <text x="18" y="54" font-family="monospace" font-size="14" fill="#00DDFF">GPIO52</text>
    <text x="100" y="54" font-family="monospace" font-size="14" fill="#AAAAAA">→  TB6600  ENA+</text>

    <text x="18" y="80" font-family="monospace" font-size="14" fill="#00DDFF">GPIO51</text>
    <text x="100" y="80" font-family="monospace" font-size="14" fill="#AAAAAA">→  TB6600  DIR+</text>

    <text x="18" y="106" font-family="monospace" font-size="14" fill="#00DDFF">GPIO50</text>
    <text x="100" y="106" font-family="monospace" font-size="14" fill="#AAAAAA">→  TB6600  PUL+  (STEP)</text>

    <text x="18" y="132" font-family="monospace" font-size="14" fill="#DD99FF">GPIO49</text>
    <text x="100" y="132" font-family="monospace" font-size="14" fill="#AAAAAA">→  Potentiometer Wiper  (ADC)</text>

    <text x="18" y="158" font-family="monospace" font-size="14" fill="#FF6666">GPIO34</text>
    <text x="100" y="158" font-family="monospace" font-size="14" fill="#AAAAAA">→  E-STOP NC contact</text>

    <text x="18" y="184" font-family="monospace" font-size="14" fill="#555555">GND</text>
    <text x="100" y="184" font-family="monospace" font-size="14" fill="#777777">→  TB6600 ENA/DIR/PUL (−) pins</text>
  </g>

  <!-- ══════════════════════════════════════════════════════
       WIRE LEGEND
       ══════════════════════════════════════════════════ -->
  <g transform="translate(1100, 740)">
    <rect width="360" height="260" rx="12" fill="#060A08" stroke="#1A3322" stroke-width="1.5"/>
    <text x="180" y="26" font-family="sans-serif" font-size="15" fill="#55AA77" text-anchor="middle" font-weight="bold" letter-spacing="1">WIRE LEGEND</text>

    <line x1="18" y1="50" x2="70" y2="50" stroke="#00E5FF" stroke-width="3"/>
    <text x="82" y="56" font-family="sans-serif" font-size="14" fill="#CCCCCC">Signal  (STEP / DIR / ENA)</text>

    <line x1="18" y1="84" x2="70" y2="84" stroke="#FF5252" stroke-width="3" stroke-dasharray="12 5"/>
    <text x="82" y="90" font-family="sans-serif" font-size="14" fill="#CCCCCC">Power  (24V or 3.3V)</text>

    <line x1="18" y1="118" x2="70" y2="118" stroke="#666" stroke-width="3"/>
    <text x="82" y="124" font-family="sans-serif" font-size="14" fill="#CCCCCC">Ground  (GND)</text>

    <line x1="18" y1="152" x2="70" y2="152" stroke="#F44336" stroke-width="3"/>
    <text x="82" y="158" font-family="sans-serif" font-size="14" fill="#CCCCCC">Motor coil  A  (RED / GREEN)</text>

    <line x1="18" y1="186" x2="70" y2="186" stroke="#2196F3" stroke-width="3"/>
    <text x="82" y="192" font-family="sans-serif" font-size="14" fill="#CCCCCC">Motor coil  B  (BLUE / BLACK)</text>

    <line x1="18" y1="220" x2="70" y2="220" stroke="#CC44FF" stroke-width="2.5"/>
    <text x="82" y="226" font-family="sans-serif" font-size="14" fill="#CCCCCC">Potentiometer wiper</text>

    <line x1="18" y1="248" x2="70" y2="248" stroke="#FF1744" stroke-width="2.5"/>
    <text x="82" y="254" font-family="sans-serif" font-size="14" fill="#CCCCCC">E-STOP signal</text>
  </g>

</svg>
